<?xml version="1.0" encoding="UTF-8"?>
<svg xmlns="http://www.w3.org/2000/svg" xmlns:xlink="http://www.w3.org/1999/xlink" width="350.085pt" height="211.834pt" viewBox="0 0 350.085 211.834" version="1.2">
<defs>
<g>
<symbol overflow="visible" id="glyph0-0">
<path style="stroke:none;" d=""/>
</symbol>
<symbol overflow="visible" id="glyph0-1">
<path style="stroke:none;" d="M 3.59375 -2.21875 C 3.59375 -2.984375 3.5 -3.53125 3.171875 -4.015625 C 2.96875 -4.34375 2.53125 -4.609375 1.96875 -4.609375 C 0.359375 -4.609375 0.359375 -2.71875 0.359375 -2.21875 C 0.359375 -1.71875 0.359375 0.140625 1.96875 0.140625 C 3.59375 0.140625 3.59375 -1.71875 3.59375 -2.21875 Z M 1.96875 -0.0625 C 1.65625 -0.0625 1.234375 -0.25 1.09375 -0.8125 C 1 -1.21875 1 -1.796875 1 -2.3125 C 1 -2.8125 1 -3.34375 1.09375 -3.734375 C 1.25 -4.28125 1.6875 -4.421875 1.96875 -4.421875 C 2.34375 -4.421875 2.71875 -4.1875 2.84375 -3.796875 C 2.953125 -3.40625 2.953125 -2.90625 2.953125 -2.3125 C 2.953125 -1.796875 2.953125 -1.28125 2.859375 -0.84375 C 2.71875 -0.203125 2.25 -0.0625 1.96875 -0.0625 Z M 1.96875 -0.0625 "/>
</symbol>
<symbol overflow="visible" id="glyph0-2">
<path style="stroke:none;" d="M 1.078125 -3.875 C 1.4375 -3.796875 1.640625 -3.796875 1.75 -3.796875 C 2.671875 -3.796875 3.21875 -4.421875 3.21875 -4.515625 C 3.21875 -4.59375 3.15625 -4.609375 3.125 -4.609375 C 3.109375 -4.609375 3.09375 -4.609375 3.078125 -4.59375 C 2.90625 -4.53125 2.53125 -4.390625 2.015625 -4.390625 C 1.828125 -4.390625 1.453125 -4.40625 1.015625 -4.578125 C 0.9375 -4.609375 0.921875 -4.609375 0.921875 -4.609375 C 0.828125 -4.609375 0.828125 -4.546875 0.828125 -4.421875 L 0.828125 -2.375 C 0.828125 -2.265625 0.828125 -2.171875 0.9375 -2.171875 C 1 -2.171875 1.015625 -2.1875 1.078125 -2.28125 C 1.375 -2.65625 1.796875 -2.71875 2.046875 -2.71875 C 2.46875 -2.71875 2.65625 -2.375 2.6875 -2.328125 C 2.8125 -2.09375 2.84375 -1.828125 2.84375 -1.421875 C 2.84375 -1.21875 2.84375 -0.8125 2.640625 -0.5 C 2.46875 -0.25 2.171875 -0.078125 1.828125 -0.078125 C 1.375 -0.078125 0.90625 -0.328125 0.734375 -0.796875 C 1 -0.765625 1.140625 -0.953125 1.140625 -1.140625 C 1.140625 -1.4375 0.875 -1.484375 0.78125 -1.484375 C 0.765625 -1.484375 0.4375 -1.484375 0.4375 -1.109375 C 0.4375 -0.484375 1.015625 0.140625 1.84375 0.140625 C 2.734375 0.140625 3.515625 -0.515625 3.515625 -1.390625 C 3.515625 -2.1875 2.90625 -2.90625 2.046875 -2.90625 C 1.75 -2.90625 1.390625 -2.828125 1.078125 -2.5625 Z M 1.078125 -3.875 "/>
</symbol>
<symbol overflow="visible" id="glyph0-3">
<path style="stroke:none;" d="M 2.328125 -4.421875 C 2.328125 -4.609375 2.3125 -4.609375 2.125 -4.609375 C 1.671875 -4.171875 1.046875 -4.171875 0.765625 -4.171875 L 0.765625 -3.921875 C 0.921875 -3.921875 1.390625 -3.921875 1.765625 -4.109375 L 1.765625 -0.5625 C 1.765625 -0.34375 1.765625 -0.25 1.078125 -0.25 L 0.8125 -0.25 L 0.8125 0 C 0.9375 0 1.78125 -0.03125 2.046875 -0.03125 C 2.265625 -0.03125 3.140625 0 3.28125 0 L 3.28125 -0.25 L 3.03125 -0.25 C 2.328125 -0.25 2.328125 -0.34375 2.328125 -0.5625 Z M 2.328125 -4.421875 "/>
</symbol>
<symbol overflow="visible" id="glyph0-4">
<path style="stroke:none;" d="M 3.515625 -1.265625 L 3.28125 -1.265625 C 3.25 -1.109375 3.1875 -0.703125 3.09375 -0.625 C 3.03125 -0.59375 2.5 -0.59375 2.40625 -0.59375 L 1.125 -0.59375 C 1.859375 -1.234375 2.09375 -1.4375 2.515625 -1.765625 C 3.03125 -2.171875 3.515625 -2.59375 3.515625 -3.265625 C 3.515625 -4.109375 2.78125 -4.609375 1.890625 -4.609375 C 1.015625 -4.609375 0.4375 -4.015625 0.4375 -3.375 C 0.4375 -3.015625 0.734375 -2.984375 0.8125 -2.984375 C 0.96875 -2.984375 1.171875 -3.09375 1.171875 -3.34375 C 1.171875 -3.484375 1.125 -3.71875 0.765625 -3.71875 C 0.984375 -4.21875 1.453125 -4.359375 1.78125 -4.359375 C 2.46875 -4.359375 2.84375 -3.828125 2.84375 -3.265625 C 2.84375 -2.65625 2.40625 -2.171875 2.1875 -1.921875 L 0.5 -0.265625 C 0.4375 -0.203125 0.4375 -0.1875 0.4375 0 L 3.296875 0 Z M 3.515625 -1.265625 "/>
</symbol>
<symbol overflow="visible" id="glyph0-5">
<path style="stroke:none;" d="M 1.890625 -2.328125 C 2.4375 -2.328125 2.828125 -1.953125 2.828125 -1.203125 C 2.828125 -0.34375 2.328125 -0.078125 1.921875 -0.078125 C 1.640625 -0.078125 1.03125 -0.15625 0.75 -0.5625 C 1.078125 -0.578125 1.140625 -0.8125 1.140625 -0.953125 C 1.140625 -1.1875 0.984375 -1.34375 0.765625 -1.34375 C 0.5625 -1.34375 0.375 -1.21875 0.375 -0.9375 C 0.375 -0.28125 1.09375 0.140625 1.9375 0.140625 C 2.90625 0.140625 3.578125 -0.5 3.578125 -1.203125 C 3.578125 -1.75 3.125 -2.28125 2.359375 -2.453125 C 3.09375 -2.71875 3.359375 -3.234375 3.359375 -3.65625 C 3.359375 -4.203125 2.71875 -4.609375 1.953125 -4.609375 C 1.1875 -4.609375 0.59375 -4.234375 0.59375 -3.6875 C 0.59375 -3.453125 0.75 -3.3125 0.953125 -3.3125 C 1.171875 -3.3125 1.3125 -3.484375 1.3125 -3.671875 C 1.3125 -3.875 1.171875 -4.015625 0.953125 -4.03125 C 1.203125 -4.34375 1.671875 -4.421875 1.9375 -4.421875 C 2.25 -4.421875 2.6875 -4.265625 2.6875 -3.65625 C 2.6875 -3.359375 2.59375 -3.046875 2.40625 -2.828125 C 2.171875 -2.5625 1.984375 -2.546875 1.640625 -2.53125 C 1.453125 -2.515625 1.453125 -2.515625 1.40625 -2.515625 C 1.390625 -2.515625 1.34375 -2.5 1.34375 -2.421875 C 1.34375 -2.328125 1.40625 -2.328125 1.515625 -2.328125 Z M 1.890625 -2.328125 "/>
</symbol>
<symbol overflow="visible" id="glyph0-6">
<path style="stroke:none;" d="M 3.671875 -1.140625 L 3.671875 -1.390625 L 2.90625 -1.390625 L 2.90625 -4.484375 C 2.90625 -4.640625 2.90625 -4.6875 2.75 -4.6875 C 2.671875 -4.6875 2.640625 -4.6875 2.578125 -4.59375 L 0.265625 -1.390625 L 0.265625 -1.140625 L 2.3125 -1.140625 L 2.3125 -0.5625 C 2.3125 -0.328125 2.3125 -0.25 1.75 -0.25 L 1.5625 -0.25 L 1.5625 0 C 1.90625 -0.015625 2.359375 -0.03125 2.609375 -0.03125 C 2.859375 -0.03125 3.3125 -0.015625 3.65625 0 L 3.65625 -0.25 L 3.46875 -0.25 C 2.90625 -0.25 2.90625 -0.328125 2.90625 -0.5625 L 2.90625 -1.140625 Z M 2.359375 -3.9375 L 2.359375 -1.390625 L 0.53125 -1.390625 Z M 2.359375 -3.9375 "/>
</symbol>
<symbol overflow="visible" id="glyph0-7">
<path style="stroke:none;" d="M 1.046875 -2.28125 C 1.046875 -2.84375 1.09375 -3.359375 1.359375 -3.78125 C 1.59375 -4.15625 1.96875 -4.421875 2.40625 -4.421875 C 2.625 -4.421875 2.90625 -4.359375 3.03125 -4.171875 C 2.859375 -4.15625 2.71875 -4.046875 2.71875 -3.84375 C 2.71875 -3.671875 2.84375 -3.515625 3.046875 -3.515625 C 3.25 -3.515625 3.375 -3.65625 3.375 -3.859375 C 3.375 -4.25 3.09375 -4.609375 2.40625 -4.609375 C 1.390625 -4.609375 0.375 -3.703125 0.375 -2.203125 C 0.375 -0.40625 1.21875 0.140625 1.984375 0.140625 C 2.84375 0.140625 3.578125 -0.5 3.578125 -1.421875 C 3.578125 -2.296875 2.875 -2.953125 2.0625 -2.953125 C 1.5 -2.953125 1.203125 -2.59375 1.046875 -2.28125 Z M 1.984375 -0.078125 C 1.640625 -0.078125 1.375 -0.28125 1.21875 -0.59375 C 1.125 -0.796875 1.0625 -1.140625 1.0625 -1.5625 C 1.0625 -2.234375 1.46875 -2.765625 2.015625 -2.765625 C 2.34375 -2.765625 2.5625 -2.640625 2.734375 -2.375 C 2.90625 -2.109375 2.90625 -1.828125 2.90625 -1.421875 C 2.90625 -1.015625 2.90625 -0.734375 2.71875 -0.453125 C 2.546875 -0.21875 2.328125 -0.078125 1.984375 -0.078125 Z M 1.984375 -0.078125 "/>
</symbol>
<symbol overflow="visible" id="glyph0-8">
<path style="stroke:none;" d="M 2.46875 -2.515625 C 3.015625 -2.78125 3.359375 -3.09375 3.359375 -3.578125 C 3.359375 -4.25 2.65625 -4.609375 1.984375 -4.609375 C 1.21875 -4.609375 0.59375 -4.109375 0.59375 -3.453125 C 0.59375 -3.125 0.75 -2.890625 0.875 -2.75 C 1 -2.609375 1.046875 -2.578125 1.453125 -2.34375 C 1.0625 -2.171875 0.375 -1.796875 0.375 -1.0625 C 0.375 -0.296875 1.171875 0.140625 1.96875 0.140625 C 2.84375 0.140625 3.578125 -0.421875 3.578125 -1.171875 C 3.578125 -1.640625 3.296875 -2.015625 2.90625 -2.265625 C 2.8125 -2.3125 2.5625 -2.453125 2.46875 -2.515625 Z M 1.328125 -3.171875 C 1.15625 -3.28125 0.953125 -3.46875 0.953125 -3.71875 C 0.953125 -4.15625 1.46875 -4.421875 1.96875 -4.421875 C 2.515625 -4.421875 2.984375 -4.078125 2.984375 -3.578125 C 2.984375 -2.96875 2.265625 -2.65625 2.25 -2.65625 C 2.234375 -2.65625 2.21875 -2.65625 2.171875 -2.6875 Z M 1.671875 -2.203125 L 2.625 -1.65625 C 2.8125 -1.546875 3.15625 -1.34375 3.15625 -0.9375 C 3.15625 -0.40625 2.578125 -0.078125 1.984375 -0.078125 C 1.34375 -0.078125 0.796875 -0.5 0.796875 -1.0625 C 0.796875 -1.578125 1.171875 -1.96875 1.671875 -2.203125 Z M 1.671875 -2.203125 "/>
</symbol>
<symbol overflow="visible" id="glyph0-9">
<path style="stroke:none;" d="M 2.40625 -1.03125 C 2.40625 -0.40625 2.03125 -0.0625 1.640625 -0.0625 C 1.421875 -0.0625 1.046875 -0.140625 0.84375 -0.40625 C 1.109375 -0.421875 1.234375 -0.59375 1.234375 -0.796875 C 1.234375 -1.015625 1.078125 -1.171875 0.84375 -1.171875 C 0.625 -1.171875 0.453125 -1.03125 0.453125 -0.78125 C 0.453125 -0.265625 0.984375 0.140625 1.65625 0.140625 C 2.296875 0.140625 2.90625 -0.234375 3.015625 -0.8125 C 3.03125 -0.90625 3.03125 -1.203125 3.03125 -1.40625 L 3.03125 -3.984375 C 3.03125 -4.109375 3.03125 -4.3125 3.046875 -4.359375 C 3.078125 -4.5 3.25 -4.5 3.578125 -4.5 L 3.578125 -4.75 C 3.546875 -4.75 3.03125 -4.71875 2.6875 -4.71875 C 2.53125 -4.71875 1.609375 -4.734375 1.46875 -4.75 L 1.46875 -4.5 L 1.734375 -4.5 C 2.40625 -4.5 2.40625 -4.40625 2.40625 -4.171875 Z M 2.40625 -1.03125 "/>
</symbol>
<symbol overflow="visible" id="glyph0-10">
<path style="stroke:none;" d="M 3.09375 -1.859375 C 3.09375 -2.234375 3.09375 -2.5 2.78125 -2.75 C 2.5 -2.984375 2.15625 -3.09375 1.75 -3.09375 C 1.09375 -3.09375 0.625 -2.84375 0.625 -2.421875 C 0.625 -2.203125 0.78125 -2.09375 0.953125 -2.09375 C 1.140625 -2.09375 1.28125 -2.21875 1.28125 -2.40625 C 1.28125 -2.53125 1.234375 -2.671875 1.046875 -2.734375 C 1.296875 -2.90625 1.703125 -2.90625 1.734375 -2.90625 C 2.125 -2.90625 2.546875 -2.65625 2.546875 -2.0625 L 2.546875 -1.84375 C 2.171875 -1.828125 1.703125 -1.8125 1.203125 -1.625 C 0.578125 -1.390625 0.375 -1.015625 0.375 -0.703125 C 0.375 -0.109375 1.109375 0.0625 1.59375 0.0625 C 2.15625 0.0625 2.484375 -0.25 2.625 -0.515625 C 2.65625 -0.234375 2.84375 0.03125 3.15625 0.03125 C 3.171875 0.03125 3.859375 0.03125 3.859375 -0.625 L 3.859375 -1.015625 L 3.609375 -1.015625 L 3.609375 -0.625 C 3.609375 -0.5625 3.609375 -0.234375 3.359375 -0.234375 C 3.09375 -0.234375 3.09375 -0.5625 3.09375 -0.640625 Z M 2.546875 -0.984375 C 2.546875 -0.3125 1.96875 -0.125 1.65625 -0.125 C 1.296875 -0.125 0.96875 -0.359375 0.96875 -0.703125 C 0.96875 -1.078125 1.296875 -1.625 2.546875 -1.671875 Z M 2.546875 -0.984375 "/>
</symbol>
<symbol overflow="visible" id="glyph0-11">
<path style="stroke:none;" d="M 2.703125 -2.78125 C 2.578125 -2.71875 2.515625 -2.609375 2.515625 -2.46875 C 2.515625 -2.28125 2.640625 -2.140625 2.84375 -2.140625 C 3.03125 -2.140625 3.171875 -2.265625 3.171875 -2.484375 C 3.171875 -3.09375 2.203125 -3.09375 2.015625 -3.09375 C 0.96875 -3.09375 0.3125 -2.296875 0.3125 -1.5 C 0.3125 -0.625 1.0625 0.0625 1.96875 0.0625 C 3.015625 0.0625 3.25 -0.75 3.25 -0.828125 C 3.25 -0.921875 3.15625 -0.921875 3.140625 -0.921875 C 3.046875 -0.921875 3.03125 -0.890625 3 -0.796875 C 2.84375 -0.375 2.484375 -0.15625 2.0625 -0.15625 C 1.578125 -0.15625 0.953125 -0.5 0.953125 -1.515625 C 0.953125 -2.390625 1.390625 -2.875 2.03125 -2.875 C 2.125 -2.875 2.453125 -2.875 2.703125 -2.78125 Z M 2.703125 -2.78125 "/>
</symbol>
<symbol overflow="visible" id="glyph0-12">
<path style="stroke:none;" d="M 3.671875 -1.484375 C 3.671875 -2.34375 2.9375 -3.09375 1.96875 -3.09375 C 1.015625 -3.09375 0.265625 -2.34375 0.265625 -1.484375 C 0.265625 -0.625 1.03125 0.0625 1.96875 0.0625 C 2.90625 0.0625 3.671875 -0.625 3.671875 -1.484375 Z M 1.96875 -0.15625 C 1.71875 -0.15625 1.34375 -0.234375 1.109375 -0.578125 C 0.921875 -0.859375 0.90625 -1.21875 0.90625 -1.546875 C 0.90625 -1.84375 0.90625 -2.25 1.15625 -2.546875 C 1.328125 -2.75 1.625 -2.90625 1.96875 -2.90625 C 2.390625 -2.90625 2.671875 -2.71875 2.828125 -2.5 C 3.03125 -2.21875 3.046875 -1.875 3.046875 -1.546875 C 3.046875 -1.203125 3.03125 -0.84375 2.828125 -0.5625 C 2.640625 -0.296875 2.3125 -0.15625 1.96875 -0.15625 Z M 1.96875 -0.15625 "/>
</symbol>
<symbol overflow="visible" id="glyph0-13">
<path style="stroke:none;" d="M 1.390625 -4.828125 L 0.34375 -4.75 L 0.34375 -4.5 C 0.8125 -4.5 0.859375 -4.4375 0.859375 -4.09375 L 0.859375 0 L 1.09375 0 L 1.34375 -0.421875 C 1.609375 -0.078125 1.984375 0.0625 2.359375 0.0625 C 3.28125 0.0625 4.0625 -0.625 4.0625 -1.5 C 4.0625 -2.34375 3.34375 -3.0625 2.4375 -3.0625 C 2.015625 -3.0625 1.640625 -2.90625 1.390625 -2.65625 Z M 1.40625 -2.328125 C 1.609375 -2.65625 1.984375 -2.875 2.40625 -2.875 C 2.78125 -2.875 3.0625 -2.65625 3.203125 -2.4375 C 3.34375 -2.234375 3.421875 -1.96875 3.421875 -1.515625 C 3.421875 -1.34375 3.421875 -0.828125 3.140625 -0.5 C 2.859375 -0.1875 2.53125 -0.125 2.328125 -0.125 C 1.765625 -0.125 1.484375 -0.5625 1.40625 -0.703125 Z M 1.40625 -2.328125 "/>
</symbol>
<symbol overflow="visible" id="glyph0-14">
<path style="stroke:none;" d="M 1.46875 -4.296875 C 1.46875 -4.484375 1.296875 -4.6875 1.0625 -4.6875 C 0.859375 -4.6875 0.671875 -4.515625 0.671875 -4.296875 C 0.671875 -4.046875 0.875 -3.890625 1.0625 -3.890625 C 1.28125 -3.890625 1.46875 -4.0625 1.46875 -4.296875 Z M 0.40625 -2.984375 L 0.40625 -2.734375 C 0.84375 -2.734375 0.90625 -2.703125 0.90625 -2.359375 L 0.90625 -0.546875 C 0.90625 -0.25 0.84375 -0.25 0.390625 -0.25 L 0.390625 0 C 0.40625 0 0.890625 -0.03125 1.171875 -0.03125 C 1.40625 -0.03125 1.65625 -0.015625 1.90625 0 L 1.90625 -0.25 C 1.5 -0.25 1.4375 -0.25 1.4375 -0.546875 L 1.4375 -3.0625 Z M 0.40625 -2.984375 "/>
</symbol>
<symbol overflow="visible" id="glyph0-15">
<path style="stroke:none;" d="M 3.578125 -2.109375 C 3.578125 -2.71875 3.28125 -3.0625 2.53125 -3.0625 C 1.96875 -3.0625 1.59375 -2.75 1.40625 -2.390625 L 1.390625 -2.390625 L 1.390625 -3.0625 L 0.375 -2.984375 L 0.375 -2.734375 C 0.84375 -2.734375 0.890625 -2.6875 0.890625 -2.34375 L 0.890625 -0.546875 C 0.890625 -0.25 0.828125 -0.25 0.375 -0.25 L 0.375 0 C 0.390625 0 0.875 -0.03125 1.171875 -0.03125 C 1.421875 -0.03125 1.90625 0 1.96875 0 L 1.96875 -0.25 C 1.515625 -0.25 1.453125 -0.25 1.453125 -0.546875 L 1.453125 -1.796875 C 1.453125 -2.53125 2.015625 -2.875 2.484375 -2.875 C 2.96875 -2.875 3.03125 -2.484375 3.03125 -2.140625 L 3.03125 -0.546875 C 3.03125 -0.25 2.96875 -0.25 2.515625 -0.25 L 2.515625 0 C 2.53125 0 3.015625 -0.03125 3.296875 -0.03125 C 3.5625 -0.03125 4.046875 0 4.109375 0 L 4.109375 -0.25 C 3.65625 -0.25 3.578125 -0.25 3.578125 -0.546875 Z M 3.578125 -2.109375 "/>
</symbol>
<symbol overflow="visible" id="glyph0-16">
<path style="stroke:none;" d="M 1.4375 -4.828125 L 0.390625 -4.75 L 0.390625 -4.5 C 0.859375 -4.5 0.90625 -4.453125 0.90625 -4.109375 L 0.90625 -0.546875 C 0.90625 -0.25 0.84375 -0.25 0.390625 -0.25 L 0.390625 0 C 0.40625 0 0.890625 -0.03125 1.171875 -0.03125 C 1.4375 -0.03125 1.6875 -0.015625 1.953125 0 L 1.953125 -0.25 C 1.5 -0.25 1.4375 -0.25 1.4375 -0.546875 Z M 1.4375 -4.828125 "/>
</symbol>
<symbol overflow="visible" id="glyph0-17">
<path style="stroke:none;" d="M 3.0625 -1.578125 C 3.203125 -1.578125 3.25 -1.578125 3.25 -1.734375 C 3.25 -2.34375 2.90625 -3.09375 1.875 -3.09375 C 0.96875 -3.09375 0.265625 -2.375 0.265625 -1.515625 C 0.265625 -0.640625 1.046875 0.0625 1.96875 0.0625 C 2.90625 0.0625 3.25 -0.6875 3.25 -0.828125 C 3.25 -0.859375 3.234375 -0.9375 3.140625 -0.9375 C 3.046875 -0.9375 3.03125 -0.890625 3.015625 -0.828125 C 2.796875 -0.25 2.265625 -0.15625 2.015625 -0.15625 C 1.6875 -0.15625 1.375 -0.296875 1.171875 -0.5625 C 0.90625 -0.890625 0.90625 -1.3125 0.90625 -1.578125 Z M 0.90625 -1.765625 C 0.984375 -2.75 1.609375 -2.90625 1.875 -2.90625 C 2.734375 -2.90625 2.765625 -1.9375 2.765625 -1.765625 Z M 0.90625 -1.765625 "/>
</symbol>
<symbol overflow="visible" id="glyph0-18">
<path style="stroke:none;" d="M 2.640625 -2.921875 C 2.640625 -3.03125 2.640625 -3.09375 2.53125 -3.09375 C 2.5 -3.09375 2.484375 -3.09375 2.40625 -3.015625 C 2.390625 -3.015625 2.3125 -2.953125 2.28125 -2.90625 C 2.0625 -3.0625 1.796875 -3.09375 1.546875 -3.09375 C 0.546875 -3.09375 0.3125 -2.578125 0.3125 -2.234375 C 0.3125 -2.015625 0.40625 -1.828125 0.578125 -1.6875 C 0.84375 -1.453125 1.109375 -1.40625 1.53125 -1.34375 C 1.890625 -1.28125 2.453125 -1.1875 2.453125 -0.71875 C 2.453125 -0.4375 2.265625 -0.125 1.59375 -0.125 C 0.921875 -0.125 0.6875 -0.5625 0.5625 -1.03125 C 0.53125 -1.125 0.53125 -1.15625 0.4375 -1.15625 C 0.3125 -1.15625 0.3125 -1.109375 0.3125 -0.96875 L 0.3125 -0.109375 C 0.3125 0 0.3125 0.0625 0.40625 0.0625 C 0.46875 0.0625 0.609375 -0.078125 0.75 -0.234375 C 1.046875 0.0625 1.421875 0.0625 1.59375 0.0625 C 2.5 0.0625 2.828125 -0.421875 2.828125 -0.90625 C 2.828125 -1.171875 2.71875 -1.390625 2.53125 -1.546875 C 2.265625 -1.796875 1.953125 -1.84375 1.703125 -1.890625 C 1.140625 -1.984375 0.703125 -2.078125 0.703125 -2.4375 C 0.703125 -2.65625 0.890625 -2.9375 1.546875 -2.9375 C 2.34375 -2.9375 2.390625 -2.375 2.40625 -2.171875 C 2.40625 -2.09375 2.484375 -2.09375 2.515625 -2.09375 C 2.640625 -2.09375 2.640625 -2.140625 2.640625 -2.28125 Z M 2.640625 -2.921875 "/>
</symbol>
<symbol overflow="visible" id="glyph0-19">
<path style="stroke:none;" d="M 2.46875 -5.21875 C 1.140625 -4.28125 0.796875 -2.8125 0.796875 -1.75 C 0.796875 -0.765625 1.09375 0.765625 2.46875 1.734375 C 2.53125 1.734375 2.609375 1.734375 2.609375 1.640625 C 2.609375 1.609375 2.59375 1.59375 2.53125 1.546875 C 1.609375 0.703125 1.265625 -0.46875 1.265625 -1.734375 C 1.265625 -3.609375 1.984375 -4.53125 2.5625 -5.046875 C 2.59375 -5.078125 2.609375 -5.09375 2.609375 -5.125 C 2.609375 -5.21875 2.53125 -5.21875 2.46875 -5.21875 Z M 2.46875 -5.21875 "/>
</symbol>
<symbol overflow="visible" id="glyph0-20">
<path style="stroke:none;" d="M 5.34375 -2.34375 C 5.4375 -2.34375 5.609375 -2.34375 5.609375 -2.515625 C 5.609375 -2.671875 5.4375 -2.671875 5.34375 -2.671875 L 0.75 -2.671875 C 0.65625 -2.671875 0.484375 -2.671875 0.484375 -2.515625 C 0.484375 -2.34375 0.640625 -2.34375 0.75 -2.34375 Z M 5.34375 -0.8125 C 5.4375 -0.8125 5.609375 -0.8125 5.609375 -0.96875 C 5.609375 -1.140625 5.4375 -1.140625 5.34375 -1.140625 L 0.75 -1.140625 C 0.640625 -1.140625 0.484375 -1.140625 0.484375 -0.96875 C 0.484375 -0.8125 0.65625 -0.8125 0.75 -0.8125 Z M 5.34375 -0.8125 "/>
</symbol>
<symbol overflow="visible" id="glyph0-21">
<path style="stroke:none;" d="M 2.90625 -2.078125 C 2.90625 -0.34375 2.046875 -0.078125 1.640625 -0.078125 C 1.484375 -0.078125 1.109375 -0.09375 0.921875 -0.3125 C 1.203125 -0.34375 1.234375 -0.578125 1.234375 -0.640625 C 1.234375 -0.8125 1.109375 -0.96875 0.90625 -0.96875 C 0.703125 -0.96875 0.5625 -0.828125 0.5625 -0.625 C 0.5625 -0.15625 0.96875 0.140625 1.640625 0.140625 C 2.640625 0.140625 3.578125 -0.796875 3.578125 -2.28125 C 3.578125 -4.015625 2.8125 -4.609375 2 -4.609375 C 1.765625 -4.609375 1.28125 -4.578125 0.890625 -4.1875 C 0.65625 -3.96875 0.375 -3.6875 0.375 -3.0625 C 0.375 -2.1875 1.078125 -1.53125 1.890625 -1.53125 C 2.453125 -1.53125 2.75 -1.890625 2.90625 -2.21875 Z M 1.921875 -1.71875 C 1.65625 -1.71875 1.390625 -1.8125 1.203125 -2.140625 C 1.046875 -2.390625 1.046875 -2.6875 1.046875 -3.0625 C 1.046875 -3.46875 1.046875 -3.75 1.25 -4.03125 C 1.40625 -4.265625 1.640625 -4.421875 2 -4.421875 C 2.359375 -4.421875 2.5625 -4.1875 2.671875 -4.015625 C 2.859375 -3.71875 2.890625 -3.234375 2.890625 -2.984375 C 2.890625 -2.09375 2.359375 -1.71875 1.921875 -1.71875 Z M 1.921875 -1.71875 "/>
</symbol>
<symbol overflow="visible" id="glyph0-22">
<path style="stroke:none;" d="M 0.625 -5.21875 C 0.578125 -5.21875 0.5 -5.21875 0.5 -5.125 C 0.5 -5.09375 0.515625 -5.078125 0.5625 -5.03125 C 1.15625 -4.484375 1.828125 -3.546875 1.828125 -1.75 C 1.828125 -0.296875 1.375 0.8125 0.625 1.484375 C 0.5 1.609375 0.5 1.609375 0.5 1.640625 C 0.5 1.6875 0.515625 1.734375 0.578125 1.734375 C 0.671875 1.734375 1.328125 1.265625 1.78125 0.40625 C 2.09375 -0.171875 2.296875 -0.921875 2.296875 -1.734375 C 2.296875 -2.71875 2 -4.234375 0.625 -5.21875 Z M 0.625 -5.21875 "/>
</symbol>
<symbol overflow="visible" id="glyph0-23">
<path style="stroke:none;" d="M 1 -1.234375 C 1.109375 -1.171875 1.359375 -1.015625 1.765625 -1.015625 C 2.46875 -1.015625 3 -1.5 3 -2.046875 C 3 -2.3125 2.875 -2.53125 2.703125 -2.71875 C 3.015625 -2.9375 3.28125 -2.9375 3.40625 -2.9375 C 3.375 -2.90625 3.34375 -2.890625 3.34375 -2.78125 C 3.34375 -2.640625 3.453125 -2.546875 3.5625 -2.546875 C 3.671875 -2.546875 3.796875 -2.625 3.796875 -2.78125 C 3.796875 -2.9375 3.65625 -3.140625 3.375 -3.140625 C 3.28125 -3.140625 2.90625 -3.109375 2.578125 -2.8125 C 2.359375 -2.96875 2.078125 -3.0625 1.765625 -3.0625 C 1.046875 -3.0625 0.53125 -2.59375 0.53125 -2.046875 C 0.53125 -1.765625 0.671875 -1.515625 0.859375 -1.34375 C 0.8125 -1.28125 0.65625 -1.046875 0.65625 -0.78125 C 0.65625 -0.6875 0.671875 -0.359375 0.953125 -0.15625 C 0.625 -0.0625 0.265625 0.171875 0.265625 0.53125 C 0.265625 1.046875 1.03125 1.421875 1.96875 1.421875 C 2.859375 1.421875 3.671875 1.078125 3.671875 0.515625 C 3.671875 0.3125 3.59375 -0.0625 3.21875 -0.265625 C 2.796875 -0.484375 2.390625 -0.484375 1.71875 -0.484375 C 1.5625 -0.484375 1.3125 -0.484375 1.265625 -0.5 C 1.03125 -0.546875 0.90625 -0.75 0.90625 -0.953125 C 0.90625 -1.125 0.953125 -1.1875 1 -1.234375 Z M 1.765625 -1.234375 C 1.078125 -1.234375 1.078125 -1.890625 1.078125 -2.046875 C 1.078125 -2.15625 1.078125 -2.4375 1.21875 -2.609375 C 1.328125 -2.734375 1.515625 -2.859375 1.765625 -2.859375 C 2.4375 -2.859375 2.4375 -2.1875 2.4375 -2.046875 C 2.4375 -1.9375 2.4375 -1.65625 2.296875 -1.46875 C 2.203125 -1.359375 2.015625 -1.234375 1.765625 -1.234375 Z M 1.765625 -0.015625 C 2.390625 -0.015625 3.25 -0.015625 3.25 0.53125 C 3.25 0.890625 2.703125 1.21875 1.96875 1.21875 C 1.25 1.21875 0.703125 0.890625 0.703125 0.53125 C 0.703125 0.28125 0.921875 -0.015625 1.359375 -0.015625 Z M 1.765625 -0.015625 "/>
</symbol>
<symbol overflow="visible" id="glyph0-24">
<path style="stroke:none;" d="M 1.390625 -2.75 L 2.484375 -2.75 L 2.484375 -3 L 1.390625 -3 L 1.390625 -4.28125 L 1.15625 -4.28125 C 1.15625 -3.65625 0.875 -2.96875 0.203125 -2.9375 L 0.203125 -2.75 L 0.84375 -2.75 L 0.84375 -0.875 C 0.84375 -0.09375 1.4375 0.0625 1.828125 0.0625 C 2.28125 0.0625 2.609375 -0.328125 2.609375 -0.875 L 2.609375 -1.265625 L 2.375 -1.265625 L 2.375 -0.890625 C 2.375 -0.40625 2.15625 -0.15625 1.875 -0.15625 C 1.390625 -0.15625 1.390625 -0.734375 1.390625 -0.859375 Z M 1.390625 -2.75 "/>
</symbol>
<symbol overflow="visible" id="glyph0-25">
<path style="stroke:none;" d="M 2.1875 -1.265625 L 2.1875 -1.734375 L 0.140625 -1.734375 L 0.140625 -1.265625 Z M 2.1875 -1.265625 "/>
</symbol>
<symbol overflow="visible" id="glyph0-26">
<path style="stroke:none;" d="M 2.515625 -2.984375 L 2.515625 -2.734375 C 2.96875 -2.734375 3.03125 -2.6875 3.03125 -2.34375 L 3.03125 -1.15625 C 3.03125 -0.546875 2.640625 -0.125 2.109375 -0.125 C 1.46875 -0.125 1.453125 -0.421875 1.453125 -0.78125 L 1.453125 -3.0625 L 0.375 -2.984375 L 0.375 -2.734375 C 0.890625 -2.734375 0.890625 -2.71875 0.890625 -2.09375 L 0.890625 -1.0625 C 0.890625 -0.578125 0.890625 0.0625 2.0625 0.0625 C 2.21875 0.0625 2.71875 0.0625 3.046875 -0.515625 L 3.0625 -0.515625 L 3.0625 0.0625 L 4.109375 0 L 4.109375 -0.25 C 3.640625 -0.25 3.578125 -0.296875 3.578125 -0.640625 L 3.578125 -3.0625 Z M 2.515625 -2.984375 "/>
</symbol>
<symbol overflow="visible" id="glyph0-27">
<path style="stroke:none;" d="M 3.71875 -4.203125 C 3.796875 -4.28125 3.796875 -4.296875 3.796875 -4.484375 L 1.96875 -4.484375 C 1.6875 -4.484375 1.609375 -4.484375 1.359375 -4.5 C 1 -4.53125 0.984375 -4.578125 0.96875 -4.703125 L 0.734375 -4.703125 L 0.484375 -3.21875 L 0.71875 -3.21875 C 0.734375 -3.3125 0.8125 -3.78125 0.921875 -3.84375 C 0.96875 -3.890625 1.53125 -3.890625 1.640625 -3.890625 L 3.15625 -3.890625 C 2.9375 -3.59375 2.578125 -3.15625 2.4375 -2.96875 C 1.515625 -1.765625 1.4375 -0.671875 1.4375 -0.25 C 1.4375 -0.1875 1.4375 0.140625 1.765625 0.140625 C 2.09375 0.140625 2.09375 -0.171875 2.09375 -0.265625 L 2.09375 -0.546875 C 2.09375 -1.890625 2.375 -2.515625 2.671875 -2.890625 Z M 3.71875 -4.203125 "/>
</symbol>
<symbol overflow="visible" id="glyph1-0">
<path style="stroke:none;" d=""/>
</symbol>
<symbol overflow="visible" id="glyph1-1">
<path style="stroke:none;" d="M 1.578125 -0.390625 C 1.578125 -0.640625 1.375 -0.796875 1.1875 -0.796875 C 0.953125 -0.796875 0.78125 -0.609375 0.78125 -0.40625 C 0.78125 -0.15625 0.984375 0 1.171875 0 C 1.40625 0 1.578125 -0.1875 1.578125 -0.390625 Z M 1.578125 -0.390625 "/>
</symbol>
<symbol overflow="visible" id="glyph1-2">
<path style="stroke:none;" d="M 0.375 1.125 C 0.34375 1.21875 0.34375 1.265625 0.34375 1.265625 C 0.34375 1.421875 0.46875 1.484375 0.578125 1.484375 C 0.828125 1.484375 0.890625 1.28125 0.9375 1.0625 C 1.03125 0.703125 1.234375 -0.09375 1.296875 -0.359375 C 1.359375 -0.25 1.578125 0.0625 2.0625 0.0625 C 2.953125 0.0625 3.90625 -0.875 3.90625 -1.890625 C 3.90625 -2.625 3.40625 -3.0625 2.796875 -3.0625 C 2.109375 -3.0625 1.265625 -2.46875 1.03125 -1.484375 Z M 2.0625 -0.125 C 1.546875 -0.125 1.390625 -0.640625 1.390625 -0.734375 C 1.390625 -0.75 1.4375 -0.890625 1.453125 -0.984375 C 1.65625 -1.828125 1.703125 -2 1.90625 -2.296875 C 2.15625 -2.671875 2.5 -2.875 2.78125 -2.875 C 3.0625 -2.875 3.34375 -2.671875 3.34375 -2.171875 C 3.34375 -1.84375 3.15625 -1.078125 2.9375 -0.734375 C 2.625 -0.234375 2.28125 -0.125 2.0625 -0.125 Z M 2.0625 -0.125 "/>
</symbol>
<symbol overflow="visible" id="glyph2-0">
<path style="stroke:none;" d=""/>
</symbol>
<symbol overflow="visible" id="glyph2-1">
<path style="stroke:none;" d="M 5.34375 -2.3125 L 5.09375 -2.3125 C 5 -1.40625 4.875 -0.28125 3.265625 -0.28125 L 2.5 -0.28125 C 2.078125 -0.28125 2.0625 -0.34375 2.0625 -0.640625 L 2.0625 -5.390625 C 2.0625 -5.71875 2.09375 -5.828125 2.90625 -5.828125 L 3.1875 -5.828125 L 3.1875 -6.109375 C 2.875 -6.078125 2.0625 -6.078125 1.703125 -6.078125 C 1.296875 -6.078125 0.734375 -6.078125 0.34375 -6.109375 L 0.34375 -5.828125 L 0.546875 -5.828125 C 1.234375 -5.828125 1.25 -5.734375 1.25 -5.390625 L 1.25 -0.703125 C 1.25 -0.375 1.234375 -0.28125 0.546875 -0.28125 L 0.34375 -0.28125 L 0.34375 0 L 5.09375 0 Z M 5.34375 -2.3125 "/>
</symbol>
<symbol overflow="visible" id="glyph2-2">
<path style="stroke:none;" d="M 3.0625 -0.640625 C 3.09375 -0.265625 3.359375 0.046875 3.75 0.046875 C 3.96875 0.046875 4.53125 -0.078125 4.53125 -0.796875 L 4.53125 -1.296875 L 4.28125 -1.296875 L 4.28125 -0.796875 C 4.28125 -0.703125 4.28125 -0.265625 3.953125 -0.265625 C 3.640625 -0.265625 3.640625 -0.6875 3.640625 -0.828125 L 3.640625 -2.390625 C 3.640625 -2.90625 3.640625 -3.203125 3.234375 -3.578125 C 2.90625 -3.875 2.46875 -4 2.03125 -4 C 1.28125 -4 0.65625 -3.625 0.65625 -3.0625 C 0.65625 -2.78125 0.84375 -2.625 1.078125 -2.625 C 1.3125 -2.625 1.484375 -2.8125 1.484375 -3.03125 C 1.484375 -3.421875 1.09375 -3.46875 1.078125 -3.46875 C 1.328125 -3.703125 1.75 -3.78125 2.015625 -3.78125 C 2.46875 -3.78125 2.96875 -3.4375 2.96875 -2.65625 L 2.96875 -2.359375 C 2.5 -2.34375 1.828125 -2.296875 1.21875 -2.015625 C 0.578125 -1.703125 0.390625 -1.234375 0.390625 -0.875 C 0.390625 -0.140625 1.25 0.09375 1.84375 0.09375 C 2.59375 0.09375 2.9375 -0.390625 3.0625 -0.640625 Z M 2.96875 -1.265625 C 2.96875 -0.390625 2.3125 -0.125 1.90625 -0.125 C 1.5 -0.125 1.09375 -0.421875 1.09375 -0.875 C 1.09375 -1.46875 1.609375 -2.09375 2.96875 -2.140625 Z M 2.96875 -1.265625 "/>
</symbol>
<symbol overflow="visible" id="glyph2-3">
<path style="stroke:none;" d="M 1.625 -3.15625 C 1.578125 -3.28125 1.578125 -3.328125 1.578125 -3.34375 C 1.578125 -3.578125 1.875 -3.578125 2.0625 -3.578125 L 2.0625 -3.859375 C 1.625 -3.828125 1.453125 -3.828125 1.078125 -3.828125 C 1.046875 -3.828125 0.53125 -3.828125 0.1875 -3.859375 L 0.1875 -3.578125 C 0.59375 -3.578125 0.765625 -3.5625 0.859375 -3.3125 L 2.28125 0 L 2.0625 0.53125 C 1.859375 1 1.59375 1.609375 1.015625 1.609375 C 0.796875 1.609375 0.640625 1.5 0.609375 1.46875 C 0.6875 1.46875 0.9375 1.390625 0.9375 1.09375 C 0.9375 0.859375 0.765625 0.71875 0.5625 0.71875 C 0.34375 0.71875 0.171875 0.859375 0.171875 1.09375 C 0.171875 1.5 0.546875 1.828125 1.015625 1.828125 C 1.59375 1.828125 1.984375 1.3125 2.203125 0.828125 L 3.8125 -2.953125 C 3.921875 -3.1875 4.078125 -3.5625 4.640625 -3.578125 L 4.640625 -3.859375 C 4.359375 -3.828125 4.078125 -3.828125 3.96875 -3.828125 C 3.71875 -3.828125 3.4375 -3.828125 3.1875 -3.859375 L 3.1875 -3.578125 C 3.609375 -3.5625 3.609375 -3.234375 3.609375 -3.203125 C 3.609375 -3.09375 3.5625 -3.015625 3.53125 -2.9375 L 2.625 -0.8125 Z M 1.625 -3.15625 "/>
</symbol>
<symbol overflow="visible" id="glyph2-4">
<path style="stroke:none;" d="M 3.578125 -2.046875 C 3.765625 -2.046875 3.8125 -2.046875 3.8125 -2.234375 C 3.8125 -3.15625 3.3125 -4 2.171875 -4 C 1.09375 -4 0.265625 -3.078125 0.265625 -1.96875 C 0.265625 -0.796875 1.203125 0.09375 2.28125 0.09375 C 3.375 0.09375 3.8125 -0.859375 3.8125 -1.0625 C 3.8125 -1.125 3.765625 -1.1875 3.6875 -1.1875 C 3.609375 -1.1875 3.578125 -1.125 3.5625 -1.078125 C 3.265625 -0.171875 2.46875 -0.15625 2.328125 -0.15625 C 1.90625 -0.15625 1.53125 -0.390625 1.328125 -0.703125 C 1.03125 -1.140625 1.03125 -1.671875 1.03125 -2.046875 Z M 1.03125 -2.265625 C 1.125 -3.640625 1.921875 -3.78125 2.171875 -3.78125 C 2.65625 -3.78125 3.203125 -3.40625 3.203125 -2.265625 Z M 1.03125 -2.265625 "/>
</symbol>
<symbol overflow="visible" id="glyph2-5">
<path style="stroke:none;" d="M 1.59375 -2.046875 C 1.59375 -2.40625 1.6875 -3.734375 2.703125 -3.734375 L 2.703125 -3.71875 C 2.6875 -3.703125 2.546875 -3.609375 2.546875 -3.390625 C 2.546875 -3.140625 2.734375 -3 2.9375 -3 C 3.125 -3 3.328125 -3.125 3.328125 -3.390625 C 3.328125 -3.6875 3.0625 -3.953125 2.65625 -3.953125 C 2.125 -3.953125 1.75 -3.578125 1.546875 -3.015625 L 1.53125 -3.015625 L 1.53125 -3.953125 L 0.265625 -3.859375 L 0.265625 -3.578125 C 0.875 -3.578125 0.953125 -3.515625 0.953125 -3.078125 L 0.953125 -0.6875 C 0.953125 -0.28125 0.859375 -0.28125 0.265625 -0.28125 L 0.265625 0 C 0.734375 -0.015625 0.859375 -0.03125 1.3125 -0.03125 C 1.671875 -0.03125 1.890625 -0.015625 2.453125 0 L 2.453125 -0.28125 L 2.265625 -0.28125 C 1.625 -0.28125 1.59375 -0.375 1.59375 -0.703125 Z M 1.59375 -2.046875 "/>
</symbol>
<symbol overflow="visible" id="glyph3-0">
<path style="stroke:none;" d=""/>
</symbol>
<symbol overflow="visible" id="glyph3-1">
<path style="stroke:none;" d="M -3.15625 -2.046875 L -5.453125 -2.046875 C -5.6875 -2.046875 -5.78125 -2.0625 -5.8125 -2.234375 C -5.828125 -2.3125 -5.828125 -2.59375 -5.828125 -2.78125 C -5.828125 -3.5625 -5.828125 -4.6875 -4.5 -4.6875 C -3.734375 -4.6875 -3.15625 -4.296875 -3.15625 -3.078125 Z M -3.03125 -4.0625 C -3.265625 -4.90625 -3.796875 -5.609375 -4.5 -5.609375 C -5.375 -5.609375 -6.109375 -4.515625 -6.109375 -3.203125 L -6.109375 -0.359375 L -5.828125 -0.359375 L -5.828125 -0.5625 C -5.828125 -1.25 -5.734375 -1.265625 -5.390625 -1.265625 L -0.703125 -1.265625 C -0.375 -1.265625 -0.28125 -1.25 -0.28125 -0.5625 L -0.28125 -0.359375 L 0 -0.359375 C -0.03125 -0.78125 -0.03125 -1.21875 -0.03125 -1.65625 C -0.03125 -2.078125 -0.03125 -2.53125 0 -2.953125 L -0.28125 -2.953125 L -0.28125 -2.75 C -0.28125 -2.0625 -0.375 -2.046875 -0.703125 -2.046875 L -2.9375 -2.046875 L -2.9375 -3.125 C -2.9375 -3.765625 -2.59375 -4.046875 -2.5625 -4.078125 C -2.234375 -4.359375 -2.09375 -4.359375 -1.46875 -4.359375 C -0.859375 -4.359375 -0.46875 -4.359375 -0.140625 -4.78125 C 0.203125 -5.203125 0.203125 -5.734375 0.203125 -5.84375 C 0.203125 -6.59375 -0.578125 -6.71875 -0.796875 -6.71875 C -0.84375 -6.71875 -0.953125 -6.71875 -0.953125 -6.59375 C -0.953125 -6.484375 -0.875 -6.484375 -0.796875 -6.46875 C -0.234375 -6.421875 -0.03125 -6.15625 -0.03125 -5.875 C -0.03125 -5.59375 -0.203125 -5.484375 -0.359375 -5.421875 C -0.546875 -5.328125 -1.15625 -5.25 -1.5625 -5.203125 C -2.125 -5.125 -2.71875 -5.046875 -3.03125 -4.0625 Z M -3.03125 -4.0625 "/>
</symbol>
<symbol overflow="visible" id="glyph3-2">
<path style="stroke:none;" d="M -2.046875 -3.578125 C -2.046875 -3.765625 -2.046875 -3.8125 -2.234375 -3.8125 C -3.15625 -3.8125 -4 -3.3125 -4 -2.171875 C -4 -1.09375 -3.078125 -0.265625 -1.96875 -0.265625 C -0.796875 -0.265625 0.09375 -1.203125 0.09375 -2.28125 C 0.09375 -3.375 -0.859375 -3.8125 -1.0625 -3.8125 C -1.125 -3.8125 -1.1875 -3.765625 -1.1875 -3.6875 C -1.1875 -3.609375 -1.125 -3.578125 -1.078125 -3.5625 C -0.171875 -3.265625 -0.15625 -2.46875 -0.15625 -2.328125 C -0.15625 -1.90625 -0.390625 -1.53125 -0.703125 -1.328125 C -1.140625 -1.03125 -1.671875 -1.03125 -2.046875 -1.03125 Z M -2.265625 -1.03125 C -3.640625 -1.125 -3.78125 -1.921875 -3.78125 -2.171875 C -3.78125 -2.65625 -3.40625 -3.203125 -2.265625 -3.203125 Z M -2.265625 -1.03125 "/>
</symbol>
<symbol overflow="visible" id="glyph3-3">
<path style="stroke:none;" d="M -0.640625 -3.0625 C -0.265625 -3.09375 0.046875 -3.359375 0.046875 -3.75 C 0.046875 -3.96875 -0.078125 -4.53125 -0.796875 -4.53125 L -1.296875 -4.53125 L -1.296875 -4.28125 L -0.796875 -4.28125 C -0.703125 -4.28125 -0.265625 -4.28125 -0.265625 -3.953125 C -0.265625 -3.640625 -0.6875 -3.640625 -0.828125 -3.640625 L -2.390625 -3.640625 C -2.90625 -3.640625 -3.203125 -3.640625 -3.578125 -3.234375 C -3.875 -2.90625 -4 -2.46875 -4 -2.03125 C -4 -1.28125 -3.625 -0.65625 -3.0625 -0.65625 C -2.78125 -0.65625 -2.625 -0.84375 -2.625 -1.078125 C -2.625 -1.3125 -2.8125 -1.484375 -3.03125 -1.484375 C -3.421875 -1.484375 -3.46875 -1.09375 -3.46875 -1.078125 C -3.703125 -1.328125 -3.78125 -1.75 -3.78125 -2.015625 C -3.78125 -2.46875 -3.4375 -2.96875 -2.65625 -2.96875 L -2.359375 -2.96875 C -2.34375 -2.5 -2.296875 -1.828125 -2.015625 -1.21875 C -1.703125 -0.578125 -1.234375 -0.390625 -0.875 -0.390625 C -0.140625 -0.390625 0.09375 -1.25 0.09375 -1.84375 C 0.09375 -2.59375 -0.390625 -2.9375 -0.640625 -3.0625 Z M -1.265625 -2.96875 C -0.390625 -2.96875 -0.125 -2.3125 -0.125 -1.90625 C -0.125 -1.5 -0.421875 -1.09375 -0.875 -1.09375 C -1.46875 -1.09375 -2.09375 -1.609375 -2.140625 -2.96875 Z M -1.265625 -2.96875 "/>
</symbol>
<symbol overflow="visible" id="glyph3-4">
<path style="stroke:none;" d="M -1.078125 -3.484375 C -0.90625 -3.484375 -0.890625 -3.484375 -0.703125 -3.34375 C -0.296875 -3.0625 -0.125 -2.65625 -0.125 -2.296875 C -0.125 -1.90625 -0.34375 -1.5625 -0.71875 -1.328125 C -1.09375 -1.09375 -1.625 -1.078125 -1.90625 -1.078125 C -2.328125 -1.078125 -2.8125 -1.125 -3.15625 -1.359375 C -3.453125 -1.5625 -3.734375 -1.921875 -3.734375 -2.390625 C -3.734375 -2.765625 -3.546875 -3.125 -3.203125 -3.375 C -3.0625 -3.484375 -3.046875 -3.484375 -2.875 -3.484375 Z M -3.421875 -3.5 C -3.484375 -3.453125 -3.953125 -3.0625 -3.953125 -2.359375 C -3.953125 -1.265625 -3.078125 -0.296875 -1.921875 -0.296875 C -0.796875 -0.296875 0.09375 -1.203125 0.09375 -2.265625 C 0.09375 -2.90625 -0.28125 -3.3125 -0.46875 -3.484375 L 0.09375 -3.484375 L 0 -4.828125 L -0.28125 -4.828125 C -0.28125 -4.21875 -0.34375 -4.140625 -0.78125 -4.140625 L -6.203125 -4.140625 L -6.109375 -2.8125 L -5.828125 -2.8125 C -5.828125 -3.421875 -5.765625 -3.5 -5.328125 -3.5 Z M -3.421875 -3.5 "/>
</symbol>
<symbol overflow="visible" id="glyph3-5">
<path style="stroke:none;" d="M -1.65625 -2.546875 L -2.203125 -2.546875 L -2.203125 -0.09375 L -1.65625 -0.09375 Z M -1.65625 -2.546875 "/>
</symbol>
<symbol overflow="visible" id="glyph3-6">
<path style="stroke:none;" d="M -1.90625 -4.328125 C -3.078125 -4.328125 -4 -3.390625 -4 -2.296875 C -4 -1.15625 -3.046875 -0.265625 -1.90625 -0.265625 C -0.78125 -0.265625 0.09375 -1.1875 0.09375 -2.28125 C 0.09375 -3.421875 -0.796875 -4.328125 -1.90625 -4.328125 Z M -0.15625 -2.296875 C -0.15625 -1.84375 -0.375 -1.46875 -0.71875 -1.265625 C -1.09375 -1.03125 -1.578125 -1.03125 -1.984375 -1.03125 C -2.3125 -1.03125 -2.828125 -1.03125 -3.1875 -1.25 C -3.640625 -1.515625 -3.78125 -1.96875 -3.78125 -2.28125 C -3.78125 -2.796875 -3.5 -3.15625 -3.1875 -3.34375 C -2.8125 -3.546875 -2.359375 -3.5625 -1.984375 -3.5625 C -1.65625 -3.5625 -1.140625 -3.5625 -0.734375 -3.328125 C -0.328125 -3.078125 -0.15625 -2.671875 -0.15625 -2.296875 Z M -0.15625 -2.296875 "/>
</symbol>
<symbol overflow="visible" id="glyph3-7">
<path style="stroke:none;" d="M -1.5 -3.546875 C -0.703125 -3.546875 -0.125 -3.09375 -0.125 -2.453125 C -0.125 -1.703125 -0.515625 -1.65625 -0.984375 -1.65625 L -3.953125 -1.65625 L -3.859375 -0.3125 L -3.578125 -0.3125 C -3.578125 -1 -3.546875 -1 -2.75 -1 L -1.40625 -1 C -0.828125 -1 -0.453125 -1 -0.140625 -1.40625 C 0.03125 -1.671875 0.09375 -2.03125 0.09375 -2.390625 C 0.09375 -2.859375 -0.109375 -3.296875 -0.640625 -3.5625 L 0.09375 -3.5625 L 0 -4.890625 L -0.28125 -4.890625 C -0.28125 -4.28125 -0.34375 -4.203125 -0.78125 -4.203125 L -3.953125 -4.203125 L -3.859375 -2.84375 L -3.578125 -2.84375 C -3.578125 -3.453125 -3.515625 -3.546875 -3.078125 -3.546875 Z M -1.5 -3.546875 "/>
</symbol>
<symbol overflow="visible" id="glyph3-8">
<path style="stroke:none;" d="M -3.578125 -2.90625 L -3.859375 -2.90625 L -3.859375 -1.609375 L -5.5 -1.609375 L -5.5 -1.359375 C -4.75 -1.34375 -3.828125 -1.03125 -3.796875 -0.171875 L -3.578125 -0.171875 L -3.578125 -0.953125 L -1.109375 -0.953125 C -0.109375 -0.953125 0.09375 -1.671875 0.09375 -2.140625 C 0.09375 -2.75 -0.46875 -3.0625 -1.109375 -3.0625 L -1.625 -3.0625 L -1.625 -2.8125 L -1.140625 -2.8125 C -0.46875 -2.8125 -0.15625 -2.53125 -0.15625 -2.203125 C -0.15625 -1.609375 -0.9375 -1.609375 -1.09375 -1.609375 L -3.578125 -1.609375 Z M -3.578125 -2.90625 "/>
</symbol>
<symbol overflow="visible" id="glyph3-9">
<path style="stroke:none;" d="M -2.3125 -1.65625 C -3.265625 -1.65625 -3.734375 -2.328125 -3.734375 -2.890625 C -3.734375 -3.421875 -3.28125 -3.546875 -2.75 -3.546875 L -0.6875 -3.546875 C -0.28125 -3.546875 -0.28125 -3.4375 -0.28125 -2.84375 L 0 -2.84375 C -0.015625 -3.265625 -0.03125 -3.4375 -0.03125 -3.875 C -0.03125 -4.296875 -0.015625 -4.421875 0 -4.890625 L -0.28125 -4.890625 C -0.28125 -4.4375 -0.28125 -4.203125 -0.546875 -4.203125 L -2.265625 -4.203125 C -3.015625 -4.203125 -3.265625 -4.203125 -3.578125 -3.953125 C -3.828125 -3.75 -3.953125 -3.40625 -3.953125 -2.953125 C -3.953125 -2.125 -3.328125 -1.75 -3.078125 -1.625 L -3.078125 -1.609375 L -3.953125 -1.609375 L -3.859375 -0.3125 L -3.578125 -0.3125 C -3.578125 -0.921875 -3.515625 -1 -3.078125 -1 L -0.6875 -1 C -0.28125 -1 -0.28125 -0.90625 -0.28125 -0.3125 L 0 -0.3125 C -0.015625 -0.734375 -0.03125 -0.90625 -0.03125 -1.328125 C -0.03125 -1.765625 -0.015625 -1.875 0 -2.34375 L -0.28125 -2.34375 C -0.28125 -1.765625 -0.28125 -1.65625 -0.6875 -1.65625 Z M -2.3125 -1.65625 "/>
</symbol>
<symbol overflow="visible" id="glyph3-10">
<path style="stroke:none;" d="M -1.59375 -1.125 C -1.453125 -1.34375 -1.328125 -1.625 -1.328125 -2.03125 C -1.328125 -2.875 -1.9375 -3.515625 -2.640625 -3.515625 C -3.078125 -3.515625 -3.375 -3.265625 -3.5 -3.15625 C -3.828125 -3.515625 -3.828125 -3.9375 -3.828125 -4.046875 C -3.796875 -4 -3.75 -3.921875 -3.59375 -3.921875 C -3.5 -3.921875 -3.328125 -3.984375 -3.328125 -4.1875 C -3.328125 -4.3125 -3.421875 -4.453125 -3.609375 -4.453125 C -3.765625 -4.453125 -4.046875 -4.328125 -4.046875 -3.984375 C -4.046875 -3.71875 -3.953125 -3.3125 -3.625 -3 C -3.828125 -2.765625 -3.953125 -2.40625 -3.953125 -2.03125 C -3.953125 -1.1875 -3.34375 -0.546875 -2.640625 -0.546875 C -2.1875 -0.546875 -1.859375 -0.8125 -1.71875 -0.953125 C -1.703125 -0.9375 -1.390625 -0.6875 -0.984375 -0.6875 C -0.671875 -0.6875 -0.359375 -0.828125 -0.203125 -1.078125 C -0.046875 -0.609375 0.28125 -0.265625 0.703125 -0.265625 C 1.328125 -0.265625 1.84375 -1.140625 1.84375 -2.28125 C 1.84375 -3.390625 1.375 -4.328125 0.671875 -4.328125 C 0.3125 -4.328125 -0.078125 -4.15625 -0.296875 -3.828125 C -0.609375 -3.328125 -0.609375 -2.8125 -0.609375 -1.953125 C -0.609375 -1.78125 -0.609375 -1.5 -0.625 -1.421875 C -0.671875 -1.15625 -0.921875 -0.984375 -1.203125 -0.984375 C -1.34375 -0.984375 -1.484375 -1.03125 -1.59375 -1.125 Z M -1.5625 -2.03125 C -1.5625 -1.234375 -2.4375 -1.234375 -2.640625 -1.234375 C -2.875 -1.234375 -3.1875 -1.25 -3.390625 -1.40625 C -3.578125 -1.53125 -3.703125 -1.78125 -3.703125 -2.03125 C -3.703125 -2.828125 -2.84375 -2.828125 -2.640625 -2.828125 C -2.4375 -2.828125 -1.5625 -2.828125 -1.5625 -2.03125 Z M -0.046875 -2.4375 C -0.046875 -2.71875 -0.03125 -3.828125 0.6875 -3.828125 C 1.203125 -3.828125 1.59375 -3.140625 1.59375 -2.296875 C 1.59375 -1.421875 1.1875 -0.765625 0.6875 -0.765625 C 0.546875 -0.765625 -0.046875 -0.84375 -0.046875 -1.625 Z M -0.046875 -2.4375 "/>
</symbol>
<symbol overflow="visible" id="glyph3-11">
<path style="stroke:none;" d="M -2.046875 -1.59375 C -2.40625 -1.59375 -3.734375 -1.6875 -3.734375 -2.703125 L -3.71875 -2.703125 C -3.703125 -2.6875 -3.609375 -2.546875 -3.390625 -2.546875 C -3.140625 -2.546875 -3 -2.734375 -3 -2.9375 C -3 -3.125 -3.125 -3.328125 -3.390625 -3.328125 C -3.6875 -3.328125 -3.953125 -3.0625 -3.953125 -2.65625 C -3.953125 -2.125 -3.578125 -1.75 -3.015625 -1.546875 L -3.015625 -1.53125 L -3.953125 -1.53125 L -3.859375 -0.265625 L -3.578125 -0.265625 C -3.578125 -0.875 -3.515625 -0.953125 -3.078125 -0.953125 L -0.6875 -0.953125 C -0.28125 -0.953125 -0.28125 -0.859375 -0.28125 -0.265625 L 0 -0.265625 C -0.015625 -0.734375 -0.03125 -0.859375 -0.03125 -1.3125 C -0.03125 -1.671875 -0.015625 -1.890625 0 -2.453125 L -0.28125 -2.453125 L -0.28125 -2.265625 C -0.28125 -1.625 -0.375 -1.59375 -0.703125 -1.59375 Z M -2.046875 -1.59375 "/>
</symbol>
<symbol overflow="visible" id="glyph3-12">
<path style="stroke:none;" d="M -3 -1.625 C -3.515625 -1.921875 -3.703125 -2.40625 -3.703125 -2.78125 C -3.703125 -3.484375 -2.890625 -4.015625 -1.9375 -4.015625 C -0.90625 -4.015625 -0.125 -3.421875 -0.125 -2.6875 C -0.125 -2.28125 -0.359375 -1.953125 -0.671875 -1.734375 C -0.84375 -1.625 -0.859375 -1.625 -1.03125 -1.625 Z M -0.421875 -1.625 C -0.203125 -1.84375 0.09375 -2.15625 0.09375 -2.75 C 0.09375 -3.8125 -0.765625 -4.796875 -1.9375 -4.796875 C -3.0625 -4.796875 -3.953125 -3.921875 -3.953125 -2.859375 C -3.953125 -2.375 -3.75 -1.9375 -3.390625 -1.59375 L -3.953125 -1.59375 L -3.859375 -0.265625 L -3.578125 -0.265625 C -3.578125 -0.90625 -3.515625 -0.953125 -3.140625 -0.953125 L 1.046875 -0.953125 C 1.453125 -0.953125 1.453125 -0.859375 1.453125 -0.265625 L 1.734375 -0.265625 C 1.71875 -0.6875 1.703125 -0.859375 1.703125 -1.28125 C 1.703125 -1.71875 1.71875 -1.828125 1.734375 -2.3125 L 1.453125 -2.3125 C 1.453125 -1.71875 1.453125 -1.625 1.046875 -1.625 Z M -0.421875 -1.625 "/>
</symbol>
<symbol overflow="visible" id="glyph3-13">
<path style="stroke:none;" d="M -3.15625 -1.625 C -3.28125 -1.578125 -3.328125 -1.578125 -3.34375 -1.578125 C -3.578125 -1.578125 -3.578125 -1.875 -3.578125 -2.0625 L -3.859375 -2.0625 C -3.828125 -1.625 -3.828125 -1.453125 -3.828125 -1.078125 C -3.828125 -1.046875 -3.828125 -0.53125 -3.859375 -0.1875 L -3.578125 -0.1875 C -3.578125 -0.59375 -3.5625 -0.765625 -3.3125 -0.859375 L 0 -2.28125 L 0.53125 -2.0625 C 1 -1.859375 1.609375 -1.59375 1.609375 -1.015625 C 1.609375 -0.796875 1.5 -0.640625 1.46875 -0.609375 C 1.46875 -0.6875 1.390625 -0.9375 1.09375 -0.9375 C 0.859375 -0.9375 0.71875 -0.765625 0.71875 -0.5625 C 0.71875 -0.34375 0.859375 -0.171875 1.09375 -0.171875 C 1.5 -0.171875 1.828125 -0.546875 1.828125 -1.015625 C 1.828125 -1.59375 1.3125 -1.984375 0.828125 -2.203125 L -2.953125 -3.8125 C -3.1875 -3.921875 -3.5625 -4.078125 -3.578125 -4.640625 L -3.859375 -4.640625 C -3.828125 -4.359375 -3.828125 -4.078125 -3.828125 -3.96875 C -3.828125 -3.71875 -3.828125 -3.4375 -3.859375 -3.1875 L -3.578125 -3.1875 C -3.5625 -3.609375 -3.234375 -3.609375 -3.203125 -3.609375 C -3.09375 -3.609375 -3.015625 -3.5625 -2.9375 -3.53125 L -0.8125 -2.625 Z M -3.15625 -1.625 "/>
</symbol>
</g>
<clipPath id="clip1">
  <path d="M 37.839844 21 L 335.941406 21 L 335.941406 149 L 37.839844 149 Z M 37.839844 21 "/>
</clipPath>
<clipPath id="clip2">
  <path d="M 37.839844 21 L 335.941406 21 L 335.941406 170 L 37.839844 170 Z M 37.839844 21 "/>
</clipPath>
</defs>
<g id="surface1">
<path style="fill:none;stroke-width:0.3985;stroke-linecap:butt;stroke-linejoin:miter;stroke:rgb(87.5%,87.5%,87.5%);stroke-opacity:1;stroke-miterlimit:10;" d="M 0.00174389 0.000431584 L 298.88244 0.000431584 M 0.00174389 42.067124 L 298.88244 42.067124 M 0.00174389 84.133816 L 298.88244 84.133816 M 0.00174389 126.200508 L 298.88244 126.200508 M 0.00174389 168.267201 L 298.88244 168.267201 " transform="matrix(0.997393,0,0,-0.997393,37.838104,179.535587)"/>
<path style="fill:none;stroke-width:0.19925;stroke-linecap:butt;stroke-linejoin:miter;stroke:rgb(50%,50%,50%);stroke-opacity:1;stroke-miterlimit:10;" d="M 0.00174389 0.000431584 L 0.00174389 4.253707 M 49.815193 0.000431584 L 49.815193 4.253707 M 99.628643 0.000431584 L 99.628643 4.253707 M 149.442092 0.000431584 L 149.442092 4.253707 M 199.255541 0.000431584 L 199.255541 4.253707 M 249.068991 0.000431584 L 249.068991 4.253707 M 298.88244 0.000431584 L 298.88244 4.253707 M 0.00174389 168.267201 L 0.00174389 164.013926 M 49.815193 168.267201 L 49.815193 164.013926 M 99.628643 168.267201 L 99.628643 164.013926 M 149.442092 168.267201 L 149.442092 164.013926 M 199.255541 168.267201 L 199.255541 164.013926 M 249.068991 168.267201 L 249.068991 164.013926 M 298.88244 168.267201 L 298.88244 164.013926 " transform="matrix(0.997393,0,0,-0.997393,37.838104,179.535587)"/>
<path style="fill:none;stroke-width:0.19925;stroke-linecap:butt;stroke-linejoin:miter;stroke:rgb(50%,50%,50%);stroke-opacity:1;stroke-miterlimit:10;" d="M 0.00174389 0.000431584 L 4.251103 0.000431584 M 0.00174389 42.067124 L 4.251103 42.067124 M 0.00174389 84.133816 L 4.251103 84.133816 M 0.00174389 126.200508 L 4.251103 126.200508 M 0.00174389 168.267201 L 4.251103 168.267201 M 298.88244 0.000431584 L 294.633081 0.000431584 M 298.88244 42.067124 L 294.633081 42.067124 M 298.88244 84.133816 L 294.633081 84.133816 M 298.88244 126.200508 L 294.633081 126.200508 M 298.88244 168.267201 L 294.633081 168.267201 " transform="matrix(0.997393,0,0,-0.997393,37.838104,179.535587)"/>
<path style="fill:none;stroke-width:0.3985;stroke-linecap:butt;stroke-linejoin:miter;stroke:rgb(69.999695%,69.999695%,69.999695%);stroke-opacity:1;stroke-miterlimit:10;" d="M 0.00174389 0.000431584 L 0.00174389 168.267201 L 298.88244 168.267201 L 298.88244 0.000431584 Z M 0.00174389 0.000431584 " transform="matrix(0.997393,0,0,-0.997393,37.838104,179.535587)"/>
<g style="fill:rgb(0%,0%,0%);fill-opacity:1;">
  <use xlink:href="#glyph0-1" x="35.857282" y="187.528696"/>
</g>
<g style="fill:rgb(0%,0%,0%);fill-opacity:1;">
  <use xlink:href="#glyph0-2" x="85.540427" y="187.528696"/>
</g>
<g style="fill:rgb(0%,0%,0%);fill-opacity:1;">
  <use xlink:href="#glyph0-3" x="133.243747" y="187.528696"/>
  <use xlink:href="#glyph0-1" x="137.204973" y="187.528696"/>
</g>
<g style="fill:rgb(0%,0%,0%);fill-opacity:1;">
  <use xlink:href="#glyph0-3" x="182.926893" y="187.528696"/>
  <use xlink:href="#glyph0-2" x="186.888119" y="187.528696"/>
</g>
<g style="fill:rgb(0%,0%,0%);fill-opacity:1;">
  <use xlink:href="#glyph0-4" x="232.610039" y="187.528696"/>
  <use xlink:href="#glyph0-1" x="236.571264" y="187.528696"/>
</g>
<g style="fill:rgb(0%,0%,0%);fill-opacity:1;">
  <use xlink:href="#glyph0-4" x="282.294182" y="187.528696"/>
  <use xlink:href="#glyph0-2" x="286.255407" y="187.528696"/>
</g>
<g style="fill:rgb(0%,0%,0%);fill-opacity:1;">
  <use xlink:href="#glyph0-5" x="331.977327" y="187.528696"/>
  <use xlink:href="#glyph0-1" x="335.938553" y="187.528696"/>
</g>
<g style="fill:rgb(0%,0%,0%);fill-opacity:1;">
  <use xlink:href="#glyph0-1" x="30.366632" y="181.776729"/>
</g>
<g style="fill:rgb(0%,0%,0%);fill-opacity:1;">
  <use xlink:href="#glyph0-1" x="24.046152" y="139.820388"/>
</g>
<g style="fill:rgb(0%,0%,0%);fill-opacity:1;">
  <use xlink:href="#glyph1-1" x="28.0068" y="139.820388"/>
</g>
<g style="fill:rgb(0%,0%,0%);fill-opacity:1;">
  <use xlink:href="#glyph0-4" x="30.366632" y="139.820388"/>
</g>
<g style="fill:rgb(0%,0%,0%);fill-opacity:1;">
  <use xlink:href="#glyph0-1" x="24.046152" y="97.86305"/>
</g>
<g style="fill:rgb(0%,0%,0%);fill-opacity:1;">
  <use xlink:href="#glyph1-1" x="28.0068" y="97.86305"/>
</g>
<g style="fill:rgb(0%,0%,0%);fill-opacity:1;">
  <use xlink:href="#glyph0-6" x="30.366632" y="97.86305"/>
</g>
<g style="fill:rgb(0%,0%,0%);fill-opacity:1;">
  <use xlink:href="#glyph0-1" x="24.046152" y="55.906709"/>
</g>
<g style="fill:rgb(0%,0%,0%);fill-opacity:1;">
  <use xlink:href="#glyph1-1" x="28.0068" y="55.906709"/>
</g>
<g style="fill:rgb(0%,0%,0%);fill-opacity:1;">
  <use xlink:href="#glyph0-7" x="30.366632" y="55.906709"/>
</g>
<g style="fill:rgb(0%,0%,0%);fill-opacity:1;">
  <use xlink:href="#glyph0-1" x="24.046152" y="13.950369"/>
</g>
<g style="fill:rgb(0%,0%,0%);fill-opacity:1;">
  <use xlink:href="#glyph1-1" x="28.0068" y="13.950369"/>
</g>
<g style="fill:rgb(0%,0%,0%);fill-opacity:1;">
  <use xlink:href="#glyph0-8" x="30.366632" y="13.950369"/>
</g>
<g clip-path="url(#clip1)" clip-rule="nonzero">
<path style="fill:none;stroke-width:0.79701;stroke-linecap:butt;stroke-linejoin:miter;stroke:rgb(0%,0%,69.999695%);stroke-opacity:1;stroke-miterlimit:10;" d="M 0.00174389 120.310153 L 9.961301 85.457579 L 19.924774 94.567264 L 29.888247 51.572371 L 39.85172 42.004461 L 49.815193 62.048901 L 59.77475 89.706938 L 69.738223 119.217461 L 79.701696 96.752649 L 89.665169 123.611729 L 99.628643 107.879311 L 109.592116 63.709479 L 119.551672 53.824336 L 129.515146 48.396123 L 139.478619 62.996684 L 149.442092 62.616787 L 159.405565 80.139027 L 169.365122 94.27353 L 179.328595 116.20962 L 189.292068 136.821947 L 199.255541 106.007243 L 209.219014 101.863629 L 219.182487 115.641733 L 229.142044 126.220091 L 239.105517 137.601322 L 249.068991 137.746231 L 259.032464 143.299771 L 268.995937 146.750172 L 278.95941 147.423803 L 288.918967 117.91328 L 298.88244 139.073911 " transform="matrix(0.997393,0,0,-0.997393,37.838104,179.535587)"/>
</g>
<g clip-path="url(#clip2)" clip-rule="nonzero">
<path style="fill:none;stroke-width:0.79701;stroke-linecap:butt;stroke-linejoin:miter;stroke:rgb(64.99939%,64.99939%,64.99939%);stroke-opacity:1;stroke-dasharray:2.98883,2.98883;stroke-miterlimit:10;" d="M 0.00174389 80.577671 L 9.961301 40.363464 L 19.924774 63.603735 L 29.888247 44.632405 L 39.85172 70.904016 L 49.815193 78.705603 L 59.77475 69.157275 L 69.738223 31.359523 L 79.701696 25.136269 L 89.665169 21.580124 L 99.628643 22.065765 L 109.592116 26.922175 L 119.551672 25.386923 L 129.515146 23.134958 L 139.478619 35.103659 L 149.442092 42.086706 L 159.405565 38.722467 L 169.365122 46.461392 L 179.328595 63.983632 L 189.292068 71.471902 L 199.255541 72.208197 L 209.219014 68.86354 L 219.182487 69.619417 L 229.142044 90.885792 L 239.105517 111.035977 L 249.068991 131.58564 L 259.032464 114.423715 L 268.995937 129.964226 L 278.95941 118.187432 L 288.918967 137.033436 L 298.88244 146.91858 " transform="matrix(0.997393,0,0,-0.997393,37.838104,179.535587)"/>
</g>
<path style="fill-rule:nonzero;fill:rgb(0%,0%,79.998779%);fill-opacity:1;stroke-width:0.79701;stroke-linecap:butt;stroke-linejoin:miter;stroke:rgb(0%,0%,69.999695%);stroke-opacity:1;stroke-miterlimit:10;" d="M 1.094436 120.310153 C 1.094436 120.917204 0.604879 121.406762 0.00174389 121.406762 C -0.605307 121.406762 -1.094865 120.917204 -1.094865 120.310153 C -1.094865 119.707018 -0.605307 119.213545 0.00174389 119.213545 C 0.604879 119.213545 1.094436 119.707018 1.094436 120.310153 Z M 1.094436 120.310153 " transform="matrix(0.997393,0,0,-0.997393,37.838104,179.535587)"/>
<path style="fill-rule:nonzero;fill:rgb(0%,0%,79.998779%);fill-opacity:1;stroke-width:0.79701;stroke-linecap:butt;stroke-linejoin:miter;stroke:rgb(0%,0%,69.999695%);stroke-opacity:1;stroke-miterlimit:10;" d="M 11.057909 85.457579 C 11.057909 86.064631 10.568352 86.554188 9.961301 86.554188 C 9.358166 86.554188 8.868608 86.064631 8.868608 85.457579 C 8.868608 84.854445 9.358166 84.364887 9.961301 84.364887 C 10.568352 84.364887 11.057909 84.854445 11.057909 85.457579 Z M 11.057909 85.457579 " transform="matrix(0.997393,0,0,-0.997393,37.838104,179.535587)"/>
<path style="fill-rule:nonzero;fill:rgb(0%,0%,79.998779%);fill-opacity:1;stroke-width:0.79701;stroke-linecap:butt;stroke-linejoin:miter;stroke:rgb(0%,0%,69.999695%);stroke-opacity:1;stroke-miterlimit:10;" d="M 21.021382 94.567264 C 21.021382 95.170399 20.531825 95.663873 19.924774 95.663873 C 19.321639 95.663873 18.828165 95.170399 18.828165 94.567264 C 18.828165 93.960213 19.321639 93.470656 19.924774 93.470656 C 20.531825 93.470656 21.021382 93.960213 21.021382 94.567264 Z M 21.021382 94.567264 " transform="matrix(0.997393,0,0,-0.997393,37.838104,179.535587)"/>
<path style="fill-rule:nonzero;fill:rgb(0%,0%,79.998779%);fill-opacity:1;stroke-width:0.79701;stroke-linecap:butt;stroke-linejoin:miter;stroke:rgb(0%,0%,69.999695%);stroke-opacity:1;stroke-miterlimit:10;" d="M 30.984856 51.572371 C 30.984856 52.179422 30.495298 52.66898 29.888247 52.66898 C 29.281196 52.66898 28.791638 52.179422 28.791638 51.572371 C 28.791638 50.969236 29.281196 50.479679 29.888247 50.479679 C 30.495298 50.479679 30.984856 50.969236 30.984856 51.572371 Z M 30.984856 51.572371 " transform="matrix(0.997393,0,0,-0.997393,37.838104,179.535587)"/>
<path style="fill-rule:nonzero;fill:rgb(0%,0%,79.998779%);fill-opacity:1;stroke-width:0.79701;stroke-linecap:butt;stroke-linejoin:miter;stroke:rgb(0%,0%,69.999695%);stroke-opacity:1;stroke-miterlimit:10;" d="M 40.948329 42.004461 C 40.948329 42.607595 40.454855 43.101069 39.85172 43.101069 C 39.244669 43.101069 38.755111 42.607595 38.755111 42.004461 C 38.755111 41.397409 39.244669 40.907852 39.85172 40.907852 C 40.454855 40.907852 40.948329 41.397409 40.948329 42.004461 Z M 40.948329 42.004461 " transform="matrix(0.997393,0,0,-0.997393,37.838104,179.535587)"/>
<path style="fill-rule:nonzero;fill:rgb(0%,0%,79.998779%);fill-opacity:1;stroke-width:0.79701;stroke-linecap:butt;stroke-linejoin:miter;stroke:rgb(0%,0%,69.999695%);stroke-opacity:1;stroke-miterlimit:10;" d="M 50.907885 62.048901 C 50.907885 62.652035 50.418328 63.145509 49.815193 63.145509 C 49.208142 63.145509 48.718585 62.652035 48.718585 62.048901 C 48.718585 61.441849 49.208142 60.952292 49.815193 60.952292 C 50.418328 60.952292 50.907885 61.441849 50.907885 62.048901 Z M 50.907885 62.048901 " transform="matrix(0.997393,0,0,-0.997393,37.838104,179.535587)"/>
<path style="fill-rule:nonzero;fill:rgb(0%,0%,79.998779%);fill-opacity:1;stroke-width:0.79701;stroke-linecap:butt;stroke-linejoin:miter;stroke:rgb(0%,0%,69.999695%);stroke-opacity:1;stroke-miterlimit:10;" d="M 60.871359 89.706938 C 60.871359 90.313989 60.381801 90.803547 59.77475 90.803547 C 59.171615 90.803547 58.682058 90.313989 58.682058 89.706938 C 58.682058 89.103803 59.171615 88.610329 59.77475 88.610329 C 60.381801 88.610329 60.871359 89.103803 60.871359 89.706938 Z M 60.871359 89.706938 " transform="matrix(0.997393,0,0,-0.997393,37.838104,179.535587)"/>
<path style="fill-rule:nonzero;fill:rgb(0%,0%,79.998779%);fill-opacity:1;stroke-width:0.79701;stroke-linecap:butt;stroke-linejoin:miter;stroke:rgb(0%,0%,69.999695%);stroke-opacity:1;stroke-miterlimit:10;" d="M 70.834832 119.217461 C 70.834832 119.824512 70.345274 120.31407 69.738223 120.31407 C 69.135088 120.31407 68.641614 119.824512 68.641614 119.217461 C 68.641614 118.614326 69.135088 118.120852 69.738223 118.120852 C 70.345274 118.120852 70.834832 118.614326 70.834832 119.217461 Z M 70.834832 119.217461 " transform="matrix(0.997393,0,0,-0.997393,37.838104,179.535587)"/>
<path style="fill-rule:nonzero;fill:rgb(0%,0%,79.998779%);fill-opacity:1;stroke-width:0.79701;stroke-linecap:butt;stroke-linejoin:miter;stroke:rgb(0%,0%,69.999695%);stroke-opacity:1;stroke-miterlimit:10;" d="M 80.798305 96.752649 C 80.798305 97.3597 80.308747 97.849258 79.701696 97.849258 C 79.098561 97.849258 78.605088 97.3597 78.605088 96.752649 C 78.605088 96.149514 79.098561 95.65604 79.701696 95.65604 C 80.308747 95.65604 80.798305 96.149514 80.798305 96.752649 Z M 80.798305 96.752649 " transform="matrix(0.997393,0,0,-0.997393,37.838104,179.535587)"/>
<path style="fill-rule:nonzero;fill:rgb(0%,0%,79.998779%);fill-opacity:1;stroke-width:0.79701;stroke-linecap:butt;stroke-linejoin:miter;stroke:rgb(0%,0%,69.999695%);stroke-opacity:1;stroke-miterlimit:10;" d="M 90.761778 123.611729 C 90.761778 124.21878 90.268304 124.708337 89.665169 124.708337 C 89.058118 124.708337 88.568561 124.21878 88.568561 123.611729 C 88.568561 123.008594 89.058118 122.519036 89.665169 122.519036 C 90.268304 122.519036 90.761778 123.008594 90.761778 123.611729 Z M 90.761778 123.611729 " transform="matrix(0.997393,0,0,-0.997393,37.838104,179.535587)"/>
<path style="fill-rule:nonzero;fill:rgb(0%,0%,79.998779%);fill-opacity:1;stroke-width:0.79701;stroke-linecap:butt;stroke-linejoin:miter;stroke:rgb(0%,0%,69.999695%);stroke-opacity:1;stroke-miterlimit:10;" d="M 100.725251 107.879311 C 100.725251 108.486362 100.231777 108.975919 99.628643 108.975919 C 99.021591 108.975919 98.532034 108.486362 98.532034 107.879311 C 98.532034 107.276176 99.021591 106.786618 99.628643 106.786618 C 100.231777 106.786618 100.725251 107.276176 100.725251 107.879311 Z M 100.725251 107.879311 " transform="matrix(0.997393,0,0,-0.997393,37.838104,179.535587)"/>
<path style="fill-rule:nonzero;fill:rgb(0%,0%,79.998779%);fill-opacity:1;stroke-width:0.79701;stroke-linecap:butt;stroke-linejoin:miter;stroke:rgb(0%,0%,69.999695%);stroke-opacity:1;stroke-miterlimit:10;" d="M 110.684808 63.709479 C 110.684808 64.316531 110.19525 64.806088 109.592116 64.806088 C 108.985064 64.806088 108.495507 64.316531 108.495507 63.709479 C 108.495507 63.106345 108.985064 62.612871 109.592116 62.612871 C 110.19525 62.612871 110.684808 63.106345 110.684808 63.709479 Z M 110.684808 63.709479 " transform="matrix(0.997393,0,0,-0.997393,37.838104,179.535587)"/>
<path style="fill-rule:nonzero;fill:rgb(0%,0%,79.998779%);fill-opacity:1;stroke-width:0.79701;stroke-linecap:butt;stroke-linejoin:miter;stroke:rgb(0%,0%,69.999695%);stroke-opacity:1;stroke-miterlimit:10;" d="M 120.648281 53.824336 C 120.648281 54.431387 120.158724 54.920944 119.551672 54.920944 C 118.948538 54.920944 118.45898 54.431387 118.45898 53.824336 C 118.45898 53.221201 118.948538 52.727727 119.551672 52.727727 C 120.158724 52.727727 120.648281 53.221201 120.648281 53.824336 Z M 120.648281 53.824336 " transform="matrix(0.997393,0,0,-0.997393,37.838104,179.535587)"/>
<path style="fill-rule:nonzero;fill:rgb(0%,0%,79.998779%);fill-opacity:1;stroke-width:0.79701;stroke-linecap:butt;stroke-linejoin:miter;stroke:rgb(0%,0%,69.999695%);stroke-opacity:1;stroke-miterlimit:10;" d="M 130.611754 48.396123 C 130.611754 49.003174 130.122197 49.492731 129.515146 49.492731 C 128.912011 49.492731 128.418537 49.003174 128.418537 48.396123 C 128.418537 47.792988 128.912011 47.30343 129.515146 47.30343 C 130.122197 47.30343 130.611754 47.792988 130.611754 48.396123 Z M 130.611754 48.396123 " transform="matrix(0.997393,0,0,-0.997393,37.838104,179.535587)"/>
<path style="fill-rule:nonzero;fill:rgb(0%,0%,79.998779%);fill-opacity:1;stroke-width:0.79701;stroke-linecap:butt;stroke-linejoin:miter;stroke:rgb(0%,0%,69.999695%);stroke-opacity:1;stroke-miterlimit:10;" d="M 140.575227 62.996684 C 140.575227 63.599819 140.08567 64.089376 139.478619 64.089376 C 138.871567 64.089376 138.38201 63.599819 138.38201 62.996684 C 138.38201 62.389633 138.871567 61.900075 139.478619 61.900075 C 140.08567 61.900075 140.575227 62.389633 140.575227 62.996684 Z M 140.575227 62.996684 " transform="matrix(0.997393,0,0,-0.997393,37.838104,179.535587)"/>
<path style="fill-rule:nonzero;fill:rgb(0%,0%,79.998779%);fill-opacity:1;stroke-width:0.79701;stroke-linecap:butt;stroke-linejoin:miter;stroke:rgb(0%,0%,69.999695%);stroke-opacity:1;stroke-miterlimit:10;" d="M 150.538701 62.616787 C 150.538701 63.219922 150.045227 63.713396 149.442092 63.713396 C 148.835041 63.713396 148.345483 63.219922 148.345483 62.616787 C 148.345483 62.009736 148.835041 61.520179 149.442092 61.520179 C 150.045227 61.520179 150.538701 62.009736 150.538701 62.616787 Z M 150.538701 62.616787 " transform="matrix(0.997393,0,0,-0.997393,37.838104,179.535587)"/>
<path style="fill-rule:nonzero;fill:rgb(0%,0%,79.998779%);fill-opacity:1;stroke-width:0.79701;stroke-linecap:butt;stroke-linejoin:miter;stroke:rgb(0%,0%,69.999695%);stroke-opacity:1;stroke-miterlimit:10;" d="M 160.498257 80.139027 C 160.498257 80.742162 160.0087 81.23172 159.405565 81.23172 C 158.798514 81.23172 158.308956 80.742162 158.308956 80.139027 C 158.308956 79.531976 158.798514 79.042419 159.405565 79.042419 C 160.0087 79.042419 160.498257 79.531976 160.498257 80.139027 Z M 160.498257 80.139027 " transform="matrix(0.997393,0,0,-0.997393,37.838104,179.535587)"/>
<path style="fill-rule:nonzero;fill:rgb(0%,0%,79.998779%);fill-opacity:1;stroke-width:0.79701;stroke-linecap:butt;stroke-linejoin:miter;stroke:rgb(0%,0%,69.999695%);stroke-opacity:1;stroke-miterlimit:10;" d="M 170.46173 94.27353 C 170.46173 94.876665 169.972173 95.366222 169.365122 95.366222 C 168.761987 95.366222 168.272429 94.876665 168.272429 94.27353 C 168.272429 93.666479 168.761987 93.176921 169.365122 93.176921 C 169.972173 93.176921 170.46173 93.666479 170.46173 94.27353 Z M 170.46173 94.27353 " transform="matrix(0.997393,0,0,-0.997393,37.838104,179.535587)"/>
<path style="fill-rule:nonzero;fill:rgb(0%,0%,79.998779%);fill-opacity:1;stroke-width:0.79701;stroke-linecap:butt;stroke-linejoin:miter;stroke:rgb(0%,0%,69.999695%);stroke-opacity:1;stroke-miterlimit:10;" d="M 180.425204 116.20962 C 180.425204 116.816671 179.935646 117.306229 179.328595 117.306229 C 178.72546 117.306229 178.231986 116.816671 178.231986 116.20962 C 178.231986 115.606485 178.72546 115.113011 179.328595 115.113011 C 179.935646 115.113011 180.425204 115.606485 180.425204 116.20962 Z M 180.425204 116.20962 " transform="matrix(0.997393,0,0,-0.997393,37.838104,179.535587)"/>
<path style="fill-rule:nonzero;fill:rgb(0%,0%,79.998779%);fill-opacity:1;stroke-width:0.79701;stroke-linecap:butt;stroke-linejoin:miter;stroke:rgb(0%,0%,69.999695%);stroke-opacity:1;stroke-miterlimit:10;" d="M 190.388677 136.821947 C 190.388677 137.428998 189.899119 137.918555 189.292068 137.918555 C 188.688933 137.918555 188.195459 137.428998 188.195459 136.821947 C 188.195459 136.218812 188.688933 135.725338 189.292068 135.725338 C 189.899119 135.725338 190.388677 136.218812 190.388677 136.821947 Z M 190.388677 136.821947 " transform="matrix(0.997393,0,0,-0.997393,37.838104,179.535587)"/>
<path style="fill-rule:nonzero;fill:rgb(0%,0%,79.998779%);fill-opacity:1;stroke-width:0.79701;stroke-linecap:butt;stroke-linejoin:miter;stroke:rgb(0%,0%,69.999695%);stroke-opacity:1;stroke-miterlimit:10;" d="M 200.35215 106.007243 C 200.35215 106.614294 199.858676 107.103852 199.255541 107.103852 C 198.64849 107.103852 198.158933 106.614294 198.158933 106.007243 C 198.158933 105.404108 198.64849 104.914551 199.255541 104.914551 C 199.858676 104.914551 200.35215 105.404108 200.35215 106.007243 Z M 200.35215 106.007243 " transform="matrix(0.997393,0,0,-0.997393,37.838104,179.535587)"/>
<path style="fill-rule:nonzero;fill:rgb(0%,0%,79.998779%);fill-opacity:1;stroke-width:0.79701;stroke-linecap:butt;stroke-linejoin:miter;stroke:rgb(0%,0%,69.999695%);stroke-opacity:1;stroke-miterlimit:10;" d="M 210.315623 101.863629 C 210.315623 102.47068 209.822149 102.960237 209.219014 102.960237 C 208.611963 102.960237 208.122406 102.47068 208.122406 101.863629 C 208.122406 101.260494 208.611963 100.770936 209.219014 100.770936 C 209.822149 100.770936 210.315623 101.260494 210.315623 101.863629 Z M 210.315623 101.863629 " transform="matrix(0.997393,0,0,-0.997393,37.838104,179.535587)"/>
<path style="fill-rule:nonzero;fill:rgb(0%,0%,79.998779%);fill-opacity:1;stroke-width:0.79701;stroke-linecap:butt;stroke-linejoin:miter;stroke:rgb(0%,0%,69.999695%);stroke-opacity:1;stroke-miterlimit:10;" d="M 220.27518 115.641733 C 220.27518 116.248785 219.785622 116.738342 219.182487 116.738342 C 218.575436 116.738342 218.085879 116.248785 218.085879 115.641733 C 218.085879 115.038599 218.575436 114.545125 219.182487 114.545125 C 219.785622 114.545125 220.27518 115.038599 220.27518 115.641733 Z M 220.27518 115.641733 " transform="matrix(0.997393,0,0,-0.997393,37.838104,179.535587)"/>
<path style="fill-rule:nonzero;fill:rgb(0%,0%,79.998779%);fill-opacity:1;stroke-width:0.79701;stroke-linecap:butt;stroke-linejoin:miter;stroke:rgb(0%,0%,69.999695%);stroke-opacity:1;stroke-miterlimit:10;" d="M 230.238653 126.220091 C 230.238653 126.827142 229.749095 127.316699 229.142044 127.316699 C 228.538909 127.316699 228.049352 126.827142 228.049352 126.220091 C 228.049352 125.616956 228.538909 125.127399 229.142044 125.127399 C 229.749095 125.127399 230.238653 125.616956 230.238653 126.220091 Z M 230.238653 126.220091 " transform="matrix(0.997393,0,0,-0.997393,37.838104,179.535587)"/>
<path style="fill-rule:nonzero;fill:rgb(0%,0%,79.998779%);fill-opacity:1;stroke-width:0.79701;stroke-linecap:butt;stroke-linejoin:miter;stroke:rgb(0%,0%,69.999695%);stroke-opacity:1;stroke-miterlimit:10;" d="M 240.202126 137.601322 C 240.202126 138.204457 239.712569 138.697931 239.105517 138.697931 C 238.502383 138.697931 238.008909 138.204457 238.008909 137.601322 C 238.008909 136.994271 238.502383 136.504714 239.105517 136.504714 C 239.712569 136.504714 240.202126 136.994271 240.202126 137.601322 Z M 240.202126 137.601322 " transform="matrix(0.997393,0,0,-0.997393,37.838104,179.535587)"/>
<path style="fill-rule:nonzero;fill:rgb(0%,0%,79.998779%);fill-opacity:1;stroke-width:0.79701;stroke-linecap:butt;stroke-linejoin:miter;stroke:rgb(0%,0%,69.999695%);stroke-opacity:1;stroke-miterlimit:10;" d="M 250.165599 137.746231 C 250.165599 138.353282 249.676042 138.84284 249.068991 138.84284 C 248.465856 138.84284 247.972382 138.353282 247.972382 137.746231 C 247.972382 137.143096 248.465856 136.653539 249.068991 136.653539 C 249.676042 136.653539 250.165599 137.143096 250.165599 137.746231 Z M 250.165599 137.746231 " transform="matrix(0.997393,0,0,-0.997393,37.838104,179.535587)"/>
<path style="fill-rule:nonzero;fill:rgb(0%,0%,79.998779%);fill-opacity:1;stroke-width:0.79701;stroke-linecap:butt;stroke-linejoin:miter;stroke:rgb(0%,0%,69.999695%);stroke-opacity:1;stroke-miterlimit:10;" d="M 260.129072 143.299771 C 260.129072 143.906822 259.635598 144.39638 259.032464 144.39638 C 258.425412 144.39638 257.935855 143.906822 257.935855 143.299771 C 257.935855 142.696636 258.425412 142.203162 259.032464 142.203162 C 259.635598 142.203162 260.129072 142.696636 260.129072 143.299771 Z M 260.129072 143.299771 " transform="matrix(0.997393,0,0,-0.997393,37.838104,179.535587)"/>
<path style="fill-rule:nonzero;fill:rgb(0%,0%,79.998779%);fill-opacity:1;stroke-width:0.79701;stroke-linecap:butt;stroke-linejoin:miter;stroke:rgb(0%,0%,69.999695%);stroke-opacity:1;stroke-miterlimit:10;" d="M 270.092546 146.750172 C 270.092546 147.357223 269.599072 147.846781 268.995937 147.846781 C 268.388886 147.846781 267.899328 147.357223 267.899328 146.750172 C 267.899328 146.147037 268.388886 145.653563 268.995937 145.653563 C 269.599072 145.653563 270.092546 146.147037 270.092546 146.750172 Z M 270.092546 146.750172 " transform="matrix(0.997393,0,0,-0.997393,37.838104,179.535587)"/>
<path style="fill-rule:nonzero;fill:rgb(0%,0%,79.998779%);fill-opacity:1;stroke-width:0.79701;stroke-linecap:butt;stroke-linejoin:miter;stroke:rgb(0%,0%,69.999695%);stroke-opacity:1;stroke-miterlimit:10;" d="M 280.052102 147.423803 C 280.052102 148.026938 279.562545 148.520412 278.95941 148.520412 C 278.352359 148.520412 277.862801 148.026938 277.862801 147.423803 C 277.862801 146.816752 278.352359 146.327194 278.95941 146.327194 C 279.562545 146.327194 280.052102 146.816752 280.052102 147.423803 Z M 280.052102 147.423803 " transform="matrix(0.997393,0,0,-0.997393,37.838104,179.535587)"/>
<path style="fill-rule:nonzero;fill:rgb(0%,0%,79.998779%);fill-opacity:1;stroke-width:0.79701;stroke-linecap:butt;stroke-linejoin:miter;stroke:rgb(0%,0%,69.999695%);stroke-opacity:1;stroke-miterlimit:10;" d="M 290.015575 117.91328 C 290.015575 118.520331 289.526018 119.009889 288.918967 119.009889 C 288.315832 119.009889 287.826274 118.520331 287.826274 117.91328 C 287.826274 117.310145 288.315832 116.816671 288.918967 116.816671 C 289.526018 116.816671 290.015575 117.310145 290.015575 117.91328 Z M 290.015575 117.91328 " transform="matrix(0.997393,0,0,-0.997393,37.838104,179.535587)"/>
<path style="fill-rule:nonzero;fill:rgb(0%,0%,79.998779%);fill-opacity:1;stroke-width:0.79701;stroke-linecap:butt;stroke-linejoin:miter;stroke:rgb(0%,0%,69.999695%);stroke-opacity:1;stroke-miterlimit:10;" d="M 299.979049 139.073911 C 299.979049 139.677046 299.489491 140.17052 298.88244 140.17052 C 298.279305 140.17052 297.785831 139.677046 297.785831 139.073911 C 297.785831 138.46686 298.279305 137.977302 298.88244 137.977302 C 299.489491 137.977302 299.979049 138.46686 299.979049 139.073911 Z M 299.979049 139.073911 " transform="matrix(0.997393,0,0,-0.997393,37.838104,179.535587)"/>
<path style="fill-rule:nonzero;fill:rgb(79.998779%,0%,0%);fill-opacity:1;stroke-width:0.79701;stroke-linecap:butt;stroke-linejoin:miter;stroke:rgb(64.99939%,64.99939%,64.99939%);stroke-opacity:1;stroke-dasharray:2.98883,2.98883;stroke-miterlimit:10;" d="M -1.094865 79.484979 L 1.094436 79.484979 L 1.094436 81.67428 L -1.094865 81.67428 Z M -1.094865 79.484979 " transform="matrix(0.997393,0,0,-0.997393,37.838104,179.535587)"/>
<path style="fill-rule:nonzero;fill:rgb(79.998779%,0%,0%);fill-opacity:1;stroke-width:0.79701;stroke-linecap:butt;stroke-linejoin:miter;stroke:rgb(64.99939%,64.99939%,64.99939%);stroke-opacity:1;stroke-dasharray:2.98883,2.98883;stroke-miterlimit:10;" d="M 8.868608 39.266855 L 11.057909 39.266855 L 11.057909 41.460073 L 8.868608 41.460073 Z M 8.868608 39.266855 " transform="matrix(0.997393,0,0,-0.997393,37.838104,179.535587)"/>
<path style="fill-rule:nonzero;fill:rgb(79.998779%,0%,0%);fill-opacity:1;stroke-width:0.79701;stroke-linecap:butt;stroke-linejoin:miter;stroke:rgb(64.99939%,64.99939%,64.99939%);stroke-opacity:1;stroke-dasharray:2.98883,2.98883;stroke-miterlimit:10;" d="M 18.828165 62.511043 L 21.021382 62.511043 L 21.021382 64.700344 L 18.828165 64.700344 Z M 18.828165 62.511043 " transform="matrix(0.997393,0,0,-0.997393,37.838104,179.535587)"/>
<path style="fill-rule:nonzero;fill:rgb(79.998779%,0%,0%);fill-opacity:1;stroke-width:0.79701;stroke-linecap:butt;stroke-linejoin:miter;stroke:rgb(64.99939%,64.99939%,64.99939%);stroke-opacity:1;stroke-dasharray:2.98883,2.98883;stroke-miterlimit:10;" d="M 28.791638 43.535796 L 30.984856 43.535796 L 30.984856 45.729014 L 28.791638 45.729014 Z M 28.791638 43.535796 " transform="matrix(0.997393,0,0,-0.997393,37.838104,179.535587)"/>
<path style="fill-rule:nonzero;fill:rgb(79.998779%,0%,0%);fill-opacity:1;stroke-width:0.79701;stroke-linecap:butt;stroke-linejoin:miter;stroke:rgb(64.99939%,64.99939%,64.99939%);stroke-opacity:1;stroke-dasharray:2.98883,2.98883;stroke-miterlimit:10;" d="M 38.755111 69.807407 L 40.948329 69.807407 L 40.948329 72.000624 L 38.755111 72.000624 Z M 38.755111 69.807407 " transform="matrix(0.997393,0,0,-0.997393,37.838104,179.535587)"/>
<path style="fill-rule:nonzero;fill:rgb(79.998779%,0%,0%);fill-opacity:1;stroke-width:0.79701;stroke-linecap:butt;stroke-linejoin:miter;stroke:rgb(64.99939%,64.99939%,64.99939%);stroke-opacity:1;stroke-dasharray:2.98883,2.98883;stroke-miterlimit:10;" d="M 48.718585 77.612911 L 50.907885 77.612911 L 50.907885 79.802212 L 48.718585 79.802212 Z M 48.718585 77.612911 " transform="matrix(0.997393,0,0,-0.997393,37.838104,179.535587)"/>
<path style="fill-rule:nonzero;fill:rgb(79.998779%,0%,0%);fill-opacity:1;stroke-width:0.79701;stroke-linecap:butt;stroke-linejoin:miter;stroke:rgb(64.99939%,64.99939%,64.99939%);stroke-opacity:1;stroke-dasharray:2.98883,2.98883;stroke-miterlimit:10;" d="M 58.682058 68.060666 L 60.871359 68.060666 L 60.871359 70.253883 L 58.682058 70.253883 Z M 58.682058 68.060666 " transform="matrix(0.997393,0,0,-0.997393,37.838104,179.535587)"/>
<path style="fill-rule:nonzero;fill:rgb(79.998779%,0%,0%);fill-opacity:1;stroke-width:0.79701;stroke-linecap:butt;stroke-linejoin:miter;stroke:rgb(64.99939%,64.99939%,64.99939%);stroke-opacity:1;stroke-dasharray:2.98883,2.98883;stroke-miterlimit:10;" d="M 68.641614 30.266831 L 70.834832 30.266831 L 70.834832 32.456132 L 68.641614 32.456132 Z M 68.641614 30.266831 " transform="matrix(0.997393,0,0,-0.997393,37.838104,179.535587)"/>
<path style="fill-rule:nonzero;fill:rgb(79.998779%,0%,0%);fill-opacity:1;stroke-width:0.79701;stroke-linecap:butt;stroke-linejoin:miter;stroke:rgb(64.99939%,64.99939%,64.99939%);stroke-opacity:1;stroke-dasharray:2.98883,2.98883;stroke-miterlimit:10;" d="M 78.605088 24.03966 L 80.798305 24.03966 L 80.798305 26.228961 L 78.605088 26.228961 Z M 78.605088 24.03966 " transform="matrix(0.997393,0,0,-0.997393,37.838104,179.535587)"/>
<path style="fill-rule:nonzero;fill:rgb(79.998779%,0%,0%);fill-opacity:1;stroke-width:0.79701;stroke-linecap:butt;stroke-linejoin:miter;stroke:rgb(64.99939%,64.99939%,64.99939%);stroke-opacity:1;stroke-dasharray:2.98883,2.98883;stroke-miterlimit:10;" d="M 88.568561 20.483515 L 90.761778 20.483515 L 90.761778 22.676733 L 88.568561 22.676733 Z M 88.568561 20.483515 " transform="matrix(0.997393,0,0,-0.997393,37.838104,179.535587)"/>
<path style="fill-rule:nonzero;fill:rgb(79.998779%,0%,0%);fill-opacity:1;stroke-width:0.79701;stroke-linecap:butt;stroke-linejoin:miter;stroke:rgb(64.99939%,64.99939%,64.99939%);stroke-opacity:1;stroke-dasharray:2.98883,2.98883;stroke-miterlimit:10;" d="M 98.532034 20.969156 L 100.725251 20.969156 L 100.725251 23.158457 L 98.532034 23.158457 Z M 98.532034 20.969156 " transform="matrix(0.997393,0,0,-0.997393,37.838104,179.535587)"/>
<path style="fill-rule:nonzero;fill:rgb(79.998779%,0%,0%);fill-opacity:1;stroke-width:0.79701;stroke-linecap:butt;stroke-linejoin:miter;stroke:rgb(64.99939%,64.99939%,64.99939%);stroke-opacity:1;stroke-dasharray:2.98883,2.98883;stroke-miterlimit:10;" d="M 108.495507 25.825566 L 110.684808 25.825566 L 110.684808 28.018783 L 108.495507 28.018783 Z M 108.495507 25.825566 " transform="matrix(0.997393,0,0,-0.997393,37.838104,179.535587)"/>
<path style="fill-rule:nonzero;fill:rgb(79.998779%,0%,0%);fill-opacity:1;stroke-width:0.79701;stroke-linecap:butt;stroke-linejoin:miter;stroke:rgb(64.99939%,64.99939%,64.99939%);stroke-opacity:1;stroke-dasharray:2.98883,2.98883;stroke-miterlimit:10;" d="M 118.45898 24.290314 L 120.648281 24.290314 L 120.648281 26.483531 L 118.45898 26.483531 Z M 118.45898 24.290314 " transform="matrix(0.997393,0,0,-0.997393,37.838104,179.535587)"/>
<path style="fill-rule:nonzero;fill:rgb(79.998779%,0%,0%);fill-opacity:1;stroke-width:0.79701;stroke-linecap:butt;stroke-linejoin:miter;stroke:rgb(64.99939%,64.99939%,64.99939%);stroke-opacity:1;stroke-dasharray:2.98883,2.98883;stroke-miterlimit:10;" d="M 128.418537 22.042266 L 130.611754 22.042266 L 130.611754 24.231567 L 128.418537 24.231567 Z M 128.418537 22.042266 " transform="matrix(0.997393,0,0,-0.997393,37.838104,179.535587)"/>
<path style="fill-rule:nonzero;fill:rgb(79.998779%,0%,0%);fill-opacity:1;stroke-width:0.79701;stroke-linecap:butt;stroke-linejoin:miter;stroke:rgb(64.99939%,64.99939%,64.99939%);stroke-opacity:1;stroke-dasharray:2.98883,2.98883;stroke-miterlimit:10;" d="M 138.38201 34.00705 L 140.575227 34.00705 L 140.575227 36.200267 L 138.38201 36.200267 Z M 138.38201 34.00705 " transform="matrix(0.997393,0,0,-0.997393,37.838104,179.535587)"/>
<path style="fill-rule:nonzero;fill:rgb(79.998779%,0%,0%);fill-opacity:1;stroke-width:0.79701;stroke-linecap:butt;stroke-linejoin:miter;stroke:rgb(64.99939%,64.99939%,64.99939%);stroke-opacity:1;stroke-dasharray:2.98883,2.98883;stroke-miterlimit:10;" d="M 148.345483 40.990097 L 150.538701 40.990097 L 150.538701 43.183315 L 148.345483 43.183315 Z M 148.345483 40.990097 " transform="matrix(0.997393,0,0,-0.997393,37.838104,179.535587)"/>
<path style="fill-rule:nonzero;fill:rgb(79.998779%,0%,0%);fill-opacity:1;stroke-width:0.79701;stroke-linecap:butt;stroke-linejoin:miter;stroke:rgb(64.99939%,64.99939%,64.99939%);stroke-opacity:1;stroke-dasharray:2.98883,2.98883;stroke-miterlimit:10;" d="M 158.308956 37.625859 L 160.498257 37.625859 L 160.498257 39.819076 L 158.308956 39.819076 Z M 158.308956 37.625859 " transform="matrix(0.997393,0,0,-0.997393,37.838104,179.535587)"/>
<path style="fill-rule:nonzero;fill:rgb(79.998779%,0%,0%);fill-opacity:1;stroke-width:0.79701;stroke-linecap:butt;stroke-linejoin:miter;stroke:rgb(64.99939%,64.99939%,64.99939%);stroke-opacity:1;stroke-dasharray:2.98883,2.98883;stroke-miterlimit:10;" d="M 168.272429 45.368699 L 170.46173 45.368699 L 170.46173 47.558 L 168.272429 47.558 Z M 168.272429 45.368699 " transform="matrix(0.997393,0,0,-0.997393,37.838104,179.535587)"/>
<path style="fill-rule:nonzero;fill:rgb(79.998779%,0%,0%);fill-opacity:1;stroke-width:0.79701;stroke-linecap:butt;stroke-linejoin:miter;stroke:rgb(64.99939%,64.99939%,64.99939%);stroke-opacity:1;stroke-dasharray:2.98883,2.98883;stroke-miterlimit:10;" d="M 178.231986 62.887023 L 180.425204 62.887023 L 180.425204 65.08024 L 178.231986 65.08024 Z M 178.231986 62.887023 " transform="matrix(0.997393,0,0,-0.997393,37.838104,179.535587)"/>
<path style="fill-rule:nonzero;fill:rgb(79.998779%,0%,0%);fill-opacity:1;stroke-width:0.79701;stroke-linecap:butt;stroke-linejoin:miter;stroke:rgb(64.99939%,64.99939%,64.99939%);stroke-opacity:1;stroke-dasharray:2.98883,2.98883;stroke-miterlimit:10;" d="M 188.195459 70.375294 L 190.388677 70.375294 L 190.388677 72.568511 L 188.195459 72.568511 Z M 188.195459 70.375294 " transform="matrix(0.997393,0,0,-0.997393,37.838104,179.535587)"/>
<path style="fill-rule:nonzero;fill:rgb(79.998779%,0%,0%);fill-opacity:1;stroke-width:0.79701;stroke-linecap:butt;stroke-linejoin:miter;stroke:rgb(64.99939%,64.99939%,64.99939%);stroke-opacity:1;stroke-dasharray:2.98883,2.98883;stroke-miterlimit:10;" d="M 198.158933 71.111588 L 200.35215 71.111588 L 200.35215 73.304805 L 198.158933 73.304805 Z M 198.158933 71.111588 " transform="matrix(0.997393,0,0,-0.997393,37.838104,179.535587)"/>
<path style="fill-rule:nonzero;fill:rgb(79.998779%,0%,0%);fill-opacity:1;stroke-width:0.79701;stroke-linecap:butt;stroke-linejoin:miter;stroke:rgb(64.99939%,64.99939%,64.99939%);stroke-opacity:1;stroke-dasharray:2.98883,2.98883;stroke-miterlimit:10;" d="M 208.122406 67.766932 L 210.315623 67.766932 L 210.315623 69.960149 L 208.122406 69.960149 Z M 208.122406 67.766932 " transform="matrix(0.997393,0,0,-0.997393,37.838104,179.535587)"/>
<path style="fill-rule:nonzero;fill:rgb(79.998779%,0%,0%);fill-opacity:1;stroke-width:0.79701;stroke-linecap:butt;stroke-linejoin:miter;stroke:rgb(64.99939%,64.99939%,64.99939%);stroke-opacity:1;stroke-dasharray:2.98883,2.98883;stroke-miterlimit:10;" d="M 218.085879 68.526725 L 220.27518 68.526725 L 220.27518 70.716026 L 218.085879 70.716026 Z M 218.085879 68.526725 " transform="matrix(0.997393,0,0,-0.997393,37.838104,179.535587)"/>
<path style="fill-rule:nonzero;fill:rgb(79.998779%,0%,0%);fill-opacity:1;stroke-width:0.79701;stroke-linecap:butt;stroke-linejoin:miter;stroke:rgb(64.99939%,64.99939%,64.99939%);stroke-opacity:1;stroke-dasharray:2.98883,2.98883;stroke-miterlimit:10;" d="M 228.049352 89.789184 L 230.238653 89.789184 L 230.238653 91.982401 L 228.049352 91.982401 Z M 228.049352 89.789184 " transform="matrix(0.997393,0,0,-0.997393,37.838104,179.535587)"/>
<path style="fill-rule:nonzero;fill:rgb(79.998779%,0%,0%);fill-opacity:1;stroke-width:0.79701;stroke-linecap:butt;stroke-linejoin:miter;stroke:rgb(64.99939%,64.99939%,64.99939%);stroke-opacity:1;stroke-dasharray:2.98883,2.98883;stroke-miterlimit:10;" d="M 238.008909 109.939368 L 240.202126 109.939368 L 240.202126 112.132586 L 238.008909 112.132586 Z M 238.008909 109.939368 " transform="matrix(0.997393,0,0,-0.997393,37.838104,179.535587)"/>
<path style="fill-rule:nonzero;fill:rgb(79.998779%,0%,0%);fill-opacity:1;stroke-width:0.79701;stroke-linecap:butt;stroke-linejoin:miter;stroke:rgb(64.99939%,64.99939%,64.99939%);stroke-opacity:1;stroke-dasharray:2.98883,2.98883;stroke-miterlimit:10;" d="M 247.972382 130.489032 L 250.165599 130.489032 L 250.165599 132.682249 L 247.972382 132.682249 Z M 247.972382 130.489032 " transform="matrix(0.997393,0,0,-0.997393,37.838104,179.535587)"/>
<path style="fill-rule:nonzero;fill:rgb(79.998779%,0%,0%);fill-opacity:1;stroke-width:0.79701;stroke-linecap:butt;stroke-linejoin:miter;stroke:rgb(64.99939%,64.99939%,64.99939%);stroke-opacity:1;stroke-dasharray:2.98883,2.98883;stroke-miterlimit:10;" d="M 257.935855 113.327106 L 260.129072 113.327106 L 260.129072 115.516407 L 257.935855 115.516407 Z M 257.935855 113.327106 " transform="matrix(0.997393,0,0,-0.997393,37.838104,179.535587)"/>
<path style="fill-rule:nonzero;fill:rgb(79.998779%,0%,0%);fill-opacity:1;stroke-width:0.79701;stroke-linecap:butt;stroke-linejoin:miter;stroke:rgb(64.99939%,64.99939%,64.99939%);stroke-opacity:1;stroke-dasharray:2.98883,2.98883;stroke-miterlimit:10;" d="M 267.899328 128.871534 L 270.092546 128.871534 L 270.092546 131.060835 L 267.899328 131.060835 Z M 267.899328 128.871534 " transform="matrix(0.997393,0,0,-0.997393,37.838104,179.535587)"/>
<path style="fill-rule:nonzero;fill:rgb(79.998779%,0%,0%);fill-opacity:1;stroke-width:0.79701;stroke-linecap:butt;stroke-linejoin:miter;stroke:rgb(64.99939%,64.99939%,64.99939%);stroke-opacity:1;stroke-dasharray:2.98883,2.98883;stroke-miterlimit:10;" d="M 277.862801 117.090823 L 280.052102 117.090823 L 280.052102 119.284041 L 277.862801 119.284041 Z M 277.862801 117.090823 " transform="matrix(0.997393,0,0,-0.997393,37.838104,179.535587)"/>
<path style="fill-rule:nonzero;fill:rgb(79.998779%,0%,0%);fill-opacity:1;stroke-width:0.79701;stroke-linecap:butt;stroke-linejoin:miter;stroke:rgb(64.99939%,64.99939%,64.99939%);stroke-opacity:1;stroke-dasharray:2.98883,2.98883;stroke-miterlimit:10;" d="M 287.826274 135.936827 L 290.015575 135.936827 L 290.015575 138.130044 L 287.826274 138.130044 Z M 287.826274 135.936827 " transform="matrix(0.997393,0,0,-0.997393,37.838104,179.535587)"/>
<path style="fill-rule:nonzero;fill:rgb(79.998779%,0%,0%);fill-opacity:1;stroke-width:0.79701;stroke-linecap:butt;stroke-linejoin:miter;stroke:rgb(64.99939%,64.99939%,64.99939%);stroke-opacity:1;stroke-dasharray:2.98883,2.98883;stroke-miterlimit:10;" d="M 297.785831 145.821971 L 299.979049 145.821971 L 299.979049 148.015188 L 297.785831 148.015188 Z M 297.785831 145.821971 " transform="matrix(0.997393,0,0,-0.997393,37.838104,179.535587)"/>
<g style="fill:rgb(0%,0%,0%);fill-opacity:1;">
  <use xlink:href="#glyph2-1" x="175.706764" y="200.461893"/>
  <use xlink:href="#glyph2-2" x="181.450869" y="200.461893"/>
</g>
<g style="fill:rgb(0%,0%,0%);fill-opacity:1;">
  <use xlink:href="#glyph2-3" x="185.787343" y="200.461893"/>
</g>
<g style="fill:rgb(0%,0%,0%);fill-opacity:1;">
  <use xlink:href="#glyph2-4" x="190.387635" y="200.461893"/>
  <use xlink:href="#glyph2-5" x="194.476387" y="200.461893"/>
</g>
<g style="fill:rgb(0%,0%,0%);fill-opacity:1;">
  <use xlink:href="#glyph3-1" x="15.484529" y="137.700928"/>
  <use xlink:href="#glyph3-2" x="15.484529" y="130.935529"/>
  <use xlink:href="#glyph3-3" x="15.484529" y="126.846777"/>
  <use xlink:href="#glyph3-4" x="15.484529" y="122.250956"/>
  <use xlink:href="#glyph3-5" x="15.484529" y="117.144488"/>
  <use xlink:href="#glyph3-6" x="15.484529" y="114.080607"/>
  <use xlink:href="#glyph3-7" x="15.484529" y="109.484786"/>
  <use xlink:href="#glyph3-8" x="15.484529" y="104.378319"/>
</g>
<g style="fill:rgb(0%,0%,0%);fill-opacity:1;">
  <use xlink:href="#glyph3-9" x="15.484529" y="97.745276"/>
  <use xlink:href="#glyph3-2" x="15.484529" y="92.638808"/>
  <use xlink:href="#glyph3-10" x="15.484529" y="88.550057"/>
  <use xlink:href="#glyph3-2" x="15.484529" y="83.954236"/>
  <use xlink:href="#glyph3-9" x="15.484529" y="79.865484"/>
</g>
<g style="fill:rgb(0%,0%,0%);fill-opacity:1;">
  <use xlink:href="#glyph3-8" x="15.484529" y="75.009421"/>
  <use xlink:href="#glyph3-11" x="15.484529" y="71.434893"/>
  <use xlink:href="#glyph3-6" x="15.484529" y="67.839797"/>
  <use xlink:href="#glyph3-12" x="15.484529" y="63.243976"/>
</g>
<g style="fill:rgb(0%,0%,0%);fill-opacity:1;">
  <use xlink:href="#glyph3-13" x="15.484529" y="58.396856"/>
</g>
<path style="fill:none;stroke-width:0.79701;stroke-linecap:butt;stroke-linejoin:miter;stroke:rgb(0%,0%,69.999695%);stroke-opacity:1;stroke-miterlimit:10;" d="M 0.000996829 0.000866736 L 17.010181 0.000866736 " transform="matrix(0.997393,0,0,-0.997393,50.358381,24.270396)"/>
<path style="fill-rule:nonzero;fill:rgb(0%,0%,79.998779%);fill-opacity:1;stroke-width:0.79701;stroke-linecap:butt;stroke-linejoin:miter;stroke:rgb(0%,0%,69.999695%);stroke-opacity:1;stroke-miterlimit:10;" d="M 9.600239 0.000866736 C 9.600239 0.604002 9.110682 1.097475 8.503631 1.097475 C 7.900496 1.097475 7.407022 0.604002 7.407022 0.000866736 C 7.407022 -0.606184 7.900496 -1.095742 8.503631 -1.095742 C 9.110682 -1.095742 9.600239 -0.606184 9.600239 0.000866736 Z M 9.600239 0.000866736 " transform="matrix(0.997393,0,0,-0.997393,50.358381,24.270396)"/>
<g style="fill:rgb(0%,0%,0%);fill-opacity:1;">
  <use xlink:href="#glyph0-9" x="70.08981" y="26.133526"/>
  <use xlink:href="#glyph0-10" x="74.147023" y="26.133526"/>
  <use xlink:href="#glyph0-11" x="78.108249" y="26.133526"/>
  <use xlink:href="#glyph0-12" x="81.641009" y="26.133526"/>
  <use xlink:href="#glyph0-13" x="85.602234" y="26.133526"/>
  <use xlink:href="#glyph0-14" x="89.991231" y="26.133526"/>
  <use xlink:href="#glyph0-10" x="92.240679" y="26.133526"/>
  <use xlink:href="#glyph0-15" x="96.201904" y="26.133526"/>
</g>
<g style="fill:rgb(0%,0%,0%);fill-opacity:1;">
  <use xlink:href="#glyph0-16" x="103.268815" y="26.133526"/>
  <use xlink:href="#glyph0-17" x="105.518262" y="26.133526"/>
  <use xlink:href="#glyph0-15" x="109.051022" y="26.133526"/>
  <use xlink:href="#glyph0-18" x="113.440019" y="26.133526"/>
</g>
<g style="fill:rgb(0%,0%,0%);fill-opacity:1;">
  <use xlink:href="#glyph0-19" x="119.266046" y="26.133526"/>
</g>
<g style="fill:rgb(0%,0%,0%);fill-opacity:1;">
  <use xlink:href="#glyph1-2" x="122.36917" y="26.133526"/>
</g>
<g style="fill:rgb(0%,0%,0%);fill-opacity:1;">
  <use xlink:href="#glyph0-20" x="128.753483" y="26.133526"/>
</g>
<g style="fill:rgb(0%,0%,0%);fill-opacity:1;">
  <use xlink:href="#glyph0-1" x="137.114139" y="26.133526"/>
</g>
<g style="fill:rgb(0%,0%,0%);fill-opacity:1;">
  <use xlink:href="#glyph1-1" x="141.076276" y="26.133526"/>
</g>
<g style="fill:rgb(0%,0%,0%);fill-opacity:1;">
  <use xlink:href="#glyph0-7" x="143.436108" y="26.133526"/>
  <use xlink:href="#glyph0-5" x="147.397334" y="26.133526"/>
  <use xlink:href="#glyph0-21" x="151.35856" y="26.133526"/>
  <use xlink:href="#glyph0-22" x="155.319786" y="26.133526"/>
</g>
<path style="fill:none;stroke-width:0.79701;stroke-linecap:butt;stroke-linejoin:miter;stroke:rgb(64.99939%,64.99939%,64.99939%);stroke-opacity:1;stroke-dasharray:2.98883,2.98883;stroke-miterlimit:10;" d="M 0.000996829 -0.000650199 L 17.010181 -0.000650199 " transform="matrix(0.997393,0,0,-0.997393,50.358381,34.952476)"/>
<path style="fill-rule:nonzero;fill:rgb(79.998779%,0%,0%);fill-opacity:1;stroke-width:0.79701;stroke-linecap:butt;stroke-linejoin:miter;stroke:rgb(64.99939%,64.99939%,64.99939%);stroke-opacity:1;stroke-dasharray:2.98883,2.98883;stroke-miterlimit:10;" d="M 7.407022 -1.097259 L 9.600239 -1.097259 L 9.600239 1.095958 L 7.407022 1.095958 Z M 7.407022 -1.097259 " transform="matrix(0.997393,0,0,-0.997393,50.358381,34.952476)"/>
<g style="fill:rgb(0%,0%,0%);fill-opacity:1;">
  <use xlink:href="#glyph0-16" x="69.706811" y="36.815607"/>
  <use xlink:href="#glyph0-12" x="71.956258" y="36.815607"/>
  <use xlink:href="#glyph0-23" x="75.917484" y="36.815607"/>
  <use xlink:href="#glyph0-14" x="79.87871" y="36.815607"/>
  <use xlink:href="#glyph0-24" x="82.128158" y="36.815607"/>
  <use xlink:href="#glyph0-25" x="85.233147" y="36.815607"/>
  <use xlink:href="#glyph0-16" x="87.910365" y="36.815607"/>
  <use xlink:href="#glyph0-17" x="90.159813" y="36.815607"/>
  <use xlink:href="#glyph0-15" x="93.692572" y="36.815607"/>
  <use xlink:href="#glyph0-18" x="98.081569" y="36.815607"/>
</g>
<g style="fill:rgb(0%,0%,0%);fill-opacity:1;">
  <use xlink:href="#glyph0-15" x="103.907596" y="36.815607"/>
</g>
<g style="fill:rgb(0%,0%,0%);fill-opacity:1;">
  <use xlink:href="#glyph0-26" x="108.080969" y="36.815607"/>
  <use xlink:href="#glyph0-16" x="112.469965" y="36.815607"/>
  <use xlink:href="#glyph0-16" x="114.719413" y="36.815607"/>
</g>
<g style="fill:rgb(0%,0%,0%);fill-opacity:1;">
  <use xlink:href="#glyph0-19" x="119.646774" y="36.815607"/>
</g>
<g style="fill:rgb(0%,0%,0%);fill-opacity:1;">
  <use xlink:href="#glyph1-2" x="122.752169" y="36.815607"/>
</g>
<g style="fill:rgb(0%,0%,0%);fill-opacity:1;">
  <use xlink:href="#glyph0-20" x="129.136482" y="36.815607"/>
</g>
<g style="fill:rgb(0%,0%,0%);fill-opacity:1;">
  <use xlink:href="#glyph0-1" x="137.497138" y="36.815607"/>
</g>
<g style="fill:rgb(0%,0%,0%);fill-opacity:1;">
  <use xlink:href="#glyph1-1" x="141.459275" y="36.815607"/>
</g>
<g style="fill:rgb(0%,0%,0%);fill-opacity:1;">
  <use xlink:href="#glyph0-7" x="143.819107" y="36.815607"/>
  <use xlink:href="#glyph0-1" x="147.780333" y="36.815607"/>
  <use xlink:href="#glyph0-27" x="151.741559" y="36.815607"/>
  <use xlink:href="#glyph0-22" x="155.702785" y="36.815607"/>
</g>
</g>
</svg>
