<?xml version="1.0" encoding="UTF-8"?>
<svg xmlns="http://www.w3.org/2000/svg" xmlns:xlink="http://www.w3.org/1999/xlink" width="366.17pt" height="219.619pt" viewBox="0 0 366.17 219.619" version="1.2">
<defs>
<g>
<symbol overflow="visible" id="glyph0-0">
<path style="stroke:none;" d=""/>
</symbol>
<symbol overflow="visible" id="glyph0-1">
<path style="stroke:none;" d="M 2.640625 -3.46875 C 2.546875 -3.59375 2.515625 -3.625 2.765625 -3.84375 L 2.859375 -3.90625 L 2.71875 -4.0625 C 2.5 -3.875 2.265625 -3.671875 2.15625 -3.59375 C 1.953125 -3.421875 1.59375 -3.109375 1.390625 -2.953125 L 1.53125 -2.796875 L 1.71875 -2.953125 C 2.109375 -3.296875 2.140625 -3.25 2.25 -3.140625 L 2.453125 -2.890625 C 2.515625 -2.8125 2.65625 -2.65625 2.484375 -2.34375 C 2.359375 -2.109375 2.125 -1.921875 2.0625 -1.859375 C 1.4375 -1.328125 0.453125 -1.125 -0.28125 -1.984375 C -1.03125 -2.890625 -0.578125 -3.796875 -0.03125 -4.265625 C 0.3125 -4.546875 1.03125 -4.828125 1.734375 -4.21875 C 1.78125 -4.1875 1.828125 -4.234375 1.859375 -4.25 C 1.9375 -4.3125 1.921875 -4.34375 1.84375 -4.421875 L 1.109375 -5.3125 C 1.046875 -5.375 1.015625 -5.421875 0.953125 -5.375 C 0.921875 -5.34375 0.921875 -5.328125 0.9375 -5.265625 L 0.9375 -4.78125 C 0.640625 -4.78125 0.203125 -4.75 -0.234375 -4.375 C -1.15625 -3.59375 -1.34375 -2.359375 -0.71875 -1.609375 C -0.109375 -0.90625 1.109375 -0.796875 2.09375 -1.625 C 2.234375 -1.75 2.4375 -1.90625 2.59375 -2.125 C 2.796875 -2.4375 2.78125 -2.65625 2.78125 -2.6875 C 2.96875 -2.65625 3.1875 -2.671875 3.21875 -2.703125 C 3.265625 -2.734375 3.21875 -2.78125 3.171875 -2.84375 Z M 2.640625 -3.46875 "/>
</symbol>
<symbol overflow="visible" id="glyph0-2">
<path style="stroke:none;" d="M 1.25 -2.5 C 1.328125 -2.578125 1.359375 -2.609375 1.28125 -2.703125 C 1.078125 -2.953125 0.515625 -3.328125 -0.1875 -2.734375 C -0.765625 -2.25 -0.828125 -1.5 -0.453125 -1.046875 C -0.046875 -0.5625 0.734375 -0.5625 1.328125 -1.046875 C 1.921875 -1.5625 1.75 -2.140625 1.703125 -2.203125 C 1.640625 -2.265625 1.578125 -2.21875 1.5625 -2.1875 C 1.5 -2.140625 1.515625 -2.125 1.546875 -2.0625 C 1.65625 -1.703125 1.453125 -1.375 1.234375 -1.203125 C 0.921875 -0.9375 0.625 -0.96875 0.5 -0.984375 C 0.1875 -1.03125 0 -1.265625 -0.09375 -1.375 Z M -0.171875 -1.5 C -0.546875 -2.046875 -0.28125 -2.46875 -0.09375 -2.609375 C 0.4375 -3.046875 0.875 -2.59375 0.96875 -2.46875 Z M -0.171875 -1.5 "/>
</symbol>
<symbol overflow="visible" id="glyph0-3">
<path style="stroke:none;" d="M 2.640625 -4.171875 C 2.25 -4.625 1.828125 -4.421875 1.546875 -4.171875 C 1.171875 -3.859375 1.125 -3.484375 1.171875 -3.234375 C 0.765625 -3.5 0.359375 -3.1875 0.21875 -3.0625 C -0.171875 -2.734375 -0.203125 -2.328125 -0.15625 -2.078125 L -0.484375 -2.46875 L -1.0625 -1.90625 L -0.921875 -1.734375 C -0.640625 -1.96875 -0.59375 -1.96875 -0.421875 -1.765625 L 0.359375 -0.84375 C 0.453125 -0.71875 0.484375 -0.6875 0.25 -0.5 L 0.171875 -0.4375 L 0.3125 -0.265625 C 0.46875 -0.421875 0.625 -0.546875 0.78125 -0.6875 C 0.9375 -0.8125 1.109375 -0.953125 1.28125 -1.078125 L 1.140625 -1.25 L 1.0625 -1.1875 C 0.828125 -0.984375 0.796875 -1.015625 0.703125 -1.140625 L 0.140625 -1.796875 C -0.203125 -2.21875 0.046875 -2.703125 0.296875 -2.90625 C 0.5625 -3.140625 0.78125 -3.046875 0.984375 -2.796875 L 1.6875 -1.96875 C 1.78125 -1.84375 1.8125 -1.8125 1.5625 -1.59375 L 1.484375 -1.53125 L 1.625 -1.359375 C 1.78125 -1.515625 1.9375 -1.65625 2.109375 -1.796875 C 2.265625 -1.921875 2.421875 -2.0625 2.609375 -2.1875 L 2.46875 -2.359375 L 2.390625 -2.296875 C 2.140625 -2.09375 2.109375 -2.125 2.015625 -2.25 L 1.453125 -2.90625 C 1.109375 -3.328125 1.375 -3.8125 1.609375 -4.015625 C 1.890625 -4.25 2.09375 -4.140625 2.296875 -3.890625 L 3 -3.0625 C 3.09375 -2.9375 3.125 -2.90625 2.875 -2.703125 L 2.8125 -2.65625 L 2.953125 -2.484375 C 3.09375 -2.625 3.265625 -2.765625 3.421875 -2.890625 C 3.59375 -3.03125 3.75 -3.171875 3.921875 -3.296875 L 3.78125 -3.46875 L 3.71875 -3.40625 C 3.46875 -3.1875 3.4375 -3.21875 3.34375 -3.34375 Z M 2.640625 -4.171875 "/>
</symbol>
<symbol overflow="visible" id="glyph0-4">
<path style="stroke:none;" d="M 1.046875 -2.796875 C 0.734375 -3.171875 0.1875 -3.046875 -0.28125 -2.65625 C -0.53125 -2.453125 -0.96875 -2.078125 -0.6875 -1.734375 C -0.578125 -1.609375 -0.40625 -1.625 -0.3125 -1.703125 C -0.203125 -1.796875 -0.171875 -1.953125 -0.28125 -2.078125 C -0.359375 -2.171875 -0.46875 -2.203125 -0.5 -2.1875 C -0.4375 -2.328125 -0.234375 -2.484375 -0.203125 -2.515625 C 0.125 -2.796875 0.484375 -2.796875 0.71875 -2.515625 L 0.796875 -2.421875 C 0.4375 -2.078125 0.25 -1.90625 0.046875 -1.546875 C -0.140625 -1.25 -0.234375 -0.90625 -0.015625 -0.65625 C 0.28125 -0.296875 0.78125 -0.59375 1.078125 -0.859375 C 1.390625 -1.109375 1.515625 -1.40625 1.46875 -1.703125 C 1.609375 -1.5625 1.8125 -1.46875 2.015625 -1.640625 C 2.03125 -1.671875 2.46875 -2.03125 2.15625 -2.40625 L 1.984375 -2.609375 L 1.828125 -2.46875 L 2 -2.265625 C 2.03125 -2.234375 2.171875 -2.0625 2.015625 -1.9375 C 1.859375 -1.8125 1.71875 -1.984375 1.6875 -2.015625 Z M 1.203125 -1.921875 C 1.5625 -1.515625 1.140625 -1.078125 1.03125 -1 C 0.8125 -0.8125 0.484375 -0.75 0.328125 -0.9375 C 0.21875 -1.078125 0 -1.5 0.890625 -2.296875 Z M 1.203125 -1.921875 "/>
</symbol>
<symbol overflow="visible" id="glyph0-5">
<path style="stroke:none;" d="M 0.859375 -1.859375 L 0.609375 -2.15625 L -0.65625 -1.09375 L -0.40625 -0.796875 Z M 0.859375 -1.859375 "/>
</symbol>
<symbol overflow="visible" id="glyph0-6">
<path style="stroke:none;" d="M 1.625 -2.609375 L 1.46875 -2.484375 C 1.53125 -2.390625 1.671875 -2.140625 1.640625 -2.046875 C 1.625 -2 1.296875 -1.734375 1.25 -1.6875 L 0.5 -1.0625 C 0.59375 -1.4375 0.71875 -1.90625 0.8125 -2.25 C 0.953125 -2.765625 1.078125 -3.25 0.734375 -3.65625 C 0.34375 -4.140625 -0.34375 -4.03125 -0.890625 -3.5625 C -1.40625 -3.140625 -1.53125 -2.53125 -1.21875 -2.171875 C -1.046875 -1.953125 -0.84375 -2.0625 -0.796875 -2.09375 C -0.6875 -2.1875 -0.625 -2.359375 -0.765625 -2.515625 C -0.875 -2.65625 -1.046875 -2.65625 -1.171875 -2.5625 C -1.203125 -2.828125 -1.09375 -3.125 -0.828125 -3.34375 C -0.453125 -3.65625 0.03125 -3.671875 0.34375 -3.296875 C 0.609375 -2.984375 0.59375 -2.5625 0.515625 -2.0625 L 0.234375 -0.5 C 0.234375 -0.4375 0.21875 -0.4375 0.25 -0.421875 L 0.34375 -0.296875 L 2.125 -1.78125 Z M 1.625 -2.609375 "/>
</symbol>
<symbol overflow="visible" id="glyph0-7">
<path style="stroke:none;" d="M 0.484375 -0.953125 C 0.578125 -0.828125 0.609375 -0.796875 0.296875 -0.546875 L 0.1875 -0.453125 L 0.328125 -0.28125 L 2.140625 -1.796875 C 2.734375 -2.296875 2.921875 -3 2.59375 -3.375 C 2.375 -3.640625 1.828125 -3.71875 1.15625 -3.28125 C 1.5 -3.671875 1.671875 -4.203125 1.40625 -4.515625 C 1.125 -4.859375 0.40625 -4.765625 -0.15625 -4.28125 L -1.84375 -2.875 L -1.703125 -2.71875 L -1.59375 -2.8125 C -1.28125 -3.0625 -1.265625 -3.015625 -1.15625 -2.90625 Z M -0.0625 -2.34375 L -0.796875 -3.21875 C -0.890625 -3.34375 -0.90625 -3.375 -0.71875 -3.546875 L -0.046875 -4.109375 C 0.359375 -4.453125 0.8125 -4.375 1.015625 -4.140625 C 1.25 -3.859375 1.109375 -3.328125 0.6875 -2.984375 Z M 1.171875 -1.28125 C 0.984375 -1.109375 0.96875 -1.125 0.859375 -1.25 L 0.046875 -2.234375 L 0.9375 -3 C 1.453125 -3.421875 1.953125 -3.265625 2.15625 -3.015625 C 2.40625 -2.734375 2.296875 -2.21875 1.859375 -1.84375 Z M 1.171875 -1.28125 "/>
</symbol>
<symbol overflow="visible" id="glyph0-8">
<path style="stroke:none;" d="M 1.984375 -3.421875 L 1.828125 -3.296875 C 2.15625 -2.796875 2.390625 -2.296875 1.65625 -1.671875 L 1.1875 -1.28125 C 1 -1.125 0.984375 -1.140625 0.875 -1.265625 L -0.765625 -3.234375 C -0.875 -3.34375 -0.890625 -3.390625 -0.515625 -3.703125 L -0.359375 -3.84375 L -0.5 -4 C -0.71875 -3.796875 -1 -3.5625 -1.21875 -3.375 C -1.453125 -3.1875 -1.65625 -3.03125 -1.859375 -2.859375 L -1.71875 -2.703125 L -1.59375 -2.796875 C -1.296875 -3.0625 -1.28125 -3.015625 -1.171875 -2.90625 L 0.46875 -0.953125 C 0.5625 -0.828125 0.59375 -0.796875 0.296875 -0.53125 L 0.171875 -0.4375 L 0.3125 -0.265625 L 2.734375 -2.296875 Z M 1.984375 -3.421875 "/>
</symbol>
<symbol overflow="visible" id="glyph0-9">
<path style="stroke:none;" d="M -1.265625 -3.4375 L -1.859375 -2.859375 L -1.71875 -2.703125 C -1.4375 -2.9375 -1.375 -2.9375 -1.21875 -2.75 L 0.375 -0.859375 C 0.46875 -0.734375 0.5 -0.703125 0.25 -0.5 L 0.171875 -0.4375 L 0.3125 -0.265625 C 0.46875 -0.421875 0.625 -0.546875 0.78125 -0.671875 C 0.9375 -0.8125 1.09375 -0.953125 1.265625 -1.0625 L 1.125 -1.234375 L 1.0625 -1.171875 C 0.8125 -0.96875 0.78125 -1 0.6875 -1.125 Z M -1.265625 -3.4375 "/>
</symbol>
<symbol overflow="visible" id="glyph0-10">
<path style="stroke:none;" d="M 0.203125 -2.296875 C 0.5625 -2.59375 0.96875 -2.59375 1.28125 -2.21875 C 1.609375 -1.828125 1.546875 -1.421875 1.1875 -1.125 C 1.15625 -1.109375 0.703125 -0.71875 0.34375 -0.765625 C 0.5 -0.890625 0.4375 -1.0625 0.359375 -1.15625 C 0.234375 -1.296875 0.0625 -1.296875 -0.078125 -1.1875 C -0.1875 -1.078125 -0.25 -0.90625 -0.109375 -0.734375 C 0.21875 -0.34375 0.8125 -0.546875 1.328125 -0.984375 C 1.953125 -1.515625 2.046875 -2.203125 1.734375 -2.578125 C 1.46875 -2.890625 0.96875 -2.9375 0.4375 -2.65625 C 0.765625 -3.1875 0.65625 -3.59375 0.484375 -3.796875 C 0.234375 -4.109375 -0.359375 -4 -0.84375 -3.609375 C -1.3125 -3.21875 -1.515625 -2.703125 -1.234375 -2.375 C -1.09375 -2.1875 -0.890625 -2.25 -0.828125 -2.3125 C -0.71875 -2.40625 -0.6875 -2.59375 -0.796875 -2.71875 C -0.859375 -2.8125 -1 -2.859375 -1.15625 -2.78125 C -1.15625 -3.09375 -0.8125 -3.390625 -0.75 -3.453125 C -0.46875 -3.6875 -0.140625 -3.71875 0.078125 -3.453125 C 0.265625 -3.234375 0.421875 -2.765625 0.03125 -2.40625 C -0.078125 -2.328125 -0.09375 -2.296875 -0.1875 -2.21875 C -0.21875 -2.1875 -0.265625 -2.125 -0.21875 -2.078125 C -0.15625 -2 -0.109375 -2.03125 -0.046875 -2.09375 Z M 0.203125 -2.296875 "/>
</symbol>
<symbol overflow="visible" id="glyph0-11">
<path style="stroke:none;" d="M 0.8125 -1.0625 C 0.703125 -1.1875 0.5 -1.21875 0.375 -1.109375 C 0.25 -1 0.234375 -0.8125 0.34375 -0.6875 C 0.4375 -0.5625 0.640625 -0.53125 0.765625 -0.640625 C 0.890625 -0.75 0.90625 -0.9375 0.8125 -1.0625 Z M 0.8125 -1.0625 "/>
</symbol>
<symbol overflow="visible" id="glyph0-12">
<path style="stroke:none;" d="M -0.515625 -3.703125 C -0.609375 -3.8125 -0.609375 -3.796875 -0.75 -3.6875 C -0.8125 -3.21875 -1.234375 -2.859375 -1.3125 -2.796875 L -1.390625 -2.734375 L -1.25 -2.578125 L -1.171875 -2.640625 C -1.09375 -2.703125 -0.828125 -2.921875 -0.71875 -3.1875 L 0.890625 -1.296875 C 0.984375 -1.171875 1.015625 -1.140625 0.625 -0.8125 L 0.4375 -0.65625 L 0.578125 -0.484375 C 0.765625 -0.671875 1.09375 -0.953125 1.328125 -1.140625 C 1.546875 -1.328125 1.890625 -1.609375 2.109375 -1.765625 L 1.96875 -1.9375 L 1.78125 -1.78125 C 1.375 -1.453125 1.34375 -1.484375 1.25 -1.609375 Z M -0.515625 -3.703125 "/>
</symbol>
<symbol overflow="visible" id="glyph0-13">
<path style="stroke:none;" d="M 2.5625 -2.203125 C 2.90625 -2.8125 2.96875 -3.65625 2.46875 -4.265625 C 1.84375 -5 0.59375 -5.078125 -0.296875 -4.328125 C -1.203125 -3.578125 -1.328125 -2.34375 -0.703125 -1.609375 C -0.078125 -0.84375 1.125 -0.8125 2.015625 -1.5625 C 2.078125 -1.609375 2.234375 -1.75 2.421875 -1.984375 C 2.859375 -1.6875 3.265625 -1.46875 3.625 -1.78125 C 4.015625 -2.109375 3.828125 -2.6875 3.578125 -2.96875 C 3.5625 -3 3.515625 -3.0625 3.453125 -3 C 3.4375 -2.984375 3.40625 -2.9375 3.4375 -2.875 C 3.640625 -2.578125 3.28125 -2.28125 3.25 -2.25 C 3.171875 -2.171875 3.015625 -2.0625 2.5625 -2.203125 Z M 1.515625 -1.453125 C 1.015625 -1.234375 0.296875 -1.265625 -0.28125 -1.96875 C -1 -2.8125 -0.765625 -3.703125 -0.1875 -4.1875 C 0.390625 -4.671875 1.328125 -4.734375 2.03125 -3.90625 C 2.484375 -3.34375 2.546875 -2.75 2.34375 -2.265625 C 2.046875 -2.375 1.734375 -2.453125 1.46875 -2.234375 C 1.25 -2.046875 1.1875 -1.75 1.359375 -1.5625 C 1.40625 -1.484375 1.484375 -1.453125 1.515625 -1.453125 Z M 2.234375 -2.078125 C 2.109375 -1.875 1.96875 -1.75 1.90625 -1.6875 C 1.671875 -1.5 1.53125 -1.609375 1.484375 -1.671875 C 1.375 -1.796875 1.4375 -1.96875 1.578125 -2.09375 C 1.765625 -2.25 1.96875 -2.21875 2.234375 -2.078125 Z M 2.234375 -2.078125 "/>
</symbol>
<symbol overflow="visible" id="glyph0-14">
<path style="stroke:none;" d="M 2.03125 -3.828125 C 1.9375 -4.109375 2.09375 -4.265625 2.203125 -4.34375 L 2.0625 -4.515625 C 1.96875 -4.421875 1.875 -4.34375 1.75 -4.234375 C 1.625 -4.125 1.46875 -4 1.328125 -3.90625 L 1.46875 -3.734375 C 1.625 -3.875 1.75 -3.84375 1.8125 -3.765625 C 1.828125 -3.75 1.84375 -3.703125 1.859375 -3.6875 L 2.234375 -2.390625 L 0.921875 -3.03125 C 0.859375 -3.0625 0.84375 -3.078125 0.84375 -3.078125 C 0.78125 -3.15625 0.9375 -3.28125 1 -3.34375 L 0.859375 -3.515625 C 0.734375 -3.375 0.578125 -3.25 0.421875 -3.125 C 0.296875 -3.015625 0.171875 -2.90625 0.03125 -2.8125 L 0.171875 -2.640625 C 0.25 -2.71875 0.34375 -2.796875 0.40625 -2.8125 C 0.46875 -2.84375 0.59375 -2.8125 0.625 -2.765625 C 0.625 -2.765625 0.640625 -2.71875 0.640625 -2.71875 L 1.015625 -1.46875 L -0.21875 -2.078125 C -0.265625 -2.09375 -0.28125 -2.078125 -0.3125 -2.109375 C -0.375 -2.1875 -0.21875 -2.328125 -0.140625 -2.375 L -0.28125 -2.546875 C -0.421875 -2.40625 -0.578125 -2.28125 -0.734375 -2.140625 C -0.875 -2.03125 -1.03125 -1.90625 -1.171875 -1.8125 L -1.03125 -1.640625 C -0.84375 -1.796875 -0.765625 -1.859375 -0.625 -1.796875 L 1.046875 -0.953125 C 1.15625 -0.90625 1.203125 -0.953125 1.25 -1 C 1.3125 -1.046875 1.328125 -1.078125 1.328125 -1.171875 L 0.875 -2.640625 L 2.265625 -1.953125 C 2.34375 -1.921875 2.390625 -1.953125 2.453125 -2 C 2.515625 -2.046875 2.546875 -2.078125 2.5 -2.1875 Z M 2.03125 -3.828125 "/>
</symbol>
<symbol overflow="visible" id="glyph0-15">
<path style="stroke:none;" d="M 1.3125 -3.078125 C 0.96875 -3.484375 0.578125 -3.359375 0.21875 -3.0625 C -0.1875 -2.71875 -0.1875 -2.3125 -0.15625 -2.078125 L -0.484375 -2.46875 L -1.0625 -1.90625 L -0.921875 -1.734375 C -0.640625 -1.96875 -0.59375 -1.96875 -0.421875 -1.765625 L 0.359375 -0.84375 C 0.453125 -0.71875 0.484375 -0.6875 0.25 -0.5 L 0.171875 -0.4375 L 0.3125 -0.265625 C 0.46875 -0.421875 0.625 -0.546875 0.78125 -0.6875 C 0.9375 -0.8125 1.109375 -0.953125 1.28125 -1.078125 L 1.140625 -1.25 L 1.0625 -1.1875 C 0.828125 -0.984375 0.796875 -1.015625 0.703125 -1.140625 L 0.140625 -1.796875 C -0.21875 -2.21875 0.046875 -2.703125 0.296875 -2.90625 C 0.5625 -3.140625 0.765625 -3.03125 0.96875 -2.78125 L 1.671875 -1.953125 C 1.765625 -1.828125 1.796875 -1.796875 1.5625 -1.59375 L 1.484375 -1.53125 L 1.625 -1.359375 C 1.78125 -1.515625 1.9375 -1.65625 2.109375 -1.796875 C 2.265625 -1.921875 2.421875 -2.0625 2.59375 -2.171875 L 2.453125 -2.34375 L 2.390625 -2.296875 C 2.140625 -2.09375 2.109375 -2.125 2.015625 -2.25 Z M 1.3125 -3.078125 "/>
</symbol>
<symbol overflow="visible" id="glyph0-16">
<path style="stroke:none;" d="M -1.015625 -2.71875 C -0.765625 -2.84375 -0.609375 -2.984375 -0.5625 -3.015625 C -0.296875 -3.234375 -0.171875 -3.484375 -0.109375 -3.609375 C -0.078125 -3.71875 0.0625 -4.109375 0 -4.203125 C -0.0625 -4.265625 -0.109375 -4.234375 -0.109375 -4.21875 C -0.125 -4.203125 -0.140625 -4.203125 -0.15625 -4.15625 C -0.25 -3.984375 -0.46875 -3.734375 -0.71875 -3.53125 C -0.9375 -3.34375 -1.171875 -3.203125 -1.4375 -3.109375 C -1.484375 -3.078125 -1.484375 -3.0625 -1.484375 -3.0625 C -1.546875 -3.015625 -1.515625 -2.96875 -1.453125 -2.921875 L -0.5 -1.765625 C -0.453125 -1.703125 -0.40625 -1.65625 -0.34375 -1.71875 C -0.296875 -1.75 -0.3125 -1.765625 -0.296875 -1.828125 C -0.296875 -2.125 -0.15625 -2.375 0.109375 -2.59375 C 0.328125 -2.78125 0.546875 -2.75 0.671875 -2.71875 C 0.859375 -2.671875 1.046875 -2.5 1.1875 -2.328125 C 1.328125 -2.171875 1.46875 -1.9375 1.453125 -1.671875 C 1.453125 -1.34375 1.21875 -1.15625 1.140625 -1.078125 C 0.890625 -0.875 0.53125 -0.75 0.21875 -0.875 C 0.375 -1.03125 0.34375 -1.1875 0.265625 -1.28125 C 0.15625 -1.390625 0 -1.40625 -0.125 -1.296875 C -0.203125 -1.234375 -0.3125 -1.078125 -0.171875 -0.90625 C 0.15625 -0.53125 0.765625 -0.515625 1.265625 -0.9375 C 1.84375 -1.421875 1.984375 -2.171875 1.59375 -2.640625 C 1.234375 -3.078125 0.53125 -3.171875 0 -2.734375 C -0.25 -2.53125 -0.375 -2.296875 -0.453125 -2.03125 Z M -1.015625 -2.71875 "/>
</symbol>
<symbol overflow="visible" id="glyph0-17">
<path style="stroke:none;" d="M 0.1875 -4.546875 C 0.125 -4.609375 0.09375 -4.65625 0.03125 -4.609375 C 0.03125 -4.59375 0 -4.578125 0.015625 -4.5 L 0.03125 -4.15625 C -0.28125 -4.15625 -0.609375 -4.0625 -0.953125 -3.765625 C -1.5 -3.3125 -1.59375 -2.65625 -1.265625 -2.28125 C -1.09375 -2.0625 -0.84375 -2 -0.65625 -1.984375 C -0.3125 -1.984375 -0.09375 -2.109375 0.109375 -2.21875 C 0.203125 -2.265625 0.78125 -2.59375 0.8125 -2.609375 C 1.109375 -2.78125 1.5 -2.78125 1.734375 -2.515625 C 1.953125 -2.25 1.921875 -1.75 1.484375 -1.375 C 1.296875 -1.21875 0.953125 -0.984375 0.59375 -0.953125 C 0.3125 -0.921875 0.0625 -1 -0.125 -1.21875 C -0.171875 -1.28125 -0.1875 -1.296875 -0.265625 -1.234375 C -0.34375 -1.171875 -0.328125 -1.15625 -0.25 -1.0625 L 0.359375 -0.34375 C 0.40625 -0.28125 0.4375 -0.234375 0.5 -0.28125 C 0.53125 -0.3125 0.546875 -0.328125 0.53125 -0.390625 C 0.53125 -0.421875 0.5 -0.71875 0.484375 -0.71875 C 0.96875 -0.75 1.34375 -1 1.609375 -1.21875 C 2.1875 -1.703125 2.25 -2.359375 1.90625 -2.765625 C 1.671875 -3.046875 1.359375 -3.078125 1.21875 -3.078125 C 0.90625 -3.109375 0.671875 -2.984375 0.296875 -2.78125 C 0.046875 -2.625 -0.203125 -2.5 -0.265625 -2.46875 C -0.421875 -2.375 -0.875 -2.25 -1.109375 -2.53125 C -1.328125 -2.78125 -1.234375 -3.28125 -0.828125 -3.609375 C -0.15625 -4.1875 0.390625 -3.875 0.6875 -3.640625 C 0.71875 -3.59375 0.765625 -3.59375 0.828125 -3.640625 C 0.890625 -3.703125 0.875 -3.734375 0.796875 -3.8125 Z M 0.1875 -4.546875 "/>
</symbol>
<symbol overflow="visible" id="glyph0-18">
<path style="stroke:none;" d="M 1.65625 -2.78125 C 1.265625 -3.25 0.46875 -3.296875 -0.125 -2.78125 C -0.734375 -2.28125 -0.828125 -1.484375 -0.4375 -1.015625 C -0.046875 -0.5625 0.734375 -0.5625 1.328125 -1.046875 C 1.921875 -1.5625 2.046875 -2.328125 1.65625 -2.78125 Z M 1.21875 -1.171875 C 0.546875 -0.609375 0.078125 -1.171875 -0.09375 -1.359375 C -0.234375 -1.53125 -0.703125 -2.09375 -0.03125 -2.65625 C 0.640625 -3.21875 1.109375 -2.65625 1.25 -2.484375 C 1.421875 -2.296875 1.890625 -1.734375 1.21875 -1.171875 Z M 1.21875 -1.171875 "/>
</symbol>
<symbol overflow="visible" id="glyph0-19">
<path style="stroke:none;" d="M -0.875 -3.546875 C -0.96875 -3.59375 -1.015625 -3.5625 -1.09375 -3.5 L -1.84375 -2.875 L -1.703125 -2.71875 L -1.578125 -2.8125 C -1.265625 -3.078125 -1.25 -3.03125 -1.140625 -2.921875 L 0.421875 -1.0625 C 0.5 -0.96875 0.625 -0.8125 0.1875 -0.453125 L 0.328125 -0.28125 C 0.5 -0.453125 0.671875 -0.59375 0.828125 -0.734375 C 0.9375 -0.8125 1.1875 -1.015625 1.359375 -1.140625 L 1.21875 -1.3125 C 0.796875 -0.953125 0.671875 -1.109375 0.59375 -1.203125 L -1.078125 -3.1875 L -1.0625 -3.203125 L 1.96875 -1.8125 C 2.0625 -1.765625 2.109375 -1.765625 2.171875 -1.8125 C 2.234375 -1.875 2.21875 -1.9375 2.21875 -1.984375 L 1.359375 -5.296875 L 3.140625 -3.1875 C 3.234375 -3.0625 3.265625 -3.03125 2.953125 -2.765625 L 2.84375 -2.671875 L 2.984375 -2.5 C 3.140625 -2.671875 3.359375 -2.84375 3.5625 -3.015625 C 3.765625 -3.1875 4 -3.375 4.171875 -3.5 L 4.03125 -3.671875 L 3.921875 -3.59375 C 3.625 -3.328125 3.59375 -3.359375 3.5 -3.484375 L 1.859375 -5.4375 C 1.75 -5.546875 1.734375 -5.59375 2.03125 -5.859375 L 2.140625 -5.9375 L 2 -6.09375 L 1.28125 -5.484375 C 1.1875 -5.421875 1.15625 -5.390625 1.1875 -5.28125 L 1.96875 -2.25 Z M -0.875 -3.546875 "/>
</symbol>
<symbol overflow="visible" id="glyph0-20">
<path style="stroke:none;" d="M 0.453125 -4.28125 C 0.46875 -4.359375 0.46875 -4.359375 0.453125 -4.375 L 0.359375 -4.484375 L -0.5625 -3.703125 C -0.65625 -3.625 -1.21875 -3.171875 -1.296875 -3.140625 C -1.40625 -3.078125 -1.4375 -3.109375 -1.484375 -3.140625 L -1.640625 -3.015625 L -1.0625 -2.03125 L -0.90625 -2.15625 C -0.953125 -2.21875 -1.125 -2.5 -1.09375 -2.609375 C -1.078125 -2.640625 -0.71875 -2.9375 -0.671875 -2.984375 L 0.234375 -3.75 C 0.234375 -3.4375 0.1875 -3.0625 0.203125 -2.75 C 0.234375 -1.796875 0.625 -1.1875 0.828125 -0.9375 C 1 -0.734375 1.15625 -0.84375 1.21875 -0.890625 C 1.421875 -1.0625 1.265625 -1.25 1.234375 -1.296875 L 1.171875 -1.375 C 0.59375 -2.046875 0.40625 -2.59375 0.40625 -3.03125 Z M 0.453125 -4.28125 "/>
</symbol>
<symbol overflow="visible" id="glyph1-0">
<path style="stroke:none;" d=""/>
</symbol>
<symbol overflow="visible" id="glyph1-1">
<path style="stroke:none;" d="M 3.59375 -2.21875 C 3.59375 -2.984375 3.5 -3.53125 3.171875 -4.015625 C 2.96875 -4.34375 2.53125 -4.609375 1.96875 -4.609375 C 0.359375 -4.609375 0.359375 -2.71875 0.359375 -2.21875 C 0.359375 -1.71875 0.359375 0.140625 1.96875 0.140625 C 3.59375 0.140625 3.59375 -1.71875 3.59375 -2.21875 Z M 1.96875 -0.0625 C 1.65625 -0.0625 1.234375 -0.25 1.09375 -0.8125 C 1 -1.21875 1 -1.796875 1 -2.3125 C 1 -2.8125 1 -3.34375 1.09375 -3.734375 C 1.25 -4.28125 1.6875 -4.421875 1.96875 -4.421875 C 2.34375 -4.421875 2.71875 -4.1875 2.84375 -3.796875 C 2.953125 -3.40625 2.953125 -2.90625 2.953125 -2.3125 C 2.953125 -1.796875 2.953125 -1.28125 2.859375 -0.84375 C 2.71875 -0.203125 2.25 -0.0625 1.96875 -0.0625 Z M 1.96875 -0.0625 "/>
</symbol>
<symbol overflow="visible" id="glyph1-2">
<path style="stroke:none;" d="M 3.515625 -1.265625 L 3.28125 -1.265625 C 3.25 -1.109375 3.1875 -0.703125 3.09375 -0.625 C 3.03125 -0.59375 2.5 -0.59375 2.40625 -0.59375 L 1.125 -0.59375 C 1.859375 -1.234375 2.09375 -1.4375 2.515625 -1.765625 C 3.03125 -2.171875 3.515625 -2.59375 3.515625 -3.265625 C 3.515625 -4.109375 2.78125 -4.609375 1.890625 -4.609375 C 1.015625 -4.609375 0.4375 -4.015625 0.4375 -3.375 C 0.4375 -3.015625 0.734375 -2.984375 0.8125 -2.984375 C 0.96875 -2.984375 1.171875 -3.09375 1.171875 -3.34375 C 1.171875 -3.484375 1.125 -3.71875 0.765625 -3.71875 C 0.984375 -4.21875 1.453125 -4.359375 1.78125 -4.359375 C 2.46875 -4.359375 2.84375 -3.828125 2.84375 -3.265625 C 2.84375 -2.65625 2.40625 -2.171875 2.1875 -1.921875 L 0.5 -0.265625 C 0.4375 -0.203125 0.4375 -0.1875 0.4375 0 L 3.296875 0 Z M 3.515625 -1.265625 "/>
</symbol>
<symbol overflow="visible" id="glyph1-3">
<path style="stroke:none;" d="M 3.671875 -1.140625 L 3.671875 -1.390625 L 2.90625 -1.390625 L 2.90625 -4.484375 C 2.90625 -4.640625 2.90625 -4.6875 2.75 -4.6875 C 2.671875 -4.6875 2.640625 -4.6875 2.578125 -4.59375 L 0.265625 -1.390625 L 0.265625 -1.140625 L 2.3125 -1.140625 L 2.3125 -0.5625 C 2.3125 -0.328125 2.3125 -0.25 1.75 -0.25 L 1.5625 -0.25 L 1.5625 0 C 1.90625 -0.015625 2.359375 -0.03125 2.609375 -0.03125 C 2.859375 -0.03125 3.3125 -0.015625 3.65625 0 L 3.65625 -0.25 L 3.46875 -0.25 C 2.90625 -0.25 2.90625 -0.328125 2.90625 -0.5625 L 2.90625 -1.140625 Z M 2.359375 -3.9375 L 2.359375 -1.390625 L 0.53125 -1.390625 Z M 2.359375 -3.9375 "/>
</symbol>
<symbol overflow="visible" id="glyph1-4">
<path style="stroke:none;" d="M 1.046875 -2.28125 C 1.046875 -2.84375 1.09375 -3.359375 1.359375 -3.78125 C 1.59375 -4.15625 1.96875 -4.421875 2.40625 -4.421875 C 2.625 -4.421875 2.90625 -4.359375 3.03125 -4.171875 C 2.859375 -4.15625 2.71875 -4.046875 2.71875 -3.84375 C 2.71875 -3.671875 2.84375 -3.515625 3.046875 -3.515625 C 3.25 -3.515625 3.375 -3.65625 3.375 -3.859375 C 3.375 -4.25 3.09375 -4.609375 2.40625 -4.609375 C 1.390625 -4.609375 0.375 -3.703125 0.375 -2.203125 C 0.375 -0.40625 1.21875 0.140625 1.984375 0.140625 C 2.84375 0.140625 3.578125 -0.5 3.578125 -1.421875 C 3.578125 -2.296875 2.875 -2.953125 2.0625 -2.953125 C 1.5 -2.953125 1.203125 -2.59375 1.046875 -2.28125 Z M 1.984375 -0.078125 C 1.640625 -0.078125 1.375 -0.28125 1.21875 -0.59375 C 1.125 -0.796875 1.0625 -1.140625 1.0625 -1.5625 C 1.0625 -2.234375 1.46875 -2.765625 2.015625 -2.765625 C 2.34375 -2.765625 2.5625 -2.640625 2.734375 -2.375 C 2.90625 -2.109375 2.90625 -1.828125 2.90625 -1.421875 C 2.90625 -1.015625 2.90625 -0.734375 2.71875 -0.453125 C 2.546875 -0.21875 2.328125 -0.078125 1.984375 -0.078125 Z M 1.984375 -0.078125 "/>
</symbol>
<symbol overflow="visible" id="glyph1-5">
<path style="stroke:none;" d="M 2.46875 -2.515625 C 3.015625 -2.78125 3.359375 -3.09375 3.359375 -3.578125 C 3.359375 -4.25 2.65625 -4.609375 1.984375 -4.609375 C 1.21875 -4.609375 0.59375 -4.109375 0.59375 -3.453125 C 0.59375 -3.125 0.75 -2.890625 0.875 -2.75 C 1 -2.609375 1.046875 -2.578125 1.453125 -2.34375 C 1.0625 -2.171875 0.375 -1.796875 0.375 -1.0625 C 0.375 -0.296875 1.171875 0.140625 1.96875 0.140625 C 2.84375 0.140625 3.578125 -0.421875 3.578125 -1.171875 C 3.578125 -1.640625 3.296875 -2.015625 2.90625 -2.265625 C 2.8125 -2.3125 2.5625 -2.453125 2.46875 -2.515625 Z M 1.328125 -3.171875 C 1.15625 -3.28125 0.953125 -3.46875 0.953125 -3.71875 C 0.953125 -4.15625 1.46875 -4.421875 1.96875 -4.421875 C 2.515625 -4.421875 2.984375 -4.078125 2.984375 -3.578125 C 2.984375 -2.96875 2.265625 -2.65625 2.25 -2.65625 C 2.234375 -2.65625 2.21875 -2.65625 2.171875 -2.6875 Z M 1.671875 -2.203125 L 2.625 -1.65625 C 2.8125 -1.546875 3.15625 -1.34375 3.15625 -0.9375 C 3.15625 -0.40625 2.578125 -0.078125 1.984375 -0.078125 C 1.34375 -0.078125 0.796875 -0.5 0.796875 -1.0625 C 0.796875 -1.578125 1.171875 -1.96875 1.671875 -2.203125 Z M 1.671875 -2.203125 "/>
</symbol>
<symbol overflow="visible" id="glyph1-6">
<path style="stroke:none;" d="M 2.328125 -4.421875 C 2.328125 -4.609375 2.3125 -4.609375 2.125 -4.609375 C 1.671875 -4.171875 1.046875 -4.171875 0.765625 -4.171875 L 0.765625 -3.921875 C 0.921875 -3.921875 1.390625 -3.921875 1.765625 -4.109375 L 1.765625 -0.5625 C 1.765625 -0.34375 1.765625 -0.25 1.078125 -0.25 L 0.8125 -0.25 L 0.8125 0 C 0.9375 0 1.78125 -0.03125 2.046875 -0.03125 C 2.265625 -0.03125 3.140625 0 3.28125 0 L 3.28125 -0.25 L 3.03125 -0.25 C 2.328125 -0.25 2.328125 -0.34375 2.328125 -0.5625 Z M 2.328125 -4.421875 "/>
</symbol>
<symbol overflow="visible" id="glyph2-0">
<path style="stroke:none;" d=""/>
</symbol>
<symbol overflow="visible" id="glyph2-1">
<path style="stroke:none;" d="M 1.578125 -0.390625 C 1.578125 -0.640625 1.375 -0.796875 1.1875 -0.796875 C 0.953125 -0.796875 0.78125 -0.609375 0.78125 -0.40625 C 0.78125 -0.15625 0.984375 0 1.171875 0 C 1.40625 0 1.578125 -0.1875 1.578125 -0.390625 Z M 1.578125 -0.390625 "/>
</symbol>
<symbol overflow="visible" id="glyph3-0">
<path style="stroke:none;" d=""/>
</symbol>
<symbol overflow="visible" id="glyph3-1">
<path style="stroke:none;" d="M -1.859375 -3.09375 C -2.234375 -3.09375 -2.5 -3.09375 -2.75 -2.78125 C -2.984375 -2.5 -3.09375 -2.15625 -3.09375 -1.75 C -3.09375 -1.09375 -2.84375 -0.625 -2.421875 -0.625 C -2.203125 -0.625 -2.09375 -0.78125 -2.09375 -0.953125 C -2.09375 -1.140625 -2.21875 -1.28125 -2.40625 -1.28125 C -2.53125 -1.28125 -2.671875 -1.234375 -2.734375 -1.046875 C -2.90625 -1.296875 -2.90625 -1.703125 -2.90625 -1.734375 C -2.90625 -2.125 -2.65625 -2.546875 -2.0625 -2.546875 L -1.84375 -2.546875 C -1.828125 -2.171875 -1.8125 -1.703125 -1.625 -1.203125 C -1.390625 -0.578125 -1.015625 -0.375 -0.703125 -0.375 C -0.109375 -0.375 0.0625 -1.109375 0.0625 -1.59375 C 0.0625 -2.15625 -0.25 -2.484375 -0.515625 -2.625 C -0.234375 -2.65625 0.03125 -2.84375 0.03125 -3.15625 C 0.03125 -3.171875 0.03125 -3.859375 -0.625 -3.859375 L -1.015625 -3.859375 L -1.015625 -3.609375 L -0.625 -3.609375 C -0.5625 -3.609375 -0.234375 -3.609375 -0.234375 -3.359375 C -0.234375 -3.09375 -0.5625 -3.09375 -0.640625 -3.09375 Z M -0.984375 -2.546875 C -0.3125 -2.546875 -0.125 -1.96875 -0.125 -1.65625 C -0.125 -1.296875 -0.359375 -0.96875 -0.703125 -0.96875 C -1.078125 -0.96875 -1.625 -1.296875 -1.671875 -2.546875 Z M -0.984375 -2.546875 "/>
</symbol>
<symbol overflow="visible" id="glyph3-2">
<path style="stroke:none;" d="M -2.75 -1.390625 L -2.75 -2.484375 L -3 -2.484375 L -3 -1.390625 L -4.28125 -1.390625 L -4.28125 -1.15625 C -3.65625 -1.15625 -2.96875 -0.875 -2.9375 -0.203125 L -2.75 -0.203125 L -2.75 -0.84375 L -0.875 -0.84375 C -0.09375 -0.84375 0.0625 -1.4375 0.0625 -1.828125 C 0.0625 -2.28125 -0.328125 -2.609375 -0.875 -2.609375 L -1.265625 -2.609375 L -1.265625 -2.375 L -0.890625 -2.375 C -0.40625 -2.375 -0.15625 -2.15625 -0.15625 -1.875 C -0.15625 -1.390625 -0.734375 -1.390625 -0.859375 -1.390625 Z M -2.75 -1.390625 "/>
</symbol>
<symbol overflow="visible" id="glyph3-3">
<path style="stroke:none;" d="M -2.78125 -2.703125 C -2.71875 -2.578125 -2.609375 -2.515625 -2.46875 -2.515625 C -2.28125 -2.515625 -2.140625 -2.640625 -2.140625 -2.84375 C -2.140625 -3.03125 -2.265625 -3.171875 -2.484375 -3.171875 C -3.09375 -3.171875 -3.09375 -2.203125 -3.09375 -2.015625 C -3.09375 -0.96875 -2.296875 -0.3125 -1.5 -0.3125 C -0.625 -0.3125 0.0625 -1.0625 0.0625 -1.96875 C 0.0625 -3.015625 -0.75 -3.25 -0.828125 -3.25 C -0.921875 -3.25 -0.921875 -3.15625 -0.921875 -3.140625 C -0.921875 -3.046875 -0.890625 -3.03125 -0.796875 -3 C -0.375 -2.84375 -0.15625 -2.484375 -0.15625 -2.0625 C -0.15625 -1.578125 -0.5 -0.953125 -1.515625 -0.953125 C -2.390625 -0.953125 -2.875 -1.390625 -2.875 -2.03125 C -2.875 -2.125 -2.875 -2.453125 -2.78125 -2.703125 Z M -2.78125 -2.703125 "/>
</symbol>
<symbol overflow="visible" id="glyph3-4">
<path style="stroke:none;" d="M -1.890625 -2.25 C -2.546875 -3.09375 -2.734375 -3.328125 -2.75 -3.8125 L -3 -3.8125 C -2.984375 -3.671875 -2.96875 -3.484375 -2.96875 -3.34375 C -2.96875 -3.0625 -2.96875 -2.78125 -3 -2.5 L -2.75 -2.5 C -2.734375 -2.59375 -2.671875 -2.625 -2.625 -2.625 C -2.515625 -2.625 -2.375 -2.5 -2.3125 -2.40625 L -1.515625 -1.390625 L -4.828125 -1.390625 L -4.75 -0.34375 L -4.5 -0.34375 C -4.5 -0.8125 -4.453125 -0.859375 -4.109375 -0.859375 L -0.546875 -0.859375 C -0.25 -0.859375 -0.25 -0.796875 -0.25 -0.34375 L 0 -0.34375 C -0.015625 -0.59375 -0.03125 -0.859375 -0.03125 -1.109375 C -0.03125 -1.375 -0.015625 -1.625 0 -1.890625 L -0.25 -1.890625 C -0.25 -1.4375 -0.25 -1.359375 -0.546875 -1.359375 L -1.203125 -1.359375 L -1.59375 -1.859375 L -0.65625 -2.625 C -0.5625 -2.703125 -0.46875 -2.78125 -0.375 -2.78125 C -0.265625 -2.78125 -0.25 -2.65625 -0.25 -2.59375 L 0 -2.59375 C 0 -2.671875 -0.03125 -3.171875 -0.03125 -3.375 C -0.03125 -3.578125 -0.015625 -3.78125 0 -3.984375 L -0.25 -3.984375 C -0.25 -3.71875 -0.265625 -3.5625 -0.515625 -3.359375 Z M -1.890625 -2.25 "/>
</symbol>
<symbol overflow="visible" id="glyph3-5">
<path style="stroke:none;" d="M -2.921875 -2.640625 C -3.03125 -2.640625 -3.09375 -2.640625 -3.09375 -2.53125 C -3.09375 -2.5 -3.09375 -2.484375 -3.015625 -2.40625 C -3.015625 -2.390625 -2.953125 -2.3125 -2.90625 -2.28125 C -3.0625 -2.0625 -3.09375 -1.796875 -3.09375 -1.546875 C -3.09375 -0.546875 -2.578125 -0.3125 -2.234375 -0.3125 C -2.015625 -0.3125 -1.828125 -0.40625 -1.6875 -0.578125 C -1.453125 -0.84375 -1.40625 -1.109375 -1.34375 -1.53125 C -1.28125 -1.890625 -1.1875 -2.453125 -0.71875 -2.453125 C -0.4375 -2.453125 -0.125 -2.265625 -0.125 -1.59375 C -0.125 -0.921875 -0.5625 -0.6875 -1.03125 -0.5625 C -1.125 -0.53125 -1.15625 -0.53125 -1.15625 -0.4375 C -1.15625 -0.3125 -1.109375 -0.3125 -0.96875 -0.3125 L -0.109375 -0.3125 C 0 -0.3125 0.0625 -0.3125 0.0625 -0.40625 C 0.0625 -0.46875 -0.078125 -0.609375 -0.234375 -0.75 C 0.0625 -1.046875 0.0625 -1.421875 0.0625 -1.59375 C 0.0625 -2.5 -0.421875 -2.828125 -0.90625 -2.828125 C -1.171875 -2.828125 -1.390625 -2.71875 -1.546875 -2.53125 C -1.796875 -2.265625 -1.84375 -1.953125 -1.890625 -1.703125 C -1.984375 -1.140625 -2.078125 -0.703125 -2.4375 -0.703125 C -2.65625 -0.703125 -2.9375 -0.890625 -2.9375 -1.546875 C -2.9375 -2.34375 -2.375 -2.390625 -2.171875 -2.40625 C -2.09375 -2.40625 -2.09375 -2.484375 -2.09375 -2.515625 C -2.09375 -2.640625 -2.140625 -2.640625 -2.28125 -2.640625 Z M -2.921875 -2.640625 "/>
</symbol>
<symbol overflow="visible" id="glyph3-6">
<path style="stroke:none;" d="M -2.984375 -2.515625 L -2.734375 -2.515625 C -2.734375 -2.96875 -2.6875 -3.03125 -2.34375 -3.03125 L -1.15625 -3.03125 C -0.546875 -3.03125 -0.125 -2.640625 -0.125 -2.109375 C -0.125 -1.46875 -0.421875 -1.453125 -0.78125 -1.453125 L -3.0625 -1.453125 L -2.984375 -0.375 L -2.734375 -0.375 C -2.734375 -0.890625 -2.71875 -0.890625 -2.09375 -0.890625 L -1.0625 -0.890625 C -0.578125 -0.890625 0.0625 -0.890625 0.0625 -2.0625 C 0.0625 -2.21875 0.0625 -2.71875 -0.515625 -3.046875 L -0.515625 -3.0625 L 0.0625 -3.0625 L 0 -4.109375 L -0.25 -4.109375 C -0.25 -3.640625 -0.296875 -3.578125 -0.640625 -3.578125 L -3.0625 -3.578125 Z M -2.984375 -2.515625 "/>
</symbol>
<symbol overflow="visible" id="glyph3-7">
<path style="stroke:none;" d="M -1.578125 -3.0625 C -1.578125 -3.203125 -1.578125 -3.25 -1.734375 -3.25 C -2.34375 -3.25 -3.09375 -2.90625 -3.09375 -1.875 C -3.09375 -0.96875 -2.375 -0.265625 -1.515625 -0.265625 C -0.640625 -0.265625 0.0625 -1.046875 0.0625 -1.96875 C 0.0625 -2.90625 -0.6875 -3.25 -0.828125 -3.25 C -0.859375 -3.25 -0.9375 -3.234375 -0.9375 -3.140625 C -0.9375 -3.046875 -0.890625 -3.03125 -0.828125 -3.015625 C -0.25 -2.796875 -0.15625 -2.265625 -0.15625 -2.015625 C -0.15625 -1.6875 -0.296875 -1.375 -0.5625 -1.171875 C -0.890625 -0.90625 -1.3125 -0.90625 -1.578125 -0.90625 Z M -1.765625 -0.90625 C -2.75 -0.984375 -2.90625 -1.609375 -2.90625 -1.875 C -2.90625 -2.734375 -1.9375 -2.765625 -1.765625 -2.765625 Z M -1.765625 -0.90625 "/>
</symbol>
<symbol overflow="visible" id="glyph3-8">
<path style="stroke:none;" d="M -1.578125 -1.390625 C -2.171875 -1.390625 -2.875 -1.65625 -2.875 -2.3125 C -2.828125 -2.25 -2.734375 -2.203125 -2.625 -2.203125 C -2.390625 -2.203125 -2.296875 -2.375 -2.296875 -2.515625 C -2.296875 -2.671875 -2.40625 -2.828125 -2.625 -2.828125 C -2.859375 -2.828125 -3.0625 -2.609375 -3.0625 -2.28125 C -3.0625 -1.9375 -2.84375 -1.546875 -2.328125 -1.34375 L -2.328125 -1.328125 L -3.0625 -1.328125 L -2.984375 -0.34375 L -2.734375 -0.34375 C -2.734375 -0.8125 -2.6875 -0.859375 -2.34375 -0.859375 L -0.546875 -0.859375 C -0.25 -0.859375 -0.25 -0.796875 -0.25 -0.34375 L 0 -0.34375 C 0 -0.375 -0.03125 -0.84375 -0.03125 -1.140625 C -0.03125 -1.4375 -0.015625 -1.734375 0 -2.03125 L -0.25 -2.03125 L -0.25 -1.890625 C -0.25 -1.390625 -0.328125 -1.390625 -0.5625 -1.390625 Z M -1.578125 -1.390625 "/>
</symbol>
<symbol overflow="visible" id="glyph3-9">
<path style="stroke:none;" d="M -4.828125 -1.390625 L -4.75 -0.34375 L -4.5 -0.34375 C -4.5 -0.8125 -4.4375 -0.859375 -4.09375 -0.859375 L 0 -0.859375 L 0 -1.09375 L -0.421875 -1.34375 C -0.078125 -1.609375 0.0625 -1.984375 0.0625 -2.359375 C 0.0625 -3.28125 -0.625 -4.0625 -1.5 -4.0625 C -2.34375 -4.0625 -3.0625 -3.34375 -3.0625 -2.4375 C -3.0625 -2.015625 -2.90625 -1.640625 -2.65625 -1.390625 Z M -2.328125 -1.40625 C -2.65625 -1.609375 -2.875 -1.984375 -2.875 -2.40625 C -2.875 -2.78125 -2.65625 -3.0625 -2.4375 -3.203125 C -2.234375 -3.34375 -1.96875 -3.421875 -1.515625 -3.421875 C -1.34375 -3.421875 -0.828125 -3.421875 -0.5 -3.140625 C -0.1875 -2.859375 -0.125 -2.53125 -0.125 -2.328125 C -0.125 -1.765625 -0.5625 -1.484375 -0.703125 -1.40625 Z M -2.328125 -1.40625 "/>
</symbol>
<symbol overflow="visible" id="glyph3-10">
<path style="stroke:none;" d="M -2.109375 -3.578125 C -2.71875 -3.578125 -3.0625 -3.28125 -3.0625 -2.53125 C -3.0625 -1.96875 -2.75 -1.59375 -2.390625 -1.40625 L -2.390625 -1.390625 L -3.0625 -1.390625 L -2.984375 -0.375 L -2.734375 -0.375 C -2.734375 -0.84375 -2.6875 -0.890625 -2.34375 -0.890625 L -0.546875 -0.890625 C -0.25 -0.890625 -0.25 -0.828125 -0.25 -0.375 L 0 -0.375 C 0 -0.390625 -0.03125 -0.875 -0.03125 -1.171875 C -0.03125 -1.421875 0 -1.90625 0 -1.96875 L -0.25 -1.96875 C -0.25 -1.515625 -0.25 -1.453125 -0.546875 -1.453125 L -1.796875 -1.453125 C -2.53125 -1.453125 -2.875 -2.015625 -2.875 -2.484375 C -2.875 -2.96875 -2.484375 -3.03125 -2.140625 -3.03125 L -0.546875 -3.03125 C -0.25 -3.03125 -0.25 -2.96875 -0.25 -2.515625 L 0 -2.515625 C 0 -2.53125 -0.03125 -3.015625 -0.03125 -3.296875 C -0.03125 -3.5625 0 -4.046875 0 -4.109375 L -0.25 -4.109375 C -0.25 -3.65625 -0.25 -3.578125 -0.546875 -3.578125 Z M -2.109375 -3.578125 "/>
</symbol>
<symbol overflow="visible" id="glyph3-11">
<path style="stroke:none;" d="M -4.296875 -1.46875 C -4.484375 -1.46875 -4.6875 -1.296875 -4.6875 -1.0625 C -4.6875 -0.859375 -4.515625 -0.671875 -4.296875 -0.671875 C -4.046875 -0.671875 -3.890625 -0.875 -3.890625 -1.0625 C -3.890625 -1.28125 -4.0625 -1.46875 -4.296875 -1.46875 Z M -2.984375 -0.40625 L -2.734375 -0.40625 C -2.734375 -0.84375 -2.703125 -0.90625 -2.359375 -0.90625 L -0.546875 -0.90625 C -0.25 -0.90625 -0.25 -0.84375 -0.25 -0.390625 L 0 -0.390625 C 0 -0.40625 -0.03125 -0.890625 -0.03125 -1.171875 C -0.03125 -1.40625 -0.015625 -1.65625 0 -1.90625 L -0.25 -1.90625 C -0.25 -1.5 -0.25 -1.4375 -0.546875 -1.4375 L -3.0625 -1.4375 Z M -2.984375 -0.40625 "/>
</symbol>
<symbol overflow="visible" id="glyph3-12">
<path style="stroke:none;" d="M -1.234375 -1 C -1.171875 -1.109375 -1.015625 -1.359375 -1.015625 -1.765625 C -1.015625 -2.46875 -1.5 -3 -2.046875 -3 C -2.3125 -3 -2.53125 -2.875 -2.71875 -2.703125 C -2.9375 -3.015625 -2.9375 -3.28125 -2.9375 -3.40625 C -2.90625 -3.375 -2.890625 -3.34375 -2.78125 -3.34375 C -2.640625 -3.34375 -2.546875 -3.453125 -2.546875 -3.5625 C -2.546875 -3.671875 -2.625 -3.796875 -2.78125 -3.796875 C -2.9375 -3.796875 -3.140625 -3.65625 -3.140625 -3.375 C -3.140625 -3.28125 -3.109375 -2.90625 -2.8125 -2.578125 C -2.96875 -2.359375 -3.0625 -2.078125 -3.0625 -1.765625 C -3.0625 -1.046875 -2.59375 -0.53125 -2.046875 -0.53125 C -1.765625 -0.53125 -1.515625 -0.671875 -1.34375 -0.859375 C -1.28125 -0.8125 -1.046875 -0.65625 -0.78125 -0.65625 C -0.6875 -0.65625 -0.359375 -0.671875 -0.15625 -0.953125 C -0.0625 -0.625 0.171875 -0.265625 0.53125 -0.265625 C 1.046875 -0.265625 1.421875 -1.03125 1.421875 -1.96875 C 1.421875 -2.859375 1.078125 -3.671875 0.515625 -3.671875 C 0.3125 -3.671875 -0.0625 -3.59375 -0.265625 -3.21875 C -0.484375 -2.796875 -0.484375 -2.390625 -0.484375 -1.71875 C -0.484375 -1.5625 -0.484375 -1.3125 -0.5 -1.265625 C -0.546875 -1.03125 -0.75 -0.90625 -0.953125 -0.90625 C -1.125 -0.90625 -1.1875 -0.953125 -1.234375 -1 Z M -1.234375 -1.765625 C -1.234375 -1.078125 -1.890625 -1.078125 -2.046875 -1.078125 C -2.15625 -1.078125 -2.4375 -1.078125 -2.609375 -1.21875 C -2.734375 -1.328125 -2.859375 -1.515625 -2.859375 -1.765625 C -2.859375 -2.4375 -2.1875 -2.4375 -2.046875 -2.4375 C -1.9375 -2.4375 -1.65625 -2.4375 -1.46875 -2.296875 C -1.359375 -2.203125 -1.234375 -2.015625 -1.234375 -1.765625 Z M -0.015625 -1.765625 C -0.015625 -2.390625 -0.015625 -3.25 0.53125 -3.25 C 0.890625 -3.25 1.21875 -2.703125 1.21875 -1.96875 C 1.21875 -1.25 0.890625 -0.703125 0.53125 -0.703125 C 0.28125 -0.703125 -0.015625 -0.921875 -0.015625 -1.359375 Z M -0.015625 -1.765625 "/>
</symbol>
<symbol overflow="visible" id="glyph3-13">
<path style="stroke:none;" d="M -1.484375 -3.671875 C -2.34375 -3.671875 -3.09375 -2.9375 -3.09375 -1.96875 C -3.09375 -1.015625 -2.34375 -0.265625 -1.484375 -0.265625 C -0.625 -0.265625 0.0625 -1.03125 0.0625 -1.96875 C 0.0625 -2.90625 -0.625 -3.671875 -1.484375 -3.671875 Z M -0.15625 -1.96875 C -0.15625 -1.71875 -0.234375 -1.34375 -0.578125 -1.109375 C -0.859375 -0.921875 -1.21875 -0.90625 -1.546875 -0.90625 C -1.84375 -0.90625 -2.25 -0.90625 -2.546875 -1.15625 C -2.75 -1.328125 -2.90625 -1.625 -2.90625 -1.96875 C -2.90625 -2.390625 -2.71875 -2.671875 -2.5 -2.828125 C -2.21875 -3.03125 -1.875 -3.046875 -1.546875 -3.046875 C -1.203125 -3.046875 -0.84375 -3.03125 -0.5625 -2.828125 C -0.296875 -2.640625 -0.15625 -2.3125 -0.15625 -1.96875 Z M -0.15625 -1.96875 "/>
</symbol>
<symbol overflow="visible" id="glyph3-14">
<path style="stroke:none;" d="M -2.3125 -3.296875 C -2.734375 -3.484375 -2.75 -3.84375 -2.75 -3.953125 L -3 -3.953125 C -2.984375 -3.78125 -2.96875 -3.59375 -2.96875 -3.421875 C -2.96875 -3.234375 -2.96875 -2.96875 -3 -2.78125 L -2.75 -2.78125 C -2.734375 -3.078125 -2.5 -3.078125 -2.484375 -3.078125 C -2.453125 -3.078125 -2.375 -3.078125 -2.28125 -3.03125 L -0.5625 -2.234375 L -2.453125 -1.375 C -2.46875 -1.375 -2.53125 -1.328125 -2.59375 -1.328125 C -2.75 -1.328125 -2.75 -1.578125 -2.75 -1.6875 L -3 -1.6875 C -3 -1.671875 -2.96875 -1.1875 -2.96875 -0.890625 C -2.96875 -0.6875 -2.96875 -0.421875 -3 -0.21875 L -2.75 -0.21875 C -2.75 -0.59375 -2.734375 -0.6875 -2.5 -0.78125 L -0.078125 -1.890625 C 0 -1.921875 0.0625 -1.953125 0.0625 -2.078125 C 0.0625 -2.21875 0 -2.234375 -0.0625 -2.28125 Z M -2.3125 -3.296875 "/>
</symbol>
<symbol overflow="visible" id="glyph3-15">
<path style="stroke:none;" d="M -1.265625 -2.1875 L -1.734375 -2.1875 L -1.734375 -0.140625 L -1.265625 -0.140625 Z M -1.265625 -2.1875 "/>
</symbol>
<symbol overflow="visible" id="glyph3-16">
<path style="stroke:none;" d="M -2.75 -1.4375 L -2.75 -2.296875 L -3 -2.296875 L -3 -1.40625 L -3.78125 -1.40625 C -4.40625 -1.40625 -4.703125 -1.78125 -4.703125 -2.078125 C -4.703125 -2.140625 -4.6875 -2.21875 -4.671875 -2.28125 C -4.609375 -2.1875 -4.5 -2.125 -4.390625 -2.125 C -4.203125 -2.125 -4.0625 -2.265625 -4.0625 -2.453125 C -4.0625 -2.640625 -4.203125 -2.765625 -4.390625 -2.765625 C -4.6875 -2.765625 -4.890625 -2.46875 -4.890625 -2.09375 C -4.890625 -1.53125 -4.5 -0.90625 -3.78125 -0.90625 L -3 -0.90625 L -3 -0.3125 L -2.75 -0.3125 L -2.75 -0.90625 L -0.546875 -0.90625 C -0.25 -0.90625 -0.25 -0.84375 -0.25 -0.390625 L 0 -0.390625 C 0 -0.421875 -0.03125 -0.890625 -0.03125 -1.1875 C -0.03125 -1.484375 -0.015625 -1.78125 0 -2.09375 L -0.25 -2.09375 L -0.25 -1.953125 C -0.25 -1.4375 -0.328125 -1.4375 -0.5625 -1.4375 Z M -2.75 -1.4375 "/>
</symbol>
<symbol overflow="visible" id="glyph3-17">
<path style="stroke:none;" d="M -4.828125 -1.4375 L -4.75 -0.390625 L -4.5 -0.390625 C -4.5 -0.859375 -4.453125 -0.90625 -4.109375 -0.90625 L -0.546875 -0.90625 C -0.25 -0.90625 -0.25 -0.84375 -0.25 -0.390625 L 0 -0.390625 C 0 -0.40625 -0.03125 -0.890625 -0.03125 -1.171875 C -0.03125 -1.4375 -0.015625 -1.6875 0 -1.953125 L -0.25 -1.953125 C -0.25 -1.5 -0.25 -1.4375 -0.546875 -1.4375 Z M -4.828125 -1.4375 "/>
</symbol>
<symbol overflow="visible" id="glyph4-0">
<path style="stroke:none;" d=""/>
</symbol>
<symbol overflow="visible" id="glyph4-1">
<path style="stroke:none;" d="M 2.984375 -1.5 C 2.984375 -2.046875 2.609375 -2.203125 2.140625 -2.203125 C 1.609375 -2.203125 1.34375 -1.90625 1.21875 -1.703125 L 1.21875 -2.203125 L 0.40625 -2.140625 L 0.40625 -1.921875 C 0.78125 -1.921875 0.8125 -1.890625 0.8125 -1.640625 L 0.8125 -0.421875 C 0.8125 -0.265625 0.8125 -0.21875 0.5 -0.21875 L 0.40625 -0.21875 L 0.40625 0 C 0.625 -0.015625 0.828125 -0.015625 1.046875 -0.015625 C 1.25 -0.015625 1.46875 -0.015625 1.671875 0 L 1.671875 -0.21875 L 1.578125 -0.21875 C 1.265625 -0.21875 1.265625 -0.265625 1.265625 -0.421875 L 1.265625 -1.28125 C 1.265625 -1.84375 1.78125 -2.03125 2.09375 -2.03125 C 2.453125 -2.03125 2.53125 -1.828125 2.53125 -1.5 L 2.53125 -0.421875 C 2.53125 -0.265625 2.53125 -0.21875 2.21875 -0.21875 L 2.125 -0.21875 L 2.125 0 C 2.34375 -0.015625 2.546875 -0.015625 2.765625 -0.015625 C 2.96875 -0.015625 3.1875 -0.015625 3.390625 0 L 3.390625 -0.21875 L 3.296875 -0.21875 C 2.984375 -0.21875 2.984375 -0.265625 2.984375 -0.421875 Z M 2.984375 -1.5 "/>
</symbol>
<symbol overflow="visible" id="glyph4-2">
<path style="stroke:none;" d="M 3.0625 -1.0625 C 3.0625 -1.671875 2.46875 -2.21875 1.6875 -2.21875 C 0.90625 -2.21875 0.328125 -1.671875 0.328125 -1.0625 C 0.328125 -0.46875 0.921875 0.046875 1.6875 0.046875 C 2.46875 0.046875 3.0625 -0.46875 3.0625 -1.0625 Z M 1.6875 -0.125 C 0.8125 -0.125 0.8125 -0.859375 0.8125 -1.109375 C 0.8125 -1.328125 0.8125 -2.0625 1.6875 -2.0625 C 2.5625 -2.0625 2.5625 -1.328125 2.5625 -1.109375 C 2.5625 -0.859375 2.5625 -0.125 1.6875 -0.125 Z M 1.6875 -0.125 "/>
</symbol>
<symbol overflow="visible" id="glyph4-3">
<path style="stroke:none;" d="M 2.09375 -3.390625 L 2.09375 -3.171875 C 2.46875 -3.171875 2.515625 -3.140625 2.515625 -2.890625 L 2.515625 -1.921875 C 2.40625 -2.015625 2.125 -2.203125 1.71875 -2.203125 C 0.96875 -2.203125 0.359375 -1.6875 0.359375 -1.0625 C 0.359375 -0.46875 0.921875 0.046875 1.65625 0.046875 C 2.0625 0.046875 2.34375 -0.125 2.484375 -0.25 L 2.484375 0.046875 L 3.34375 0 L 3.34375 -0.21875 C 2.96875 -0.21875 2.9375 -0.25 2.9375 -0.5 L 2.9375 -3.453125 Z M 2.484375 -0.546875 C 2.25 -0.171875 1.890625 -0.109375 1.6875 -0.109375 C 1.4375 -0.109375 1.1875 -0.203125 1.03125 -0.421875 C 0.875 -0.625 0.859375 -0.921875 0.859375 -1.0625 C 0.859375 -1.203125 0.859375 -1.53125 1.078125 -1.765625 C 1.25 -1.9375 1.515625 -2.03125 1.75 -2.03125 C 1.890625 -2.03125 2.25 -2 2.484375 -1.671875 Z M 2.484375 -0.546875 "/>
</symbol>
<symbol overflow="visible" id="glyph4-4">
<path style="stroke:none;" d="M 2.5625 -1.125 C 2.671875 -1.125 2.71875 -1.125 2.71875 -1.234375 C 2.71875 -1.5625 2.53125 -2.21875 1.609375 -2.21875 C 0.859375 -2.21875 0.328125 -1.6875 0.328125 -1.09375 C 0.328125 -0.46875 0.921875 0.046875 1.6875 0.046875 C 2.46875 0.046875 2.71875 -0.5 2.71875 -0.59375 C 2.71875 -0.671875 2.640625 -0.671875 2.609375 -0.671875 C 2.53125 -0.671875 2.53125 -0.65625 2.5 -0.59375 C 2.359375 -0.25 2 -0.125 1.71875 -0.125 C 1.3125 -0.125 1.09375 -0.34375 1.015625 -0.4375 C 0.8125 -0.671875 0.8125 -0.984375 0.8125 -1.125 Z M 0.828125 -1.265625 C 0.890625 -1.921875 1.375 -2.0625 1.609375 -2.0625 C 2.296875 -2.0625 2.328125 -1.421875 2.328125 -1.265625 Z M 0.828125 -1.265625 "/>
</symbol>
<symbol overflow="visible" id="glyph4-5">
<path style="stroke:none;" d="M 1.25 -1.921875 L 1.953125 -1.921875 L 1.953125 -2.140625 L 1.234375 -2.140625 L 1.234375 -2.671875 C 1.234375 -3.140625 1.546875 -3.34375 1.765625 -3.34375 C 1.796875 -3.34375 1.90625 -3.328125 1.90625 -3.3125 L 1.890625 -3.296875 C 1.859375 -3.28125 1.8125 -3.21875 1.8125 -3.109375 C 1.8125 -2.96875 1.90625 -2.859375 2.0625 -2.859375 C 2.234375 -2.859375 2.328125 -2.96875 2.328125 -3.109375 C 2.328125 -3.328125 2.109375 -3.5 1.78125 -3.5 C 1.34375 -3.5 0.828125 -3.21875 0.828125 -2.6875 L 0.828125 -2.140625 L 0.34375 -2.140625 L 0.34375 -1.921875 L 0.828125 -1.921875 L 0.828125 -0.421875 C 0.828125 -0.265625 0.828125 -0.21875 0.5 -0.21875 L 0.421875 -0.21875 L 0.421875 0 C 0.625 -0.015625 0.84375 -0.015625 1.0625 -0.015625 C 1.3125 -0.015625 1.5625 -0.015625 1.765625 0 L 1.765625 -0.21875 L 1.640625 -0.21875 C 1.25 -0.21875 1.25 -0.265625 1.25 -0.421875 Z M 1.25 -1.921875 "/>
</symbol>
<symbol overflow="visible" id="glyph4-6">
<path style="stroke:none;" d="M 2.234375 -2 C 2.15625 -1.953125 2.125 -1.875 2.125 -1.78125 C 2.125 -1.625 2.25 -1.515625 2.390625 -1.515625 C 2.5 -1.515625 2.640625 -1.59375 2.640625 -1.78125 C 2.640625 -2.21875 2.09375 -2.21875 1.75 -2.21875 C 0.78125 -2.21875 0.359375 -1.5625 0.359375 -1.078125 C 0.359375 -0.453125 0.9375 0.046875 1.6875 0.046875 C 2.546875 0.046875 2.71875 -0.546875 2.71875 -0.59375 C 2.71875 -0.671875 2.640625 -0.671875 2.609375 -0.671875 C 2.53125 -0.671875 2.53125 -0.65625 2.5 -0.59375 C 2.328125 -0.171875 1.96875 -0.125 1.75 -0.125 C 1.328125 -0.125 0.859375 -0.40625 0.859375 -1.078125 C 0.859375 -1.296875 0.90625 -1.5625 1.078125 -1.78125 C 1.328125 -2.046875 1.609375 -2.046875 1.765625 -2.046875 C 1.921875 -2.046875 2.0625 -2.046875 2.234375 -2 Z M 2.234375 -2 "/>
</symbol>
<symbol overflow="visible" id="glyph4-7">
<path style="stroke:none;" d="M 2.125 -2.140625 L 2.125 -1.921875 C 2.5 -1.921875 2.53125 -1.890625 2.53125 -1.640625 L 2.53125 -0.828125 C 2.53125 -0.375 2.203125 -0.109375 1.78125 -0.109375 C 1.28125 -0.109375 1.265625 -0.3125 1.265625 -0.5625 L 1.265625 -2.203125 L 0.40625 -2.140625 L 0.40625 -1.921875 C 0.796875 -1.921875 0.8125 -1.890625 0.8125 -1.625 L 0.8125 -0.546875 C 0.859375 0.015625 1.421875 0.046875 1.75 0.046875 C 2.171875 0.046875 2.40625 -0.140625 2.5625 -0.375 L 2.5625 0.046875 L 3.390625 0 L 3.390625 -0.21875 C 3.03125 -0.21875 2.984375 -0.25 2.984375 -0.5 L 2.984375 -2.203125 Z M 2.125 -2.140625 "/>
</symbol>
<symbol overflow="visible" id="glyph4-8">
<path style="stroke:none;" d="M 1.25 -3.0625 C 1.25 -3.21875 1.125 -3.359375 0.953125 -3.359375 C 0.796875 -3.359375 0.65625 -3.25 0.65625 -3.0625 C 0.65625 -2.875 0.796875 -2.75 0.953125 -2.75 C 1.125 -2.75 1.25 -2.890625 1.25 -3.0625 Z M 0.4375 -2.140625 L 0.4375 -1.921875 C 0.78125 -1.921875 0.828125 -1.890625 0.828125 -1.640625 L 0.828125 -0.421875 C 0.828125 -0.265625 0.828125 -0.21875 0.5 -0.21875 L 0.40625 -0.21875 L 0.40625 0 C 0.609375 -0.015625 0.828125 -0.015625 1.03125 -0.015625 C 1.21875 -0.015625 1.4375 -0.015625 1.625 0 L 1.625 -0.21875 C 1.28125 -0.21875 1.25 -0.21875 1.25 -0.421875 L 1.25 -2.203125 Z M 0.4375 -2.140625 "/>
</symbol>
<symbol overflow="visible" id="glyph4-9">
<path style="stroke:none;" d="M 1.21875 -1.921875 L 2.109375 -1.921875 L 2.109375 -2.140625 L 1.21875 -2.140625 L 1.21875 -3.0625 L 1.015625 -3.0625 C 1.015625 -2.59375 0.765625 -2.109375 0.25 -2.09375 L 0.25 -1.921875 L 0.78125 -1.921875 L 0.78125 -0.625 C 0.78125 -0.0625 1.25 0.046875 1.5625 0.046875 C 1.921875 0.046875 2.203125 -0.21875 2.203125 -0.625 L 2.203125 -0.90625 L 2 -0.90625 L 2 -0.640625 C 2 -0.265625 1.78125 -0.125 1.609375 -0.125 C 1.21875 -0.125 1.21875 -0.515625 1.21875 -0.625 Z M 1.21875 -1.921875 "/>
</symbol>
<symbol overflow="visible" id="glyph4-10">
<path style="stroke:none;" d="M 2.59375 -1.46875 C 2.59375 -1.953125 2.09375 -2.21875 1.484375 -2.21875 C 1.171875 -2.21875 0.59375 -2.21875 0.59375 -1.78125 C 0.59375 -1.609375 0.734375 -1.515625 0.859375 -1.515625 C 1 -1.515625 1.125 -1.609375 1.125 -1.78125 C 1.125 -1.90625 1.0625 -1.984375 1.015625 -2 C 1.171875 -2.0625 1.421875 -2.0625 1.46875 -2.0625 C 1.890625 -2.0625 2.15625 -1.828125 2.15625 -1.46875 L 2.15625 -1.34375 C 1.671875 -1.3125 1.40625 -1.296875 1.03125 -1.171875 C 0.703125 -1.046875 0.40625 -0.84375 0.40625 -0.515625 C 0.40625 -0.046875 0.984375 0.046875 1.375 0.046875 C 1.765625 0.046875 2.0625 -0.09375 2.21875 -0.359375 C 2.234375 -0.171875 2.34375 0.03125 2.609375 0.03125 C 2.640625 0.03125 3.203125 0.03125 3.203125 -0.453125 L 3.203125 -0.71875 L 3 -0.71875 L 3 -0.453125 C 3 -0.40625 3 -0.1875 2.796875 -0.1875 C 2.59375 -0.1875 2.59375 -0.40625 2.59375 -0.453125 Z M 2.15625 -0.703125 C 2.15625 -0.15625 1.5625 -0.109375 1.4375 -0.109375 C 1.140625 -0.109375 0.859375 -0.265625 0.859375 -0.515625 C 0.859375 -0.6875 0.96875 -1.140625 2.15625 -1.1875 Z M 2.15625 -0.703125 "/>
</symbol>
<symbol overflow="visible" id="glyph4-11">
<path style="stroke:none;" d="M 1.25 -3.453125 L 0.40625 -3.390625 L 0.40625 -3.171875 C 0.78125 -3.171875 0.828125 -3.140625 0.828125 -2.890625 L 0.828125 -0.421875 C 0.828125 -0.265625 0.828125 -0.21875 0.5 -0.21875 L 0.40625 -0.21875 L 0.40625 0 C 0.625 -0.015625 0.828125 -0.015625 1.03125 -0.015625 C 1.234375 -0.015625 1.453125 -0.015625 1.65625 0 L 1.65625 -0.21875 L 1.5625 -0.21875 C 1.25 -0.21875 1.25 -0.265625 1.25 -0.421875 Z M 1.25 -3.453125 "/>
</symbol>
<symbol overflow="visible" id="glyph4-12">
<path style="stroke:none;" d="M 1.21875 -1.109375 C 1.21875 -1.578125 1.46875 -2.015625 1.953125 -2.03125 C 1.9375 -2.03125 1.875 -1.96875 1.875 -1.859375 C 1.875 -1.671875 2.015625 -1.59375 2.125 -1.59375 C 2.25 -1.59375 2.375 -1.6875 2.375 -1.859375 C 2.375 -2.046875 2.203125 -2.203125 1.9375 -2.203125 C 1.6875 -2.203125 1.375 -2.0625 1.171875 -1.65625 L 1.171875 -2.203125 L 0.375 -2.140625 L 0.375 -1.921875 C 0.75 -1.921875 0.796875 -1.890625 0.796875 -1.640625 L 0.796875 -0.421875 C 0.796875 -0.265625 0.796875 -0.21875 0.46875 -0.21875 L 0.375 -0.21875 L 0.375 0 C 0.59375 -0.015625 0.8125 -0.015625 1.015625 -0.015625 C 1.28125 -0.015625 1.515625 -0.015625 1.734375 0 L 1.734375 -0.21875 L 1.59375 -0.21875 C 1.21875 -0.21875 1.21875 -0.265625 1.21875 -0.421875 Z M 1.21875 -1.109375 "/>
</symbol>
<symbol overflow="visible" id="glyph4-13">
<path style="stroke:none;" d="M 2.28125 -1.9375 C 2.53125 -2.078125 2.75 -2.078125 2.828125 -2.09375 C 2.8125 -2.0625 2.78125 -2.03125 2.78125 -1.96875 C 2.78125 -1.875 2.859375 -1.78125 2.96875 -1.78125 C 3.09375 -1.78125 3.15625 -1.875 3.15625 -1.96875 C 3.15625 -2.09375 3.046875 -2.25 2.8125 -2.25 C 2.6875 -2.25 2.421875 -2.21875 2.171875 -2.015625 C 2.046875 -2.09375 1.828125 -2.203125 1.515625 -2.203125 C 0.9375 -2.203125 0.53125 -1.84375 0.53125 -1.46875 C 0.53125 -1.21875 0.703125 -1.03125 0.78125 -0.96875 C 0.671875 -0.828125 0.640625 -0.671875 0.640625 -0.5625 C 0.640625 -0.296875 0.8125 -0.140625 0.84375 -0.109375 C 0.59375 -0.046875 0.3125 0.125 0.3125 0.375 C 0.3125 0.78125 0.96875 1.03125 1.6875 1.03125 C 2.359375 1.03125 3.0625 0.8125 3.0625 0.375 C 3.0625 0.15625 2.9375 -0.09375 2.6875 -0.203125 C 2.359375 -0.375 2.046875 -0.375 1.515625 -0.375 C 1.390625 -0.375 1.171875 -0.375 1.140625 -0.375 C 0.90625 -0.40625 0.84375 -0.609375 0.84375 -0.703125 C 0.84375 -0.796875 0.90625 -0.875 0.921875 -0.875 C 0.921875 -0.875 0.9375 -0.875 0.953125 -0.875 C 1.140625 -0.765625 1.34375 -0.734375 1.515625 -0.734375 C 2.109375 -0.734375 2.515625 -1.078125 2.515625 -1.46875 C 2.515625 -1.703125 2.34375 -1.875 2.28125 -1.9375 Z M 1.515625 -0.90625 C 1.078125 -0.90625 0.96875 -1.1875 0.96875 -1.46875 C 0.96875 -1.734375 1.078125 -2.03125 1.515625 -2.03125 C 1.953125 -2.03125 2.078125 -1.75 2.078125 -1.46875 C 2.078125 -1.1875 1.953125 -0.90625 1.515625 -0.90625 Z M 1.53125 0.015625 C 2.015625 0.015625 2.71875 0.015625 2.71875 0.375 C 2.71875 0.625 2.28125 0.859375 1.6875 0.859375 C 1.125 0.859375 0.65625 0.640625 0.65625 0.375 C 0.65625 0.21875 0.828125 0.015625 1.203125 0.015625 Z M 1.53125 0.015625 "/>
</symbol>
<symbol overflow="visible" id="glyph4-14">
<path style="stroke:none;" d="M 1.859375 -0.875 L 1.859375 -1.265625 L 0.203125 -1.265625 L 0.203125 -0.875 Z M 1.859375 -0.875 "/>
</symbol>
</g>
<clipPath id="clip1">
  <path d="M 39 78 L 166 78 L 166 172.609375 L 39 172.609375 Z M 39 78 "/>
</clipPath>
<clipPath id="clip2">
  <path d="M 38 78 L 166 78 L 166 172.609375 L 38 172.609375 Z M 38 78 "/>
</clipPath>
<clipPath id="clip3">
  <path d="M 45 24 L 172 24 L 172 172.609375 L 45 172.609375 Z M 45 24 "/>
</clipPath>
<clipPath id="clip4">
  <path d="M 44 24 L 172 24 L 172 172.609375 L 44 172.609375 Z M 44 24 "/>
</clipPath>
<clipPath id="clip5">
  <path d="M 50 24 L 178 24 L 178 172.609375 L 50 172.609375 Z M 50 24 "/>
</clipPath>
<clipPath id="clip6">
  <path d="M 219 19 L 346 19 L 346 172.609375 L 219 172.609375 Z M 219 19 "/>
</clipPath>
<clipPath id="clip7">
  <path d="M 218 19 L 347 19 L 347 172.609375 L 218 172.609375 Z M 218 19 "/>
</clipPath>
<clipPath id="clip8">
  <path d="M 225 141 L 352 141 L 352 172.609375 L 225 172.609375 Z M 225 141 "/>
</clipPath>
<clipPath id="clip9">
  <path d="M 224 141 L 353 141 L 353 172.609375 L 224 172.609375 Z M 224 141 "/>
</clipPath>
</defs>
<g id="surface1">
<path style="fill:none;stroke-width:0.3985;stroke-linecap:butt;stroke-linejoin:miter;stroke:rgb(87.5%,87.5%,87.5%);stroke-opacity:1;stroke-miterlimit:10;" d="M -12.304807 -0.0012239 L 135.345522 -0.0012239 M -12.304807 32.278811 L 135.345522 32.278811 M -12.304807 64.558846 L 135.345522 64.558846 M -12.304807 96.838882 L 135.345522 96.838882 M -12.304807 129.118917 L 135.345522 129.118917 M -12.304807 161.398952 L 135.345522 161.398952 " transform="matrix(0.997738,0,0,-0.997738,47.007448,172.608154)"/>
<path style="fill:none;stroke-width:0.19925;stroke-linecap:butt;stroke-linejoin:miter;stroke:rgb(50%,50%,50%);stroke-opacity:1;stroke-miterlimit:10;" d="M 0.000365425 -4.253027 L 0.000365425 -0.0012239 M 41.014998 -4.253027 L 41.014998 -0.0012239 M 82.025716 -4.253027 L 82.025716 -0.0012239 M 123.040349 -4.253027 L 123.040349 -0.0012239 M 0.000365425 165.650755 L 0.000365425 161.398952 M 41.014998 165.650755 L 41.014998 161.398952 M 82.025716 165.650755 L 82.025716 161.398952 M 123.040349 165.650755 L 123.040349 161.398952 " transform="matrix(0.997738,0,0,-0.997738,47.007448,172.608154)"/>
<path style="fill:none;stroke-width:0.19925;stroke-linecap:butt;stroke-linejoin:miter;stroke:rgb(50%,50%,50%);stroke-opacity:1;stroke-miterlimit:10;" d="M -12.304807 -0.0012239 L -8.053004 -0.0012239 M -12.304807 32.278811 L -8.053004 32.278811 M -12.304807 64.558846 L -8.053004 64.558846 M -12.304807 96.838882 L -8.053004 96.838882 M -12.304807 129.118917 L -8.053004 129.118917 M -12.304807 161.398952 L -8.053004 161.398952 M 135.345522 -0.0012239 L 131.093719 -0.0012239 M 135.345522 32.278811 L 131.093719 32.278811 M 135.345522 64.558846 L 131.093719 64.558846 M 135.345522 96.838882 L 131.093719 96.838882 M 135.345522 129.118917 L 131.093719 129.118917 M 135.345522 161.398952 L 131.093719 161.398952 " transform="matrix(0.997738,0,0,-0.997738,47.007448,172.608154)"/>
<path style="fill:none;stroke-width:0.3985;stroke-linecap:butt;stroke-linejoin:miter;stroke:rgb(69.999695%,69.999695%,69.999695%);stroke-opacity:1;stroke-miterlimit:10;" d="M -12.304807 -0.0012239 L -12.304807 161.398952 L 135.345522 161.398952 L 135.345522 -0.0012239 Z M -12.304807 -0.0012239 " transform="matrix(0.997738,0,0,-0.997738,47.007448,172.608154)"/>
<g style="fill:rgb(0%,0%,0%);fill-opacity:1;">
  <use xlink:href="#glyph0-1" x="15.86005" y="205.192295"/>
  <use xlink:href="#glyph0-2" x="19.794457" y="201.890904"/>
  <use xlink:href="#glyph0-3" x="22.121065" y="199.93863"/>
  <use xlink:href="#glyph0-3" x="26.298374" y="196.433418"/>
  <use xlink:href="#glyph0-4" x="30.475683" y="192.928206"/>
  <use xlink:href="#glyph0-5" x="33.066894" y="190.753901"/>
  <use xlink:href="#glyph0-6" x="34.864676" y="189.245369"/>
  <use xlink:href="#glyph0-5" x="37.455887" y="187.071064"/>
  <use xlink:href="#glyph0-6" x="39.253668" y="185.562532"/>
  <use xlink:href="#glyph0-7" x="41.844879" y="183.388227"/>
</g>
<g style="fill:rgb(0%,0%,0%);fill-opacity:1;">
  <use xlink:href="#glyph0-8" x="55.830449" y="206.036382"/>
  <use xlink:href="#glyph0-9" x="58.992747" y="203.382874"/>
  <use xlink:href="#glyph0-4" x="60.526305" y="202.096053"/>
  <use xlink:href="#glyph0-3" x="63.117516" y="199.921748"/>
  <use xlink:href="#glyph0-4" x="67.294825" y="196.416536"/>
  <use xlink:href="#glyph0-5" x="69.886036" y="194.242231"/>
  <use xlink:href="#glyph0-10" x="71.683818" y="192.733699"/>
  <use xlink:href="#glyph0-11" x="74.275029" y="190.559394"/>
  <use xlink:href="#glyph0-6" x="75.808587" y="189.272574"/>
  <use xlink:href="#glyph0-5" x="78.399798" y="187.098269"/>
  <use xlink:href="#glyph0-12" x="80.197579" y="185.589737"/>
  <use xlink:href="#glyph0-7" x="82.78879" y="183.415432"/>
</g>
<g style="fill:rgb(0%,0%,0%);fill-opacity:1;">
  <use xlink:href="#glyph0-13" x="95.533454" y="206.379604"/>
  <use xlink:href="#glyph0-14" x="99.44654" y="203.096103"/>
</g>
<g style="fill:rgb(0%,0%,0%);fill-opacity:1;">
  <use xlink:href="#glyph0-2" x="102.96177" y="200.146447"/>
  <use xlink:href="#glyph0-15" x="105.288377" y="198.194173"/>
  <use xlink:href="#glyph0-6" x="108.143811" y="195.798157"/>
  <use xlink:href="#glyph0-11" x="110.735022" y="193.623852"/>
  <use xlink:href="#glyph0-16" x="112.26858" y="192.337032"/>
  <use xlink:href="#glyph0-5" x="114.859791" y="190.162727"/>
  <use xlink:href="#glyph0-12" x="116.657573" y="188.654195"/>
  <use xlink:href="#glyph0-11" x="119.248784" y="186.47989"/>
  <use xlink:href="#glyph0-16" x="120.782342" y="185.193069"/>
  <use xlink:href="#glyph0-7" x="123.373553" y="183.018764"/>
</g>
<g style="fill:rgb(0%,0%,0%);fill-opacity:1;">
  <use xlink:href="#glyph0-17" x="134.677725" y="208.547689"/>
  <use xlink:href="#glyph0-3" x="137.533159" y="206.151673"/>
  <use xlink:href="#glyph0-18" x="141.710468" y="202.646461"/>
  <use xlink:href="#glyph0-9" x="144.301679" y="200.472156"/>
  <use xlink:href="#glyph0-8" x="145.835238" y="199.185336"/>
  <use xlink:href="#glyph0-19" x="148.997536" y="196.531827"/>
  <use xlink:href="#glyph0-6" x="153.523969" y="192.733662"/>
  <use xlink:href="#glyph0-5" x="156.11518" y="190.559357"/>
  <use xlink:href="#glyph0-12" x="157.912961" y="189.050826"/>
  <use xlink:href="#glyph0-11" x="160.504173" y="186.876521"/>
  <use xlink:href="#glyph0-20" x="162.037731" y="185.5897"/>
  <use xlink:href="#glyph0-7" x="164.628942" y="183.415395"/>
</g>
<g style="fill:rgb(0%,0%,0%);fill-opacity:1;">
  <use xlink:href="#glyph1-1" x="27.257216" y="174.850072"/>
</g>
<g style="fill:rgb(0%,0%,0%);fill-opacity:1;">
  <use xlink:href="#glyph1-1" x="20.93355" y="142.644074"/>
</g>
<g style="fill:rgb(0%,0%,0%);fill-opacity:1;">
  <use xlink:href="#glyph2-1" x="24.896567" y="142.644074"/>
</g>
<g style="fill:rgb(0%,0%,0%);fill-opacity:1;">
  <use xlink:href="#glyph1-2" x="27.257216" y="142.644074"/>
</g>
<g style="fill:rgb(0%,0%,0%);fill-opacity:1;">
  <use xlink:href="#glyph1-1" x="20.93355" y="110.438075"/>
</g>
<g style="fill:rgb(0%,0%,0%);fill-opacity:1;">
  <use xlink:href="#glyph2-1" x="24.896567" y="110.438075"/>
</g>
<g style="fill:rgb(0%,0%,0%);fill-opacity:1;">
  <use xlink:href="#glyph1-3" x="27.257216" y="110.438075"/>
</g>
<g style="fill:rgb(0%,0%,0%);fill-opacity:1;">
  <use xlink:href="#glyph1-1" x="20.93355" y="78.232077"/>
</g>
<g style="fill:rgb(0%,0%,0%);fill-opacity:1;">
  <use xlink:href="#glyph2-1" x="24.896567" y="78.232077"/>
</g>
<g style="fill:rgb(0%,0%,0%);fill-opacity:1;">
  <use xlink:href="#glyph1-4" x="27.257216" y="78.232077"/>
</g>
<g style="fill:rgb(0%,0%,0%);fill-opacity:1;">
  <use xlink:href="#glyph1-1" x="20.93355" y="46.025081"/>
</g>
<g style="fill:rgb(0%,0%,0%);fill-opacity:1;">
  <use xlink:href="#glyph2-1" x="24.895569" y="46.025081"/>
</g>
<g style="fill:rgb(0%,0%,0%);fill-opacity:1;">
  <use xlink:href="#glyph1-5" x="27.257216" y="46.025081"/>
</g>
<g style="fill:rgb(0%,0%,0%);fill-opacity:1;">
  <use xlink:href="#glyph1-6" x="27.257216" y="13.819082"/>
</g>
<g clip-path="url(#clip1)" clip-rule="nonzero">
<path style=" stroke:none;fill-rule:nonzero;fill:rgb(77.49939%,77.49939%,77.49939%);fill-opacity:1;" d="M 39.054688 172.609375 L 43.03125 172.609375 L 43.03125 92.089844 L 39.054688 92.089844 Z M 79.976562 172.609375 L 83.953125 172.609375 L 83.953125 132.351562 L 79.976562 132.351562 Z M 120.898438 172.609375 L 124.871094 172.609375 L 124.871094 118.984375 L 120.898438 118.984375 Z M 161.816406 172.609375 L 165.792969 172.609375 L 165.792969 78.726562 L 161.816406 78.726562 Z M 161.816406 172.609375 "/>
</g>
<g clip-path="url(#clip2)" clip-rule="nonzero">
<path style="fill:none;stroke-width:0.3985;stroke-linecap:butt;stroke-linejoin:miter;stroke:rgb(69.999695%,69.999695%,69.999695%);stroke-opacity:1;stroke-miterlimit:10;" d="M -7.970787 -0.0012239 L -3.985211 -0.0012239 L -3.985211 80.700822 L -7.970787 80.700822 Z M 33.043846 -0.0012239 L 37.029422 -0.0012239 L 37.029422 40.347841 L 33.043846 40.347841 Z M 74.058479 -0.0012239 L 78.04014 -0.0012239 L 78.04014 53.745328 L 74.058479 53.745328 Z M 115.069197 -0.0012239 L 119.054773 -0.0012239 L 119.054773 94.094393 L 115.069197 94.094393 Z M 115.069197 -0.0012239 " transform="matrix(0.997738,0,0,-0.997738,47.007448,172.608154)"/>
</g>
<g clip-path="url(#clip3)" clip-rule="nonzero">
<path style=" stroke:none;fill-rule:nonzero;fill:rgb(100%,72.499084%,44.999695%);fill-opacity:1;" d="M 45.019531 172.609375 L 48.996094 172.609375 L 48.996094 132.351562 L 45.019531 132.351562 Z M 85.941406 172.609375 L 89.917969 172.609375 L 89.917969 159.242188 L 85.941406 159.242188 Z M 126.859375 172.609375 L 130.835938 172.609375 L 130.835938 132.351562 L 126.859375 132.351562 Z M 167.78125 172.609375 L 171.757812 172.609375 L 171.757812 24.941406 L 167.78125 24.941406 Z M 167.78125 172.609375 "/>
</g>
<g clip-path="url(#clip4)" clip-rule="nonzero">
<path style="fill:none;stroke-width:0.3985;stroke-linecap:butt;stroke-linejoin:miter;stroke:rgb(69.999695%,34.999084%,0%);stroke-opacity:1;stroke-miterlimit:10;" d="M -1.992423 -0.0012239 L 1.993154 -0.0012239 L 1.993154 40.347841 L -1.992423 40.347841 Z M 39.02221 -0.0012239 L 43.007786 -0.0012239 L 43.007786 13.396263 L 39.02221 13.396263 Z M 80.032928 -0.0012239 L 84.018504 -0.0012239 L 84.018504 40.347841 L 80.032928 40.347841 Z M 121.047561 -0.0012239 L 125.033137 -0.0012239 L 125.033137 148.001465 L 121.047561 148.001465 Z M 121.047561 -0.0012239 " transform="matrix(0.997738,0,0,-0.997738,47.007448,172.608154)"/>
</g>
<g clip-path="url(#clip5)" clip-rule="nonzero">
<path style="fill-rule:nonzero;fill:rgb(44.999695%,44.999695%,100%);fill-opacity:1;stroke-width:0.3985;stroke-linecap:butt;stroke-linejoin:miter;stroke:rgb(0%,0%,69.999695%);stroke-opacity:1;stroke-miterlimit:10;" d="M 3.985942 -0.0012239 L 7.971518 -0.0012239 L 7.971518 40.347841 L 3.985942 40.347841 Z M 44.996659 -0.0012239 L 48.982236 -0.0012239 L 48.982236 13.396263 L 44.996659 13.396263 Z M 86.011292 -0.0012239 L 89.996869 -0.0012239 L 89.996869 53.745328 L 86.011292 53.745328 Z M 127.025925 -0.0012239 L 131.011501 -0.0012239 L 131.011501 148.001465 L 127.025925 148.001465 Z M 127.025925 -0.0012239 " transform="matrix(0.997738,0,0,-0.997738,47.007448,172.608154)"/>
</g>
<g style="fill:rgb(0%,0%,0%);fill-opacity:1;">
  <use xlink:href="#glyph3-1" x="14.109019" y="124.662832"/>
  <use xlink:href="#glyph3-2" x="14.109019" y="120.700235"/>
  <use xlink:href="#glyph3-2" x="14.109019" y="117.594171"/>
  <use xlink:href="#glyph3-1" x="14.109019" y="114.488107"/>
  <use xlink:href="#glyph3-3" x="14.109019" y="110.52551"/>
</g>
<g style="fill:rgb(0%,0%,0%);fill-opacity:1;">
  <use xlink:href="#glyph3-4" x="14.109019" y="107.207227"/>
</g>
<g style="fill:rgb(0%,0%,0%);fill-opacity:1;">
  <use xlink:href="#glyph3-5" x="14.109019" y="100.352177"/>
  <use xlink:href="#glyph3-6" x="14.109019" y="97.202974"/>
  <use xlink:href="#glyph3-3" x="14.109019" y="92.812458"/>
  <use xlink:href="#glyph3-3" x="14.109019" y="89.278475"/>
  <use xlink:href="#glyph3-7" x="14.109019" y="85.744493"/>
  <use xlink:href="#glyph3-5" x="14.109019" y="82.21051"/>
  <use xlink:href="#glyph3-5" x="14.109019" y="79.061307"/>
</g>
<g style="fill:rgb(0%,0%,0%);fill-opacity:1;">
  <use xlink:href="#glyph3-8" x="14.109019" y="73.233262"/>
  <use xlink:href="#glyph3-1" x="14.109019" y="70.127198"/>
  <use xlink:href="#glyph3-2" x="14.109019" y="66.164601"/>
  <use xlink:href="#glyph3-7" x="14.109019" y="63.058538"/>
</g>
<path style="fill-rule:nonzero;fill:rgb(77.49939%,77.49939%,77.49939%);fill-opacity:1;stroke-width:0.3985;stroke-linecap:butt;stroke-linejoin:miter;stroke:rgb(69.999695%,69.999695%,69.999695%);stroke-opacity:1;stroke-miterlimit:10;" d="M -1.493338 -1.99329 L 1.493886 -1.99329 L 1.493886 5.977862 L -1.493338 5.977862 Z M 4.485026 -1.99329 L 7.47225 -1.99329 L 7.47225 3.985074 L 4.485026 3.985074 Z M 4.485026 -1.99329 " transform="matrix(0.997738,0,0,-0.997738,42.548555,23.147936)"/>
<g style="fill:rgb(0%,0%,0%);fill-opacity:1;">
  <use xlink:href="#glyph4-1" x="62.389581" y="24.128713"/>
  <use xlink:href="#glyph4-2" x="66.117107" y="24.128713"/>
</g>
<g style="fill:rgb(0%,0%,0%);fill-opacity:1;">
  <use xlink:href="#glyph4-3" x="71.845569" y="24.128713"/>
  <use xlink:href="#glyph4-4" x="75.573094" y="24.128713"/>
  <use xlink:href="#glyph4-5" x="78.610282" y="24.128713"/>
  <use xlink:href="#glyph4-4" x="80.784672" y="24.128713"/>
  <use xlink:href="#glyph4-1" x="83.82186" y="24.128713"/>
  <use xlink:href="#glyph4-6" x="87.549386" y="24.128713"/>
  <use xlink:href="#glyph4-4" x="90.586574" y="24.128713"/>
</g>
<path style="fill-rule:nonzero;fill:rgb(100%,72.499084%,44.999695%);fill-opacity:1;stroke-width:0.3985;stroke-linecap:butt;stroke-linejoin:miter;stroke:rgb(69.999695%,34.999084%,0%);stroke-opacity:1;stroke-miterlimit:10;" d="M -1.493338 -1.991459 L 1.493886 -1.991459 L 1.493886 5.975778 L -1.493338 5.975778 Z M 4.485026 -1.991459 L 7.47225 -1.991459 L 7.47225 3.986905 L 4.485026 3.986905 Z M 4.485026 -1.991459 " transform="matrix(0.997738,0,0,-0.997738,42.548555,33.770857)"/>
<g style="fill:rgb(0%,0%,0%);fill-opacity:1;">
  <use xlink:href="#glyph4-7" x="57.747104" y="34.750636"/>
  <use xlink:href="#glyph4-1" x="61.47463" y="34.750636"/>
  <use xlink:href="#glyph4-6" x="65.202156" y="34.750636"/>
  <use xlink:href="#glyph4-2" x="68.239344" y="34.750636"/>
  <use xlink:href="#glyph4-1" x="71.621949" y="34.750636"/>
  <use xlink:href="#glyph4-3" x="75.349475" y="34.750636"/>
  <use xlink:href="#glyph4-8" x="79.077001" y="34.750636"/>
  <use xlink:href="#glyph4-9" x="81.078931" y="34.750636"/>
  <use xlink:href="#glyph4-8" x="83.771198" y="34.750636"/>
  <use xlink:href="#glyph4-2" x="85.773128" y="34.750636"/>
  <use xlink:href="#glyph4-1" x="89.155734" y="34.750636"/>
  <use xlink:href="#glyph4-10" x="92.883259" y="34.750636"/>
  <use xlink:href="#glyph4-11" x="96.265865" y="34.750636"/>
</g>
<path style="fill-rule:nonzero;fill:rgb(44.999695%,44.999695%,100%);fill-opacity:1;stroke-width:0.3985;stroke-linecap:butt;stroke-linejoin:miter;stroke:rgb(0%,0%,69.999695%);stroke-opacity:1;stroke-miterlimit:10;" d="M -1.493338 -1.990628 L 1.493886 -1.990628 L 1.493886 5.97661 L -1.493338 5.97661 Z M 4.485026 -1.990628 L 7.47225 -1.990628 L 7.47225 3.983822 L 4.485026 3.983822 Z M 4.485026 -1.990628 " transform="matrix(0.997738,0,0,-0.997738,42.548555,44.392781)"/>
<g style="fill:rgb(0%,0%,0%);fill-opacity:1;">
  <use xlink:href="#glyph4-12" x="52.190699" y="45.37256"/>
  <use xlink:href="#glyph4-4" x="54.882967" y="45.37256"/>
  <use xlink:href="#glyph4-6" x="57.920155" y="45.37256"/>
  <use xlink:href="#glyph4-2" x="60.957343" y="45.37256"/>
  <use xlink:href="#glyph4-13" x="64.339948" y="45.37256"/>
  <use xlink:href="#glyph4-1" x="67.722553" y="45.37256"/>
  <use xlink:href="#glyph4-8" x="71.450079" y="45.37256"/>
  <use xlink:href="#glyph4-9" x="73.452009" y="45.37256"/>
  <use xlink:href="#glyph4-8" x="76.144277" y="45.37256"/>
  <use xlink:href="#glyph4-2" x="78.146207" y="45.37256"/>
  <use xlink:href="#glyph4-1" x="81.528812" y="45.37256"/>
  <use xlink:href="#glyph4-14" x="85.256338" y="45.37256"/>
  <use xlink:href="#glyph4-13" x="87.603188" y="45.37256"/>
  <use xlink:href="#glyph4-10" x="90.985793" y="45.37256"/>
  <use xlink:href="#glyph4-9" x="94.368399" y="45.37256"/>
  <use xlink:href="#glyph4-4" x="97.060666" y="45.37256"/>
  <use xlink:href="#glyph4-3" x="100.097854" y="45.37256"/>
</g>
<path style="fill:none;stroke-width:0.3985;stroke-linecap:butt;stroke-linejoin:miter;stroke:rgb(87.5%,87.5%,87.5%);stroke-opacity:1;stroke-miterlimit:10;" d="M -12.306487 -0.0012239 L 135.343843 -0.0012239 M -12.306487 30.74409 L 135.343843 30.74409 M -12.306487 61.485489 L 135.343843 61.485489 M -12.306487 92.226889 L 135.343843 92.226889 M -12.306487 122.972203 L 135.343843 122.972203 M -12.306487 153.713602 L 135.343843 153.713602 " transform="matrix(0.997738,0,0,-0.997738,224.141936,172.608154)"/>
<path style="fill:none;stroke-width:0.19925;stroke-linecap:butt;stroke-linejoin:miter;stroke:rgb(50%,50%,50%);stroke-opacity:1;stroke-miterlimit:10;" d="M -0.00131394 -4.253027 L -0.00131394 -0.0012239 M 41.013319 -4.253027 L 41.013319 -0.0012239 M 82.027952 -4.253027 L 82.027952 -0.0012239 M 123.03867 -4.253027 L 123.03867 -0.0012239 M -0.00131394 165.650755 L -0.00131394 161.398952 M 41.013319 165.650755 L 41.013319 161.398952 M 82.027952 165.650755 L 82.027952 161.398952 M 123.03867 165.650755 L 123.03867 161.398952 " transform="matrix(0.997738,0,0,-0.997738,224.141936,172.608154)"/>
<path style="fill:none;stroke-width:0.19925;stroke-linecap:butt;stroke-linejoin:miter;stroke:rgb(50%,50%,50%);stroke-opacity:1;stroke-miterlimit:10;" d="M -12.306487 -0.0012239 L -8.054684 -0.0012239 M -12.306487 30.74409 L -8.054684 30.74409 M -12.306487 61.485489 L -8.054684 61.485489 M -12.306487 92.226889 L -8.054684 92.226889 M -12.306487 122.972203 L -8.054684 122.972203 M -12.306487 153.713602 L -8.054684 153.713602 M 135.343843 -0.0012239 L 131.092039 -0.0012239 M 135.343843 30.74409 L 131.092039 30.74409 M 135.343843 61.485489 L 131.092039 61.485489 M 135.343843 92.226889 L 131.092039 92.226889 M 135.343843 122.972203 L 131.092039 122.972203 M 135.343843 153.713602 L 131.092039 153.713602 " transform="matrix(0.997738,0,0,-0.997738,224.141936,172.608154)"/>
<path style="fill:none;stroke-width:0.3985;stroke-linecap:butt;stroke-linejoin:miter;stroke:rgb(69.999695%,69.999695%,69.999695%);stroke-opacity:1;stroke-miterlimit:10;" d="M -12.306487 -0.0012239 L -12.306487 161.398952 L 135.343843 161.398952 L 135.343843 -0.0012239 Z M -12.306487 -0.0012239 " transform="matrix(0.997738,0,0,-0.997738,224.141936,172.608154)"/>
<g style="fill:rgb(0%,0%,0%);fill-opacity:1;">
  <use xlink:href="#glyph0-1" x="192.99354" y="205.193293"/>
  <use xlink:href="#glyph0-2" x="196.927947" y="201.891902"/>
  <use xlink:href="#glyph0-3" x="199.254555" y="199.939628"/>
  <use xlink:href="#glyph0-3" x="203.431864" y="196.434416"/>
  <use xlink:href="#glyph0-4" x="207.609174" y="192.929204"/>
  <use xlink:href="#glyph0-5" x="210.200385" y="190.754899"/>
  <use xlink:href="#glyph0-6" x="211.998166" y="189.246367"/>
  <use xlink:href="#glyph0-5" x="214.589377" y="187.072062"/>
  <use xlink:href="#glyph0-6" x="216.387158" y="185.56353"/>
  <use xlink:href="#glyph0-7" x="218.978369" y="183.389225"/>
</g>
<g style="fill:rgb(0%,0%,0%);fill-opacity:1;">
  <use xlink:href="#glyph0-8" x="232.964937" y="206.03738"/>
  <use xlink:href="#glyph0-9" x="236.127235" y="203.383871"/>
  <use xlink:href="#glyph0-4" x="237.660793" y="202.097051"/>
  <use xlink:href="#glyph0-3" x="240.252004" y="199.922746"/>
  <use xlink:href="#glyph0-4" x="244.429313" y="196.417534"/>
  <use xlink:href="#glyph0-5" x="247.020524" y="194.243229"/>
  <use xlink:href="#glyph0-10" x="248.818306" y="192.734697"/>
  <use xlink:href="#glyph0-11" x="251.409517" y="190.560392"/>
  <use xlink:href="#glyph0-6" x="252.943075" y="189.273572"/>
  <use xlink:href="#glyph0-5" x="255.534286" y="187.099267"/>
  <use xlink:href="#glyph0-12" x="257.332067" y="185.590735"/>
  <use xlink:href="#glyph0-7" x="259.923278" y="183.41643"/>
</g>
<g style="fill:rgb(0%,0%,0%);fill-opacity:1;">
  <use xlink:href="#glyph0-13" x="272.667942" y="206.380602"/>
  <use xlink:href="#glyph0-14" x="276.581028" y="203.097101"/>
</g>
<g style="fill:rgb(0%,0%,0%);fill-opacity:1;">
  <use xlink:href="#glyph0-2" x="280.096258" y="200.147445"/>
  <use xlink:href="#glyph0-15" x="282.422865" y="198.195171"/>
  <use xlink:href="#glyph0-6" x="285.278299" y="195.799155"/>
  <use xlink:href="#glyph0-11" x="287.86951" y="193.62485"/>
  <use xlink:href="#glyph0-16" x="289.403068" y="192.338029"/>
  <use xlink:href="#glyph0-5" x="291.99428" y="190.163724"/>
  <use xlink:href="#glyph0-12" x="293.792061" y="188.655192"/>
  <use xlink:href="#glyph0-11" x="296.383272" y="186.480888"/>
  <use xlink:href="#glyph0-16" x="297.91683" y="185.194067"/>
  <use xlink:href="#glyph0-7" x="300.508041" y="183.019762"/>
</g>
<g style="fill:rgb(0%,0%,0%);fill-opacity:1;">
  <use xlink:href="#glyph0-17" x="311.812213" y="208.548687"/>
  <use xlink:href="#glyph0-3" x="314.667647" y="206.152671"/>
  <use xlink:href="#glyph0-18" x="318.844956" y="202.647459"/>
  <use xlink:href="#glyph0-9" x="321.436167" y="200.473154"/>
  <use xlink:href="#glyph0-8" x="322.969726" y="199.186333"/>
  <use xlink:href="#glyph0-19" x="326.132024" y="196.532825"/>
  <use xlink:href="#glyph0-6" x="330.658457" y="192.73466"/>
  <use xlink:href="#glyph0-5" x="333.249668" y="190.560355"/>
  <use xlink:href="#glyph0-12" x="335.04745" y="189.051823"/>
  <use xlink:href="#glyph0-11" x="337.638661" y="186.877518"/>
  <use xlink:href="#glyph0-20" x="339.172219" y="185.590698"/>
  <use xlink:href="#glyph0-7" x="341.76343" y="183.416393"/>
</g>
<g style="fill:rgb(0%,0%,0%);fill-opacity:1;">
  <use xlink:href="#glyph1-1" x="204.391704" y="174.850072"/>
</g>
<g style="fill:rgb(0%,0%,0%);fill-opacity:1;">
  <use xlink:href="#glyph1-1" x="198.068038" y="144.177598"/>
</g>
<g style="fill:rgb(0%,0%,0%);fill-opacity:1;">
  <use xlink:href="#glyph2-1" x="202.030057" y="144.177598"/>
</g>
<g style="fill:rgb(0%,0%,0%);fill-opacity:1;">
  <use xlink:href="#glyph1-2" x="204.390706" y="144.177598"/>
</g>
<g style="fill:rgb(0%,0%,0%);fill-opacity:1;">
  <use xlink:href="#glyph1-1" x="198.068038" y="113.505123"/>
</g>
<g style="fill:rgb(0%,0%,0%);fill-opacity:1;">
  <use xlink:href="#glyph2-1" x="202.030057" y="113.505123"/>
</g>
<g style="fill:rgb(0%,0%,0%);fill-opacity:1;">
  <use xlink:href="#glyph1-3" x="204.390706" y="113.505123"/>
</g>
<g style="fill:rgb(0%,0%,0%);fill-opacity:1;">
  <use xlink:href="#glyph1-1" x="198.068038" y="82.832649"/>
</g>
<g style="fill:rgb(0%,0%,0%);fill-opacity:1;">
  <use xlink:href="#glyph2-1" x="202.030057" y="82.832649"/>
</g>
<g style="fill:rgb(0%,0%,0%);fill-opacity:1;">
  <use xlink:href="#glyph1-4" x="204.390706" y="82.832649"/>
</g>
<g style="fill:rgb(0%,0%,0%);fill-opacity:1;">
  <use xlink:href="#glyph1-1" x="198.068038" y="52.159176"/>
</g>
<g style="fill:rgb(0%,0%,0%);fill-opacity:1;">
  <use xlink:href="#glyph2-1" x="202.030057" y="52.159176"/>
</g>
<g style="fill:rgb(0%,0%,0%);fill-opacity:1;">
  <use xlink:href="#glyph1-5" x="204.390706" y="52.159176"/>
</g>
<g style="fill:rgb(0%,0%,0%);fill-opacity:1;">
  <use xlink:href="#glyph1-6" x="204.390706" y="21.486702"/>
</g>
<g clip-path="url(#clip6)" clip-rule="nonzero">
<path style=" stroke:none;fill-rule:nonzero;fill:rgb(100%,72.499084%,44.999695%);fill-opacity:1;" d="M 219.171875 172.609375 L 223.148438 172.609375 L 223.148438 19.242188 L 219.171875 19.242188 Z M 260.09375 172.609375 L 264.070312 172.609375 L 264.070312 80.589844 L 260.09375 80.589844 Z M 301.011719 172.609375 L 304.988281 172.609375 L 304.988281 19.242188 L 301.011719 19.242188 Z M 341.933594 172.609375 L 345.910156 172.609375 Z M 341.933594 172.609375 "/>
</g>
<g clip-path="url(#clip7)" clip-rule="nonzero">
<path style="fill:none;stroke-width:0.3985;stroke-linecap:butt;stroke-linejoin:miter;stroke:rgb(69.999695%,34.999084%,0%);stroke-opacity:1;stroke-miterlimit:10;" d="M -4.981327 -0.0012239 L -0.99575 -0.0012239 L -0.99575 153.713602 L -4.981327 153.713602 Z M 36.033306 -0.0012239 L 40.018882 -0.0012239 L 40.018882 92.226889 L 36.033306 92.226889 Z M 77.044024 -0.0012239 L 81.0296 -0.0012239 L 81.0296 153.713602 L 77.044024 153.713602 Z M 118.058657 -0.0012239 L 122.044233 -0.0012239 Z M 118.058657 -0.0012239 " transform="matrix(0.997738,0,0,-0.997738,224.141936,172.608154)"/>
</g>
<g clip-path="url(#clip8)" clip-rule="nonzero">
<path style=" stroke:none;fill-rule:nonzero;fill:rgb(44.999695%,44.999695%,100%);fill-opacity:1;" d="M 225.136719 172.609375 L 229.113281 172.609375 Z M 266.054688 172.609375 L 270.03125 172.609375 Z M 306.976562 172.609375 L 310.953125 172.609375 L 310.953125 141.933594 L 306.976562 141.933594 Z M 347.898438 172.609375 L 351.875 172.609375 Z M 347.898438 172.609375 "/>
</g>
<g clip-path="url(#clip9)" clip-rule="nonzero">
<path style="fill:none;stroke-width:0.3985;stroke-linecap:butt;stroke-linejoin:miter;stroke:rgb(0%,0%,69.999695%);stroke-opacity:1;stroke-miterlimit:10;" d="M 0.997038 -0.0012239 L 4.982614 -0.0012239 Z M 42.007755 -0.0012239 L 45.993332 -0.0012239 Z M 83.022388 -0.0012239 L 87.007965 -0.0012239 L 87.007965 30.74409 L 83.022388 30.74409 Z M 124.037021 -0.0012239 L 128.022597 -0.0012239 Z M 124.037021 -0.0012239 " transform="matrix(0.997738,0,0,-0.997738,224.141936,172.608154)"/>
</g>
<g style="fill:rgb(0%,0%,0%);fill-opacity:1;">
  <use xlink:href="#glyph3-9" x="189.890574" y="124.940203"/>
</g>
<g style="fill:rgb(0%,0%,0%);fill-opacity:1;">
  <use xlink:href="#glyph3-7" x="189.890574" y="120.333988"/>
  <use xlink:href="#glyph3-10" x="189.890574" y="116.800006"/>
  <use xlink:href="#glyph3-11" x="189.890574" y="112.40949"/>
  <use xlink:href="#glyph3-12" x="189.890574" y="110.159264"/>
  <use xlink:href="#glyph3-10" x="189.890574" y="106.196667"/>
</g>
<g style="fill:rgb(0%,0%,0%);fill-opacity:1;">
  <use xlink:href="#glyph3-13" x="189.890574" y="99.12731"/>
</g>
<g style="fill:rgb(0%,0%,0%);fill-opacity:1;">
  <use xlink:href="#glyph3-14" x="189.890574" y="95.380412"/>
</g>
<g style="fill:rgb(0%,0%,0%);fill-opacity:1;">
  <use xlink:href="#glyph3-7" x="189.890574" y="91.419902"/>
  <use xlink:href="#glyph3-8" x="189.890574" y="87.88592"/>
  <use xlink:href="#glyph3-15" x="189.890574" y="84.779856"/>
  <use xlink:href="#glyph3-8" x="189.890574" y="82.101711"/>
  <use xlink:href="#glyph3-7" x="189.890574" y="78.995647"/>
  <use xlink:href="#glyph3-16" x="189.890574" y="75.461665"/>
  <use xlink:href="#glyph3-6" x="189.890574" y="72.997131"/>
  <use xlink:href="#glyph3-5" x="189.890574" y="68.606615"/>
  <use xlink:href="#glyph3-1" x="189.890574" y="65.457412"/>
  <use xlink:href="#glyph3-17" x="189.890574" y="61.494815"/>
</g>
<path style="fill-rule:nonzero;fill:rgb(100%,72.499084%,44.999695%);fill-opacity:1;stroke-width:0.3985;stroke-linecap:butt;stroke-linejoin:miter;stroke:rgb(69.999695%,34.999084%,0%);stroke-opacity:1;stroke-miterlimit:10;" d="M -1.495018 -1.99329 L 1.496122 -1.99329 L 1.496122 5.977862 L -1.495018 5.977862 Z M 4.483346 -1.99329 L 7.470571 -1.99329 L 7.470571 3.985074 L 4.483346 3.985074 Z M 4.483346 -1.99329 " transform="matrix(0.997738,0,0,-0.997738,219.683043,23.147936)"/>
<g style="fill:rgb(0%,0%,0%);fill-opacity:1;">
  <use xlink:href="#glyph4-7" x="234.881592" y="24.127715"/>
  <use xlink:href="#glyph4-1" x="238.609118" y="24.127715"/>
  <use xlink:href="#glyph4-6" x="242.336644" y="24.127715"/>
  <use xlink:href="#glyph4-2" x="245.373832" y="24.127715"/>
  <use xlink:href="#glyph4-1" x="248.756437" y="24.127715"/>
  <use xlink:href="#glyph4-3" x="252.483963" y="24.127715"/>
  <use xlink:href="#glyph4-8" x="256.211489" y="24.127715"/>
  <use xlink:href="#glyph4-9" x="258.213419" y="24.127715"/>
  <use xlink:href="#glyph4-8" x="260.905686" y="24.127715"/>
  <use xlink:href="#glyph4-2" x="262.907616" y="24.127715"/>
  <use xlink:href="#glyph4-1" x="266.290222" y="24.127715"/>
  <use xlink:href="#glyph4-10" x="270.017747" y="24.127715"/>
  <use xlink:href="#glyph4-11" x="273.400353" y="24.127715"/>
</g>
<path style="fill-rule:nonzero;fill:rgb(44.999695%,44.999695%,100%);fill-opacity:1;stroke-width:0.3985;stroke-linecap:butt;stroke-linejoin:miter;stroke:rgb(0%,0%,69.999695%);stroke-opacity:1;stroke-miterlimit:10;" d="M -1.495018 -1.992459 L 1.496122 -1.992459 L 1.496122 5.978693 L -1.495018 5.978693 Z M 4.483346 -1.992459 L 7.470571 -1.992459 L 7.470571 3.985905 L 4.483346 3.985905 Z M 4.483346 -1.992459 " transform="matrix(0.997738,0,0,-0.997738,219.683043,33.76986)"/>
<g style="fill:rgb(0%,0%,0%);fill-opacity:1;">
  <use xlink:href="#glyph4-12" x="229.324189" y="34.749639"/>
  <use xlink:href="#glyph4-4" x="232.016457" y="34.749639"/>
  <use xlink:href="#glyph4-6" x="235.053645" y="34.749639"/>
  <use xlink:href="#glyph4-2" x="238.090833" y="34.749639"/>
  <use xlink:href="#glyph4-13" x="241.473438" y="34.749639"/>
  <use xlink:href="#glyph4-1" x="244.856044" y="34.749639"/>
  <use xlink:href="#glyph4-8" x="248.58357" y="34.749639"/>
  <use xlink:href="#glyph4-9" x="250.585499" y="34.749639"/>
  <use xlink:href="#glyph4-8" x="253.277767" y="34.749639"/>
  <use xlink:href="#glyph4-2" x="255.279697" y="34.749639"/>
  <use xlink:href="#glyph4-1" x="258.662302" y="34.749639"/>
  <use xlink:href="#glyph4-14" x="262.389828" y="34.749639"/>
  <use xlink:href="#glyph4-13" x="264.736678" y="34.749639"/>
  <use xlink:href="#glyph4-10" x="268.119284" y="34.749639"/>
  <use xlink:href="#glyph4-9" x="271.501889" y="34.749639"/>
  <use xlink:href="#glyph4-4" x="274.194157" y="34.749639"/>
  <use xlink:href="#glyph4-3" x="277.231345" y="34.749639"/>
</g>
</g>
</svg>
